<svg id="Layer_1" data-name="Layer 1" xmlns="http://www.w3.org/2000/svg" xmlns:xlink="http://www.w3.org/1999/xlink" viewBox="0 0 1024 1024"><defs><style>.cls-1{fill:#e6e6e6;}.cls-2{fill:#ccc;}.cls-3{fill:url(#linear-gradient);}.cls-4{fill:#fafafa;}.cls-5{fill:#f2f2f2;}.cls-6{fill:#3f3d56;}.cls-7{fill:url(#linear-gradient-2);}.cls-8{fill:#fff;}.cls-9{fill:#c8c8cc;}.cls-10{fill:#ff6584;}.cls-11{fill:url(#linear-gradient-3);}.cls-12{fill:url(#linear-gradient-4);}.cls-13{fill:#fbbebe;}.cls-14,.cls-17{opacity:0.1;}.cls-14{isolation:isolate;}.cls-15{fill:#2f2e41;}.cls-16{fill:url(#linear-gradient-5);}.cls-18{fill:url(#linear-gradient-6);}.cls-19{fill:#ffb8b8;}.cls-20{fill:url(#linear-gradient-7);}.cls-21{fill:url(#linear-gradient-8);}.cls-22{fill:url(#linear-gradient-9);}</style><linearGradient id="linear-gradient" x1="420.84" y1="332.6" x2="505.37" y2="332.6" gradientUnits="userSpaceOnUse"><stop offset="0" stop-color="#f06d06"/><stop offset="1" stop-color="red"/></linearGradient><linearGradient id="linear-gradient-2" x1="269.19" y1="462.48" x2="688.73" y2="462.48" xlink:href="#linear-gradient"/><linearGradient id="linear-gradient-3" x1="298.9" y1="340.23" x2="327.39" y2="340.23" xlink:href="#linear-gradient"/><linearGradient id="linear-gradient-4" x1="640.15" y1="320.54" x2="668.64" y2="320.54" xlink:href="#linear-gradient"/><linearGradient id="linear-gradient-5" x1="202.54" y1="541.13" x2="284.73" y2="541.13" xlink:href="#linear-gradient"/><linearGradient id="linear-gradient-6" x1="139.15" y1="872.39" x2="171.8" y2="872.39" xlink:href="#linear-gradient"/><linearGradient id="linear-gradient-7" x1="821.18" y1="560.75" x2="930.15" y2="560.75" xlink:href="#linear-gradient"/><linearGradient id="linear-gradient-8" x1="888.94" y1="567.04" x2="940.39" y2="567.04" xlink:href="#linear-gradient"/><linearGradient id="linear-gradient-9" x1="740.26" y1="476.13" x2="859.68" y2="476.13" xlink:href="#linear-gradient"/></defs><path class="cls-1" d="M627.5,431.06l.06-.13,3.24,1.61"/><polyline class="cls-2" points="627.5 431.06 627.56 430.93 630.8 432.54"/><path class="cls-3" d="M504.14,349.75,479,301.68a29.89,29.89,0,0,0-37.21-18.52c-.28.08-.55.17-.83.27a30,30,0,0,0-18.42,38.12l10.1,53.13a10.76,10.76,0,0,0,5.2,7.31,10.79,10.79,0,0,0,8.93.85l5.4-1.88,34.67-12.08,11.33-3.95a10.79,10.79,0,0,0,6.63-13.74,11.61,11.61,0,0,0-.63-1.44Z"/><g id="Component_2_5" data-name="Component 2 5"><path id="Path_180" data-name="Path 180" class="cls-4" d="M85.43,105.58c228-99.1,1164.76-159.52,877,468.09s-775.85,0-775.85,0S-142.58,204.72,85.43,105.58Z"/></g><circle class="cls-5" cx="644.17" cy="339.47" r="157.5"/><path class="cls-6" d="M655.32,498.94c-1.82,0-3.66,0-5.46-.09l0-1.31c2.59.08,5.24.1,7.84.07l0,1.31Zm10.33-.31-.07-1.31c2.59-.15,5.22-.37,7.81-.64l.14,1.31C670.92,498.26,668.27,498.48,665.65,498.63Zm-23.68-.2c-2.62-.2-5.27-.47-7.87-.78l.16-1.31c2.58.32,5.21.58,7.81.78Zm39.4-1.45-.2-1.29c2.58-.39,5.18-.85,7.72-1.35l.26,1.28C686.59,496.13,684,496.59,681.37,497Zm-55.09-.48c-2.58-.43-5.19-.94-7.75-1.49l.27-1.29c2.55.56,5.14,1.06,7.7,1.49Zm70.58-2.6-.31-1.27c2.53-.63,5.08-1.32,7.57-2.06l.37,1.26C702,492.58,699.42,493.27,696.86,493.9Zm-86-.75c-2.53-.67-5.09-1.41-7.58-2.21l.39-1.25c2.48.79,5,1.52,7.53,2.19ZM712,489.41l-.43-1.24c2.46-.85,4.93-1.78,7.35-2.74l.48,1.21c-2.43,1-4.92,1.91-7.4,2.77Zm-116.25-1c-2.46-.9-4.94-1.88-7.37-2.9l.51-1.21c2.41,1,4.87,2,7.31,2.88Zm130.9-4.83-.54-1.2c2.36-1.07,4.73-2.21,7-3.4l.6,1.17c-2.34,1.19-4.73,2.35-7.11,3.43Zm-145.49-1.31c-2.37-1.13-4.75-2.33-7.07-3.57l.62-1.16c2.3,1.23,4.66,2.42,7,3.54Zm159.54-5.87-.65-1.14c2.26-1.29,4.52-2.65,6.71-4l.7,1.11c-2.21,1.4-4.48,2.77-6.76,4.07Zm-173.5-1.59c-2.25-1.34-4.51-2.75-6.7-4.2l.72-1.09c2.18,1.43,4.42,2.83,6.65,4.16ZM754,467.93l-.75-1.07c2.13-1.49,4.26-3.05,6.32-4.64l.8,1c-2.07,1.6-4.22,3.17-6.37,4.67Zm-200-1.85c-2.12-1.54-4.23-3.15-6.29-4.79l.82-1c2,1.62,4.14,3.22,6.24,4.75Zm212.56-7.77-.84-1c2-1.68,4-3.43,5.87-5.2l.89,1C770.56,454.86,768.57,456.62,766.56,458.31Zm-224.91-2.09c-2-1.73-3.93-3.53-5.83-5.34l.91-.95c1.88,1.8,3.82,3.59,5.78,5.3Zm236.51-8.64-.93-.92c1.83-1.86,3.64-3.78,5.38-5.71l1,.88c-1.76,1.95-3.58,3.88-5.43,5.75Zm-247.91-2.3c-1.81-1.91-3.6-3.87-5.32-5.85l1-.86c1.7,2,3.47,3.91,5.27,5.8Zm258.49-9.44-1-.83c1.65-2,3.28-4.09,4.84-6.18l1,.79C792.05,431.72,790.41,433.81,788.74,435.84Zm-268.85-2.49c-1.62-2.06-3.22-4.18-4.75-6.3l1.06-.77c1.52,2.11,3.11,4.22,4.72,6.25Zm278.32-10.17-1.09-.74c1.47-2.15,2.9-4.37,4.26-6.59l1.12.68C801.13,418.77,799.68,421,798.21,423.18Zm-287.54-2.65c-1.43-2.19-2.83-4.44-4.16-6.7l1.13-.67c1.32,2.24,2.71,4.48,4.13,6.66ZM806.49,409.7l-1.15-.64c1.26-2.28,2.48-4.62,3.64-7l1.18.59C809,405,807.76,407.4,806.49,409.7Zm-303.83-2.76c-1.22-2.31-2.41-4.69-3.52-7.06l1.18-.56c1.11,2.35,2.29,4.71,3.5,7ZM813.5,395.51l-1.2-.53c1-2.39,2.05-4.83,3-7.27l1.23.47c-1,2.46-2,4.92-3,7.33Zm-317.56-2.83c-1-2.42-2-4.89-2.87-7.35l1.24-.44c.88,2.44,1.84,4.89,2.84,7.28Zm323.23-12-1.24-.41c.82-2.47,1.59-5,2.29-7.5l1.27.36C820.78,375.7,820,378.24,819.17,380.72Zm-328.63-2.87c-.78-2.5-1.51-5.06-2.18-7.6l1.27-.33c.66,2.52,1.39,5.05,2.17,7.54Zm332.91-12.34-1.28-.29c.59-2.53,1.13-5.12,1.6-7.68l1.29.24C824.59,360.36,824,363,823.45,365.51Zm-336.91-2.95c-.55-2.56-1.05-5.17-1.48-7.76l1.3-.21c.42,2.56.92,5.16,1.46,7.7ZM826.31,350l-1.3-.17c.35-2.57.65-5.19.89-7.79l1.3.11C827,344.74,826.67,347.38,826.31,350ZM484,347c-.31-2.6-.57-5.25-.76-7.87l1.31-.09c.19,2.6.44,5.22.75,7.8Zm343.79-12.74-1.31-.06c.11-2.6.17-5.24.17-7.84h1.32C827.92,329,827.86,331.62,827.74,334.24Zm-344.94-3c-.05-1.61-.07-3.25-.07-4.88,0-1,0-2,0-3l1.32,0q0,1.5,0,3c0,1.62,0,3.25.07,4.85Zm343.79-6.71c0-2.6-.11-5.24-.25-7.84l1.31-.07c.14,2.62.23,5.28.26,7.9Zm-342.21-9-1.31-.09c.16-2.62.39-5.27.67-7.87l1.3.14C484.76,310.27,484.54,312.9,484.38,315.51Zm341.34-6.66c-.26-2.58-.59-5.2-1-7.78l1.3-.19c.38,2.6.71,5.23,1,7.84Zm-339.65-8.93-1.3-.2c.4-2.6.87-5.22,1.39-7.78l1.28.26C486.93,294.74,486.46,297.34,486.07,299.92Zm337.36-6.58c-.5-2.56-1.07-5.13-1.68-7.66l1.27-.31c.62,2.55,1.19,5.14,1.7,7.72Zm-334.26-8.79-1.27-.32c.64-2.54,1.34-5.1,2.1-7.62l1.26.38C490.51,279.48,489.81,282,489.17,284.55Zm330.55-6.44c-.73-2.5-1.53-5-2.38-7.47l1.24-.43c.86,2.48,1.66,5,2.4,7.53Zm-326-8.6-1.24-.43c.88-2.48,1.82-5,2.8-7.41l1.22.49c-1,2.42-1.91,4.89-2.78,7.35Zm320.93-6.23c-1-2.41-2-4.84-3-7.2l1.2-.54c1.07,2.38,2.11,4.82,3.07,7.26Zm-315-8.33-1.19-.55c1.1-2.39,2.26-4.78,3.47-7.12l1.17.6C501.83,250.2,500.67,252.58,499.58,255ZM808.2,249c-1.18-2.32-2.42-4.64-3.7-6.9l1.14-.65c1.29,2.28,2.55,4.62,3.73,6.95Zm-301.41-8-1.14-.65c1.31-2.28,2.69-4.55,4.1-6.77l1.11.71C509.46,236.48,508.09,238.73,506.79,241Zm293.7-5.6c-1.39-2.21-2.84-4.41-4.32-6.54l1.08-.75c1.49,2.15,3,4.37,4.35,6.59Zm-285.25-7.63-1.08-.75c1.52-2.15,3.1-4.29,4.71-6.36l1,.8C518.31,223.51,516.74,225.63,515.24,227.76Zm276.32-5.24c-1.58-2.08-3.23-4.13-4.9-6.12l1-.85c1.68,2,3.34,4.08,4.93,6.17Zm-266.71-7.16-1-.85c1.7-2,3.47-4,5.26-5.9l1,.9C528.29,211.41,526.54,213.38,524.85,215.36Zm256.64-4.86c-1.76-1.92-3.59-3.82-5.43-5.65l.92-.93c1.86,1.84,3.7,3.76,5.48,5.69Zm-245.94-6.6-.92-.94c1.88-1.84,3.82-3.65,5.78-5.4l.87,1C539.34,200.27,537.41,202.08,535.55,203.9Zm234.82-4.45c-1.93-1.75-3.93-3.48-5.93-5.14l.84-1c2,1.67,4,3.41,6,5.18Zm-223.13-6-.82-1c2-1.66,4.12-3.29,6.23-4.85l.78,1.06c-2.09,1.55-4.17,3.17-6.19,4.81Zm211-4c-2.08-1.57-4.23-3.11-6.37-4.58l.74-1.08c2.16,1.48,4.32,3,6.42,4.61Zm-198.45-5.32L559.1,183c2.17-1.47,4.41-2.9,6.65-4.26l.68,1.12C564.21,181.25,562,182.68,559.83,184.13Zm185.5-3.54c-2.22-1.38-4.5-2.71-6.77-4l.64-1.15c2.29,1.28,4.58,2.63,6.82,4ZM573.21,176l-.63-1.15c2.3-1.26,4.66-2.48,7-3.63l.57,1.18c-2.33,1.14-4.67,2.35-6.95,3.6Zm158.4-3c-2.33-1.17-4.73-2.29-7.11-3.34l.53-1.21c2.4,1.07,4.81,2.2,7.17,3.37Zm-144.34-3.84-.52-1.2c2.4-1,4.86-2,7.3-3l.47,1.23c-2.43.92-4.87,1.91-7.25,2.94Zm130-2.52c-2.43-.94-4.91-1.84-7.39-2.67l.42-1.24c2.49.84,5,1.74,7.45,2.69Zm-115.33-3-.41-1.25c2.5-.81,5-1.58,7.57-2.28l.35,1.26c-2.51.7-5,1.46-7.51,2.27Zm100.45-2c-2.5-.71-5.06-1.38-7.59-2l.3-1.28c2.55.6,5.13,1.27,7.65,2ZM617,159.36l-.29-1.28c2.55-.58,5.16-1.12,7.74-1.58l.23,1.29C622.14,158.25,619.56,158.78,617,159.36ZM687.1,158c-2.56-.48-5.16-.9-7.74-1.27l.18-1.3c2.6.37,5.23.8,7.8,1.28Zm-54.65-1.43-.17-1.3c2.59-.34,5.24-.64,7.85-.86l.11,1.3C637.65,155.94,635,156.23,632.45,156.57Zm39.12-.75c-2.58-.24-5.21-.43-7.82-.56l.06-1.31c2.63.13,5.28.32,7.89.56Zm-23.5-.61L648,153.9c2.42-.1,4.87-.15,7.31-.15h.6v1.31h-.59C652.9,155.06,650.46,155.11,648.07,155.21Z"/><rect class="cls-7" x="269.19" y="359.37" width="419.54" height="206.22"/><rect class="cls-8" x="337.7" y="407.72" width="3.94" height="1.31"/><path class="cls-8" d="M643.44,409H635.5v-1.31h7.94Zm-15.88,0h-7.94v-1.31h7.94Zm-15.89,0h-7.94v-1.31h7.94Zm-15.88,0h-7.94v-1.31h7.94Zm-15.89,0H572v-1.31h7.94ZM564,409h-7.94v-1.31H564Zm-15.89,0h-7.94v-1.31h7.94Zm-15.88,0h-7.94v-1.31h7.94Zm-15.89,0h-7.94v-1.31h7.94Zm-15.88,0h-7.94v-1.31h7.94Zm-15.88,0h-8v-1.31h8Zm-15.89,0h-7.94v-1.31h7.94Zm-15.88,0h-7.95v-1.31h7.95Zm-15.89,0H429v-1.31h7.94Zm-15.88,0h-7.95v-1.31h7.95Zm-15.89,0h-7.94v-1.31h7.94Zm-15.88,0h-8v-1.31h8Zm-15.89,0h-7.94v-1.31h7.94Zm-15.88,0h-7.94v-1.31h7.94Z"/><rect class="cls-8" x="651.38" y="407.72" width="3.94" height="1.31"/><rect class="cls-8" x="337.7" y="435.28" width="3.94" height="1.31"/><path class="cls-8" d="M643.44,436.59H635.5v-1.31h7.94Zm-15.88,0h-7.94v-1.31h7.94Zm-15.89,0h-7.94v-1.31h7.94Zm-15.88,0h-7.94v-1.31h7.94Zm-15.89,0H572v-1.31h7.94Zm-15.88,0h-7.94v-1.31H564Zm-15.89,0h-7.94v-1.31h7.94Zm-15.88,0h-7.94v-1.31h7.94Zm-15.89,0h-7.94v-1.31h7.94Zm-15.88,0h-7.94v-1.31h7.94Zm-15.88,0h-8v-1.31h8Zm-15.89,0h-7.94v-1.31h7.94Zm-15.88,0h-7.95v-1.31h7.95Zm-15.89,0H429v-1.31h7.94Zm-15.88,0h-7.95v-1.31h7.95Zm-15.89,0h-7.94v-1.31h7.94Zm-15.88,0h-8v-1.31h8Zm-15.89,0h-7.94v-1.31h7.94Zm-15.88,0h-7.94v-1.31h7.94Z"/><rect class="cls-8" x="651.38" y="435.28" width="3.94" height="1.31"/><rect class="cls-8" x="337.7" y="462.84" width="3.94" height="1.31"/><path class="cls-8" d="M643.44,464.16H635.5v-1.32h7.94Zm-15.88,0h-7.94v-1.32h7.94Zm-15.89,0h-7.94v-1.32h7.94Zm-15.88,0h-7.94v-1.32h7.94Zm-15.89,0H572v-1.32h7.94Zm-15.88,0h-7.94v-1.32H564Zm-15.89,0h-7.94v-1.32h7.94Zm-15.88,0h-7.94v-1.32h7.94Zm-15.89,0h-7.94v-1.32h7.94Zm-15.88,0h-7.94v-1.32h7.94Zm-15.88,0h-8v-1.32h8Zm-15.89,0h-7.94v-1.32h7.94Zm-15.88,0h-7.95v-1.32h7.95Zm-15.89,0H429v-1.32h7.94Zm-15.88,0h-7.95v-1.32h7.95Zm-15.89,0h-7.94v-1.32h7.94Zm-15.88,0h-8v-1.32h8Zm-15.89,0h-7.94v-1.32h7.94Zm-15.88,0h-7.94v-1.32h7.94Z"/><rect class="cls-8" x="651.38" y="462.84" width="3.94" height="1.31"/><rect class="cls-8" x="337.7" y="490.41" width="3.94" height="1.31"/><path class="cls-8" d="M643.44,491.72H635.5v-1.31h7.94Zm-15.88,0h-7.94v-1.31h7.94Zm-15.89,0h-7.94v-1.31h7.94Zm-15.88,0h-7.94v-1.31h7.94Zm-15.89,0H572v-1.31h7.94Zm-15.88,0h-7.94v-1.31H564Zm-15.89,0h-7.94v-1.31h7.94Zm-15.88,0h-7.94v-1.31h7.94Zm-15.89,0h-7.94v-1.31h7.94Zm-15.88,0h-7.94v-1.31h7.94Zm-15.88,0h-8v-1.31h8Zm-15.89,0h-7.94v-1.31h7.94Zm-15.88,0h-7.95v-1.31h7.95Zm-15.89,0H429v-1.31h7.94Zm-15.88,0h-7.95v-1.31h7.95Zm-15.89,0h-7.94v-1.31h7.94Zm-15.88,0h-8v-1.31h8Zm-15.89,0h-7.94v-1.31h7.94Zm-15.88,0h-7.94v-1.31h7.94Z"/><rect class="cls-8" x="651.38" y="490.41" width="3.94" height="1.31"/><rect class="cls-8" x="337.7" y="517.97" width="3.94" height="1.31"/><path class="cls-8" d="M643.44,519.28H635.5V518h7.94Zm-15.88,0h-7.94V518h7.94Zm-15.89,0h-7.94V518h7.94Zm-15.88,0h-7.94V518h7.94Zm-15.89,0H572V518h7.94Zm-15.88,0h-7.94V518H564Zm-15.89,0h-7.94V518h7.94Zm-15.88,0h-7.94V518h7.94Zm-15.89,0h-7.94V518h7.94Zm-15.88,0h-7.94V518h7.94Zm-15.88,0h-8V518h8Zm-15.89,0h-7.94V518h7.94Zm-15.88,0h-7.95V518h7.95Zm-15.89,0H429V518h7.94Zm-15.88,0h-7.95V518h7.95Zm-15.89,0h-7.94V518h7.94Zm-15.88,0h-8V518h8Zm-15.89,0h-7.94V518h7.94Zm-15.88,0h-7.94V518h7.94Z"/><rect class="cls-8" x="651.38" y="517.97" width="3.94" height="1.31"/><circle class="cls-6" cx="339.01" cy="518.62" r="9.19"/><circle class="cls-6" cx="400.7" cy="491.06" r="9.19"/><circle class="cls-6" cx="464.35" cy="463.5" r="9.19"/><circle class="cls-6" cx="527.35" cy="435.94" r="9.19"/><circle class="cls-6" cx="575.26" cy="462.19" r="9.19"/><circle class="cls-6" cx="623.82" cy="408.37" r="9.19"/><circle class="cls-8" cx="307.51" cy="408.37" r="5.91"/><circle class="cls-8" cx="307.51" cy="435.94" r="5.91"/><circle class="cls-8" cx="307.51" cy="463.5" r="5.91"/><circle class="cls-8" cx="307.51" cy="491.06" r="5.91"/><circle class="cls-8" cx="307.51" cy="518.62" r="5.91"/><polygon class="cls-6" points="624.48 393.28 623.16 393.28 623.16 275.15 677.63 275.15 677.63 276.47 624.48 276.47 624.48 393.28"/><circle class="cls-8" cx="653.35" cy="307.97" r="17.06"/><path class="cls-6" d="M655.32,326.34A21.66,21.66,0,1,1,677,304.69h0A21.68,21.68,0,0,1,655.32,326.34Zm0-42a20.35,20.35,0,1,0,20.35,20.35A20.35,20.35,0,0,0,655.32,284.34Z"/><polygon class="cls-6" points="401.35 472.69 400.04 472.69 400.04 272.53 454.51 272.53 454.51 273.84 401.35 273.84 401.35 472.69"/><circle class="cls-5" cx="430.23" cy="305.34" r="17.06"/><ellipse class="cls-9" cx="849.71" cy="881.7" rx="110.91" ry="20.34"/><path class="cls-6" d="M432.2,323.72a21.66,21.66,0,1,1,21.65-21.66A21.66,21.66,0,0,1,432.2,323.72Zm0-42a20.34,20.34,0,1,0,20.34,20.34A20.35,20.35,0,0,0,432.2,281.72Z"/><polygon class="cls-6" points="344.59 494.01 343.27 494.01 343.27 295.17 290.12 295.17 290.12 293.86 344.59 293.86 344.59 494.01"/><circle class="cls-5" cx="314.4" cy="326.67" r="17.06"/><path class="cls-6" d="M312.43,345.05a21.66,21.66,0,1,1,21.66-21.66A21.66,21.66,0,0,1,312.43,345.05Zm0-42a20.34,20.34,0,1,0,20.34,20.34A20.33,20.33,0,0,0,312.43,303.05Z"/><rect class="cls-6" x="250.41" y="565.22" width="752.72" height="1.31"/><path class="cls-10" d="M442.12,338.68H415a94.8,94.8,0,0,1,0-32.32h27.11A58.22,58.22,0,0,0,442.12,338.68Z"/><path class="cls-11" d="M298.9,356.39H326a94.8,94.8,0,0,0,0-32.32H298.9A58.22,58.22,0,0,1,298.9,356.39Z"/><path class="cls-12" d="M640.15,336.7h27.1a94.8,94.8,0,0,0,0-32.32h-27.1A58.22,58.22,0,0,1,640.15,336.7Z"/><ellipse class="cls-9" cx="283.95" cy="928.93" rx="110.91" ry="20.34"/><path class="cls-13" d="M298,684.21c.3,4,1.42,8.75,5.19,10.13a9.57,9.57,0,0,0,5.56-.09,23.46,23.46,0,0,0,12.35-7.07c3.15-3.66,4.72-8.83,3.4-13.46-1.27-4.42-4.83-7.73-7.34-11.57-2.94-4.49-3.88-9.58-5.92-14.39C295.06,649.31,297.1,672.2,298,684.21Z"/><path class="cls-6" d="M281,491.42c-2.15,7,5.48,14.63,7.94,21.51s5.77,13.49,7.09,20.7c.92,5,.87,10,1.22,15,.67,9.45,2.76,18.73,5,27.92q4.74,19.92,10.16,39.66a146.55,146.55,0,0,1,4.23,18.24,70.07,70.07,0,0,1-.07,20.09,25.69,25.69,0,0,0-19.08,1.75,56.59,56.59,0,0,1-7.25-23.59,123.38,123.38,0,0,1,.13-14.77c.64-13.91-5.39-27.84-5.59-41.77a79,79,0,0,0-1.14-14.4c-.65-3.27-.59-9.39-1.3-12.64-1.14-5.18,3.73-7.57,3.46-12.88l-1.48-29C284,502.2,278.92,496,281,491.42Z"/><path class="cls-14" d="M281,491.42c-2.15,7,5.48,14.63,7.94,21.51s5.77,13.49,7.09,20.7c.92,5,.87,10,1.22,15,.67,9.45,2.76,18.73,5,27.92q4.74,19.92,10.16,39.66a146.55,146.55,0,0,1,4.23,18.24,70.07,70.07,0,0,1-.07,20.09,25.69,25.69,0,0,0-19.08,1.75,56.59,56.59,0,0,1-7.25-23.59,123.38,123.38,0,0,1,.13-14.77c.64-13.91-5.39-27.84-5.59-41.77a79,79,0,0,0-1.14-14.4c-.65-3.27-.59-9.39-1.3-12.64-1.14-5.18,3.73-7.57,3.46-12.88l-1.48-29C284,502.2,278.92,496,281,491.42Z"/><path class="cls-13" d="M208,469a11,11,0,0,0,2.3,4.62,256.39,256.39,0,0,0,34.43,39A18.09,18.09,0,0,0,248,508a68.57,68.57,0,0,0,8.4-34.62c-5.78-1.86-12.34-4.46-14.19-10.24-1.47-4.56.5-10-2.08-14.06-3.67-5.73-19.25-6.46-24.25-2.3-3.28,2.72-2.11,5.26-3.15,8.94C211.54,459.79,207.35,464.67,208,469Z"/><path class="cls-14" d="M208,469a11,11,0,0,0,2.3,4.62,256.39,256.39,0,0,0,34.43,39A18.09,18.09,0,0,0,248,508a68.57,68.57,0,0,0,8.4-34.62c-5.78-1.86-12.34-4.46-14.19-10.24-1.47-4.56.5-10-2.08-14.06-3.67-5.73-19.25-6.46-24.25-2.3-3.28,2.72-2.11,5.26-3.15,8.94C211.54,459.79,207.35,464.67,208,469Z"/><path class="cls-6" d="M213.19,931.22a13.43,13.43,0,0,0,5.48,2.3,183.54,183.54,0,0,0,58.19,4.79c2.61-.21,6.09-1.6,5.45-4.14-.6-2.37-4-2.21-6.3-2.92s-3.8-2.41-5.42-4c-6-6-13.26-10.54-20.42-15.08a18.68,18.68,0,0,0-5.75-2.78c-2.47-.56-5-.09-7.55.39-6.3,1.19-18.31,1-23.3,5.65C209.58,919.13,209,927.55,213.19,931.22Z"/><path class="cls-6" d="M286.29,926.23c0,1.55.18,3.29,1.36,4.28a5,5,0,0,0,3.23.88,22.55,22.55,0,0,0,19.77-12l28-3.27c5.3-.62,10.7-1.27,15.57-3.46,5.75-2.6,10.34-7.17,14.79-11.64a5.88,5.88,0,0,0,1.73-2.49c.46-1.76-.88-3.61-2.57-4.31a10.35,10.35,0,0,0-5.41-.3c-13.67,1.89-27.39,8-40.77,4.6-3.27-.83-6.52-2.24-9.89-2a20.62,20.62,0,0,0-5.28,1.41c-4.35,1.6-17.36,3.87-20.24,7.55S286.29,921.83,286.29,926.23Z"/><path class="cls-15" d="M215.48,613.58c-4,6.23-12.43,7.59-18.32,12.06-9,6.87-10.58,19.67-11.1,31-.35,7.84-.57,15.8,1.17,23.46,1.22,5.33,3.36,10.41,5,15.64,3.5,11.37,4.48,23.35,5,35.23,1.37,30,.15,60.19,4,90,1.11,8.53,2.62,17,3.46,25.56,2.76,28.32-1.92,57.52,5.67,84.94a44.2,44.2,0,0,1,31.73-14.21c2.5,0,5.11.15,7.41-.86s4.12-3.69,3.16-6a18,18,0,0,0-2-2.84c-3.31-5,2.31-12.07-.09-17.58-.93-2.12-2.94-3.69-3.53-5.92-.63-2.42.59-4.9.93-7.38.68-5-2.19-9.66-3.68-14.45-2.25-7.25-1.35-15-.57-22.59A641.92,641.92,0,0,0,247.11,765c-.21-16.87-1.05-34.1,3.81-50.26A128.34,128.34,0,0,1,274,744c3.88,6.61,7.23,13.67,8.52,21.23.94,5.55.76,11.22.57,16.84q-1.44,43.16-2.89,86.3c-.58,17.4-1.08,35.31,4.95,51.63,15.33-8.16,31-16,46.33-24.21-.25-5.65-7.85-7.72-10.65-12.63a15.83,15.83,0,0,1-1.6-6.59c-1.94-23.38,2.83-46.74,7.24-69.78,1.68-8.78,3.32-17.63,3.31-26.56,0-14.18-4.15-28-8.44-41.51-4.54-14.31-9.29-28.56-14-42.81-3-9.15-6.1-18.31-9.92-27.17-3.6-8.38-7.88-16.47-10.95-25-4.93-13.78-6.62-28.47-8.27-43C257.4,604.81,236.29,609.42,215.48,613.58Z"/><circle class="cls-13" cx="225.95" cy="430.06" r="29.22"/><path class="cls-16" d="M236.88,500.71l-2.12-15.82a9.75,9.75,0,0,0-5.06-8.57l-20.36-14.88c-1-.76-2.38-1.56-3.54-1a3.41,3.41,0,0,0-1.41,2.08c-3.22,9.5-1.23,19.86-.11,29.83.95,8.31,1.27,16.68,1.59,25a182.74,182.74,0,0,1-.06,22.69c-1.1,13.08-5,26.24-2.39,39.11,1.72,8.51,4.75,16.42,5.46,25.08.49,6,.34,12.1,2.24,17.78,7-3,14.92-2.67,22.53-2.27l18.47,1a33,33,0,0,0,7.69-.18,25.77,25.77,0,0,0,8.07-3.16,55.25,55.25,0,0,0,16.85-14.7c-3.12-15.07-.09-30.63-2.17-45.88-1.19-8.79-4.17-17.26-5.57-26-1.72-10.79-1.05-22-4.14-32.48A93.8,93.8,0,0,0,266.21,483,28.36,28.36,0,0,0,253.5,470a7.2,7.2,0,0,0-3.34-.85c-2.94.17-4.76,3.29-5.58,6.13-1,3.4-1.28,7-2.06,10.41C241.4,490.69,239.78,496.5,236.88,500.71Z"/><path class="cls-6" d="M177,689.21c3.89,4.12,11,3.11,15.52-.28,9.84-7.37,10.75-21.48,11.29-33.76.2-4.4.5-9,2.57-12.86,3.16-5.95,9.71-9.09,15.15-13.08,12.9-9.44,20.47-25,22.74-40.78s-.34-32-4.7-47.37c-7.54-26.57-20.24-51.34-33.13-75.76a5.69,5.69,0,0,0-1.79-2.3c-2.62-1.62-5.46,1.59-7.26,4.1-6.07,8.5-16.07,13.06-25.23,18.09s-18.52,11.73-21.29,21.8c-1.86,6.75-.41,13.93,1,20.78s6.43,12.29,10.12,18.1a173,173,0,0,1,11.67,19.89,38.14,38.14,0,0,1,3,8.06,48.61,48.61,0,0,1,.79,10c.21,20.72.42,41.51-2.08,62.08-1.42,11.64-3.7,23.32-2.66,35C173,684.06,174.77,686.89,177,689.21Z"/><path class="cls-13" d="M201.69,650.59c4.16,1.86,8.37,3.79,12.87,4.53s9.43.14,13-2.65S233,644.4,231,640.32a59.21,59.21,0,0,0,9.6-.46c1.83-.23,4.05-.93,4.33-2.75.32-2.12-2.24-3.4-4.31-4L229.43,630A29.89,29.89,0,0,0,213,628.8l-17,2.6a2.31,2.31,0,0,0-2.28,2.08c-.82,2.59-4.61,9.83-3.31,12.41C191.59,648.1,199.36,649.42,201.69,650.59Z"/><path class="cls-6" d="M308.29,661.55a17.27,17.27,0,0,1-10.85,9.51,6,6,0,0,1-3.24.21c-2-.56-3.1-2.65-3.93-4.55-19.8-45.08-18.69-96.39-31.29-144-3.74-14.13-8.74-28.33-7.83-42.92.16-2.61.71-5.55,2.89-7,1.94-1.3,4.58-.95,6.7,0s4,2.5,6,3.56c3.31,1.69,7.16,2.17,10.34,4.08,4.72,2.83,7.14,8.24,9.25,13.32,4.51,10.84,9,22,9.35,33.76.77,22.84-9.36,44.79-4.09,67,1.05,4.4,2.6,8.67,4.08,12.94a391.57,391.57,0,0,1,13,46.81C309.22,657,309.34,659.06,308.29,661.55Z"/><path class="cls-15" d="M207,432.63c1.75-2.83,4.18-5.32,5.12-8.51.67-2.27.53-4.73,1.34-7,2-5.48,8.94-7.5,14.69-6.56s10.92,4,16.54,5.53c3.11.86,7.43.6,8.31-2.51.58-2.06-.81-4.1-2.13-5.79l-16.58-21.16c-2.18.56-4.62,1.08-6.6,0-1.14-.63-2-1.74-3.27-2.1-3.45-1-6.34,4.31-9.8,3.39-1-.26-1.79-1-2.79-1.08-2.79-.23-3.84,4.39-6.63,4.62-1.16.1-2.28-.64-3.43-.53a4.37,4.37,0,0,0-2.59,1.61c-5.55,5.89-7.8,14.34-7.5,22.42s-1.09,15.92,2,23.38c1.36,3.26,4.12,7.1,7.47,6,0-4.4,4.1-8.79,4.15-13.19"/><g class="cls-17"><path d="M263.46,728.41a127,127,0,0,0-21.57-26.71c-4.86,16.16-4,33.39-3.81,50.26a641.92,641.92,0,0,1-3.39,74.66c-.79,7.55-1.68,15.34.57,22.59,1.49,4.79,4.36,9.47,3.68,14.45-.34,2.48-1.56,5-.93,7.38s2.6,3.8,3.53,5.92c2.4,5.51-3.22,12.56.09,17.58a18,18,0,0,1,2,2.84c1,2.32-.86,5-3.16,6s-4.91.83-7.41.86a44.25,44.25,0,0,0-26.14,9.11,116.91,116.91,0,0,0,3.41,18.1,44.2,44.2,0,0,1,31.73-14.21c2.5,0,5.11.15,7.41-.86s4.12-3.69,3.16-6a18,18,0,0,0-2-2.84c-3.31-5,2.31-12.07-.09-17.58-.93-2.12-2.94-3.69-3.53-5.92-.63-2.42.59-4.9.93-7.38.68-5-2.19-9.66-3.68-14.45-2.25-7.25-1.36-15-.57-22.59A641.92,641.92,0,0,0,247.08,765c-.21-16.87-1.05-34.1,3.81-50.26A124.5,124.5,0,0,1,263.46,728.41Z"/></g><g class="cls-17"><path d="M191.71,415.89v-4.14a28.47,28.47,0,0,0,0,3.2C191.7,415.29,191.7,415.6,191.71,415.89Z"/><path d="M244.69,412.14c-5.62-1.54-10.8-4.58-16.54-5.53s-12.71,1.08-14.69,6.56c-.81,2.22-.67,4.68-1.34,7-.94,3.19-3.37,5.68-5.12,8.51l-1.65-1.46c0,4.4-4.1,8.79-4.15,13.19-3.35,1.09-6.11-2.75-7.47-6a30.31,30.31,0,0,1-2.08-11.26c-.09,5.23,0,10.32,2.08,15.26,1.36,3.26,4.12,7.1,7.47,6,0-4.4,4.1-8.79,4.15-13.19l1.65,1.46c1.75-2.83,4.18-5.32,5.12-8.51.67-2.27.53-4.73,1.34-7,2-5.48,8.94-7.5,14.69-6.56s10.92,4,16.54,5.53c3.11.86,7.43.6,8.31-2.51a4.48,4.48,0,0,0-.39-3.11C251.22,412.77,247.47,412.89,244.69,412.14Z"/></g><path class="cls-6" d="M150.18,536.8a148.67,148.67,0,0,1-3.68,18.09l-7,28.53c-.75,3-1.5,6.16-1.17,9.27.46,4.19,2.84,7.9,5.25,11.36a226.47,226.47,0,0,0,49.58,51.44c-1.11-5.7,2.84-11,6.55-15.48s7.33-8.77,12.18-11.67q-18.22-17.12-35.26-35.45a18.07,18.07,0,0,1-3.06-4c-2.74-5.29,0-11.61,2.38-17.07,7.53-17.39,11.09-37.13,6.26-55.45-1.82-6.89-5-13.77-10.79-18-2.53-1.85-6-3.1-8.76-1.71a9.69,9.69,0,0,0-3,2.7C150.67,510.35,151.74,523.5,150.18,536.8Z"/><ellipse class="cls-6" cx="155.56" cy="926.82" rx="3.4" ry="4.46"/><ellipse class="cls-6" cx="155.56" cy="921.38" rx="3.4" ry="4.46"/><ellipse class="cls-6" cx="155.56" cy="915.93" rx="3.4" ry="4.46"/><ellipse class="cls-6" cx="155.56" cy="910.48" rx="3.4" ry="4.46"/><ellipse class="cls-6" cx="155.56" cy="905.04" rx="3.4" ry="4.46"/><ellipse class="cls-6" cx="155.56" cy="899.59" rx="3.4" ry="4.46"/><path class="cls-18" d="M168.29,862.32a15,15,0,0,0,1.27-1.87L160.62,859l9.67.07a16.34,16.34,0,0,0,.31-12.92l-13,6.73,12-8.79a16.31,16.31,0,0,0-28.28,16.26,15.82,15.82,0,0,0,1.35,2,16.3,16.3,0,0,0-1.86,3l11.61,6L140,867.17a16.32,16.32,0,0,0,2.63,15.31,16.31,16.31,0,1,0,25.63,0,16.28,16.28,0,0,0,0-20.16Z"/><path class="cls-14" d="M139.18,872.4a16.17,16.17,0,0,0,3.49,10.08,16.31,16.31,0,1,0,25.63,0C170.49,879.71,139.18,870.57,139.18,872.4Z"/><polygon class="cls-19" points="833.45 869.52 818.79 869.52 811.81 812.98 833.45 812.98 833.45 869.52"/><path class="cls-15" d="M837.19,883.73H789.92v-.6a18.4,18.4,0,0,1,18.4-18.4h28.87Z"/><polygon class="cls-19" points="893.24 869.52 878.58 869.52 871.6 812.98 893.24 812.98 893.24 869.52"/><path class="cls-15" d="M897,883.73H849.71v-.6a18.39,18.39,0,0,1,18.39-18.4H897Z"/><path class="cls-15" d="M888.84,845l-13.58-4.13a5.36,5.36,0,0,1-3.78-4.58l-12.66-120a.57.57,0,0,0-.57-.53.55.55,0,0,0-.61.48l-21.2,116.23a5.39,5.39,0,0,1-6.26,4.33l-.12,0-17.36-3.57a5.4,5.4,0,0,1-4.28-5.63l12.9-190.5,87.45-9.44-13,212.52a5.38,5.38,0,0,1-5.36,5A5.59,5.59,0,0,1,888.84,845Z"/><circle class="cls-19" cx="888.76" cy="441.85" r="29.37"/><path class="cls-20" d="M821.18,638.23l19-119.4a45.24,45.24,0,0,1,57.4-36.35h0a45.14,45.14,0,0,1,31.81,51.73L909.52,640.84Z"/><path class="cls-19" d="M896.87,659.59a12,12,0,0,0,3.4-16.66,11.73,11.73,0,0,0-1.32-1.66l19.61-38-22.08,2.35-15.23,35.69a12.09,12.09,0,0,0,15.62,18.24Z"/><path class="cls-21" d="M901.06,634.57a5.41,5.41,0,0,1-2.9-1.37l-7.5-6.93a5.4,5.4,0,0,1-1.3-6l15-35.53-2.13-70.22a17.34,17.34,0,0,1,34.36,4.65v0l3.64,44.14a55.5,55.5,0,0,1-10.69,37.54l-23.38,31.61a5.39,5.39,0,0,1-5.08,2.12Z"/><path class="cls-19" d="M719.63,425.85a12,12,0,0,0,14,9.63,12.23,12.23,0,0,0,2.05-.57L763,467.77l6.44-21.25-26.93-27.95a12.09,12.09,0,0,0-22.88,7.28Z"/><path class="cls-22" d="M741,439.46a5.39,5.39,0,0,1,2.4-2.13l9.31-4.21a5.41,5.41,0,0,1,6.07,1.16l26.88,27.66,65.49,25.42a17.33,17.33,0,0,1-17.67,29.82l0,0L791.41,503.3A55.4,55.4,0,0,1,761,478.82L741,445a5.37,5.37,0,0,1,0-5.51Z"/><polygon class="cls-14" points="912.58 543.68 911.38 581.95 889.36 620.22 907.75 577.57 912.58 543.68"/><path class="cls-15" d="M885.39,447.37a7.68,7.68,0,0,1-8.4-5.63,11.66,11.66,0,0,0-8.32-8.69c-5.38-1.24-12,1.3-15.92-2.78a8,8,0,0,1-1.88-7c.73-4,3.57-7,6.65-9.36a40.72,40.72,0,0,1,22.56-8.43,81.64,81.64,0,0,1,12.7.63,56.23,56.23,0,0,1,13,2.38,30.59,30.59,0,0,1,19.14,22.33,35.32,35.32,0,0,1-7.25,28.86,37.89,37.89,0,0,1-14.54,11.07,5.65,5.65,0,0,1-4.31.22c-3.54-1.41-3-5.79-1.35-8.71,1.73-3.13,4.39-6.15,3-10a7.54,7.54,0,0,0-3.74-4c-3.52-1.8-7.45-1.37-11.23-.94Z"/></svg>