<svg id="Layer_1" data-name="Layer 1" xmlns="http://www.w3.org/2000/svg" xmlns:xlink="http://www.w3.org/1999/xlink" viewBox="0 0 931.16 731.24"><defs><style>.cls-1{fill:#ffb9b9;}.cls-2{fill:#2f2e41;}.cls-3{fill:#3f3d56;}.cls-4{opacity:0.1;}.cls-12,.cls-4{isolation:isolate;}.cls-5{fill:red;}.cls-6{fill:#e6e6e6;}.cls-7{fill:#fff;}.cls-8{fill:url(#linear-gradient);}.cls-9{fill:url(#linear-gradient-2);}.cls-10{fill:url(#linear-gradient-3);}.cls-11{fill:url(#linear-gradient-4);}.cls-12{opacity:0.15;}.cls-13{fill:#ff7f00;}.cls-14{fill:url(#linear-gradient-5);}</style><linearGradient id="linear-gradient" x1="290.81" y1="430.97" x2="412.89" y2="430.97" gradientUnits="userSpaceOnUse"><stop offset="0" stop-color="#f06d06"/><stop offset="1" stop-color="red"/></linearGradient><linearGradient id="linear-gradient-2" x1="182.43" y1="386.32" x2="287.09" y2="386.32" xlink:href="#linear-gradient"/><linearGradient id="linear-gradient-3" x1="219.55" y1="134.81" x2="278.3" y2="134.81" xlink:href="#linear-gradient"/><linearGradient id="linear-gradient-4" x1="165.58" y1="370.91" x2="226.9" y2="370.91" xlink:href="#linear-gradient"/><linearGradient id="linear-gradient-5" x1="599.74" y1="-598.23" x2="648.12" y2="-598.23" gradientTransform="translate(30.74 682.02)" xlink:href="#linear-gradient"/></defs><polygon class="cls-1" points="304.88 402.35 314.67 432.43 327.96 421.24 320.97 397.46 304.88 402.35"/><path class="cls-2" d="M221,440.87l3.5,46.87,84.64,2.1,37.07,84.63,20.29-8.39s-23.09-79.74-33.58-104.92-50.36-7-50.36-7l-3.5-7Z" transform="translate(-41.98 -166.52)"/><path class="cls-2" d="M352.46,593.36s1.39,22.38,3.49,23.78,18.19-1.4,18.19-1.4,4.83,1.08,24.48-4.19c22.09-5.93-2.8-14.69-2.8-14.69s-16.08-10.49-23.08-15.39-11.89,5.6-11.89,5.6C362.25,591.26,352.46,593.36,352.46,593.36Z" transform="translate(-41.98 -166.52)"/><path class="cls-3" d="M705.27,480.6H452.9v-5.2H338.47v5.2H85.06A17.07,17.07,0,0,0,68,497.67V843.25a17.07,17.07,0,0,0,17.07,17.07H705.27a17.07,17.07,0,0,0,17.07-17.07h0V497.67a17.07,17.07,0,0,0-17.07-17.07Z" transform="translate(-41.98 -166.52)"/><rect class="cls-4" x="48.89" y="344.25" width="608.58" height="343.3"/><circle class="cls-5" cx="352.67" cy="328.64" r="6.24"/><rect class="cls-6" x="49.92" y="344.08" width="604.74" height="343.18"/><rect class="cls-7" x="67.21" y="367.53" width="570.15" height="298.1"/><rect class="cls-6" x="119.02" y="398.46" width="146.5" height="236.24"/><rect class="cls-8" x="290.81" y="398.46" width="122.09" height="65.03"/><rect class="cls-6" x="290.81" y="481.59" width="122.09" height="69.97"/><rect class="cls-6" x="290.81" y="569.67" width="122.09" height="65.03"/><rect class="cls-6" x="439.05" y="398.46" width="146.5" height="102.95"/><rect class="cls-5" x="439.05" y="531.74" width="146.5" height="102.95"/><path class="cls-3" d="M739.43,847.83H680v-4.28a.85.85,0,0,0-.85-.84H658.82a.85.85,0,0,0-.84.84h0v4.28H645.25v-4.28a.85.85,0,0,0-.85-.84H624a.85.85,0,0,0-.85.84h0v4.28H610.46v-4.28a.85.85,0,0,0-.85-.84H589.25a.85.85,0,0,0-.85.84h0v4.28H575.67v-4.28a.85.85,0,0,0-.85-.84H554.46a.85.85,0,0,0-.85.84h0v4.28H540.89v-4.28a.85.85,0,0,0-.85-.84H519.67a.85.85,0,0,0-.84.84h0v4.28H506.1v-4.28a.85.85,0,0,0-.85-.84H484.89a.85.85,0,0,0-.85.84h0v4.28H471.31v-4.28a.85.85,0,0,0-.85-.84H311a.85.85,0,0,0-.85.84h0v4.28H297.37v-4.28a.85.85,0,0,0-.85-.84H276.16a.85.85,0,0,0-.85.84v4.28H262.58v-4.28a.85.85,0,0,0-.84-.84H241.37a.85.85,0,0,0-.85.84h0v4.28H227.8v-4.28a.85.85,0,0,0-.85-.84H206.58a.85.85,0,0,0-.84.84h0v4.28H193v-4.28a.85.85,0,0,0-.85-.84H171.8a.85.85,0,0,0-.85.84h0v4.28H158.22v-4.28a.85.85,0,0,0-.85-.84H137a.85.85,0,0,0-.85.84h0v4.28H123.43v-4.28a.85.85,0,0,0-.85-.84H102.22a.85.85,0,0,0-.85.84h0v4.28h-39A20.37,20.37,0,0,0,42,868.2h0v9.2a20.37,20.37,0,0,0,20.36,20.37H739.43a20.36,20.36,0,0,0,20.36-20.37v-9.2A20.36,20.36,0,0,0,739.43,847.83Z" transform="translate(-41.98 -166.52)"/><path class="cls-2" d="M194.15,252.93a33.09,33.09,0,0,0-6.47,17c-.76,7.5-3,19.5-9.35,25.81-9.74,9.61-13,16.82-13,16.82l3.24,3.6c0-7.21,4.33-8.41,4.33-8.41l-1.08,8.41c29.22,27.63,94.14,2.4,94.14,2.4L263.82,297c5.41,2.4,7.57,19.22,7.57,19.22l8.66-2.4s-15.15-26.43-24.89-50.45-24.89-18-24.89-18C212.42,235.76,200.62,244.61,194.15,252.93Z" transform="translate(-41.98 -166.52)"/><path class="cls-1" d="M295.8,265.31l10.49-68.55S295.1,169.48,314,166.68s6.3,32.88,6.3,32.88L314,265.31Z" transform="translate(-41.98 -166.52)"/><path class="cls-1" d="M287.4,587.76c3.5,5.6,4.2,34.28,4.2,34.28l24.48-15.39-7-25.18Z" transform="translate(-41.98 -166.52)"/><path class="cls-2" d="M253.13,437.38s-30.78,0-47.56,9.79c-5.4,3.15-7,8.82-6.61,15.08.94,16.34,14.29,29.25,30.63,30.26l47.32,2.92c-7,19.59,9.1,95.83,9.1,95.83l25.18-3.5s-3.5-25.88-2.8-27.27,7-56,2.8-84.64-61.56-16.79-61.56-16.79Z" transform="translate(-41.98 -166.52)"/><path class="cls-2" d="M290.2,615.74s-2.1,20.29-1.4,23.09,29.38,4.19,55.26-3.5-3.5-16.09-3.5-16.09-17.48-11.89-22.38-16.09-11.89,5.6-11.89,5.6C304.89,615,290.2,615.74,290.2,615.74Z" transform="translate(-41.98 -166.52)"/><circle class="cls-1" cx="222.35" cy="289.09" r="25.18" transform="translate(-140.6 295.74) rotate(-80.78)"/><path class="cls-1" d="M211.86,308c9.09,13.29-2.1,21-2.1,21l-4.89,36.37s52.46,4.9,61.55-2.1-10.49-30.07-17.49-32.17-8.39-30.78-8.39-30.78Z" transform="translate(-41.98 -166.52)"/><path class="cls-9" d="M213.23,325.23l-27.6-4.32-3.15,29.73s1.4,66.45,0,78.34,23.79,25.18,23.79,25.18,36.37-2.79,43.36-6.29,29.38,3.5,29.38,3.5a19,19,0,0,0,7.35-1.05c4.19-1.4-10.85-101.08-10.85-101.08l-13.29-30.77-16.08,6.29-4.9,23.08Z" transform="translate(-41.98 -166.52)"/><polygon class="cls-10" points="230.74 182.02 258.72 146.35 278.3 98.08 251.02 87.59 239.83 127.46 220.25 151.24 219.54 155.44 230.74 182.02"/><path class="cls-1" d="M184.55,402.85l69.3,2.61s25.83-14.23,30.76,4.21-31.94,10-31.94,10l-66,1.24Z" transform="translate(-41.98 -166.52)"/><path class="cls-11" d="M190.53,397.86,222.7,400l4.2,21.68s-39.17-.7-54.56-1.4,0-65.75,2.1-85.34,12.59-14,12.59-14l6.3,4.89Z" transform="translate(-41.98 -166.52)"/><polygon class="cls-12" points="154.15 224.34 182.12 235.53 151.35 229.23 149.25 189.36 154.15 224.34"/><polygon class="cls-2" points="206.97 114.18 160.77 115.28 155.27 92.18 206.97 92.18 206.97 114.18"/><g id="undraw_Business_decisions_re_84ag" data-name="undraw Business decisions re 84ag"><circle id="Ellipse_3" data-name="Ellipse 3" class="cls-6" cx="410.16" cy="43.37" r="7.85"/><circle id="Ellipse_4" data-name="Ellipse 4" class="cls-6" cx="449.9" cy="43.37" r="7.85"/><circle id="Ellipse_5" data-name="Ellipse 5" class="cls-6" cx="489.63" cy="43.37" r="7.85"/><circle id="Ellipse_6" data-name="Ellipse 6" class="cls-6" cx="529.36" cy="43.37" r="7.85"/><circle id="Ellipse_7" data-name="Ellipse 7" class="cls-6" cx="569.09" cy="43.37" r="7.85"/><circle id="Ellipse_8" data-name="Ellipse 8" class="cls-6" cx="410.16" cy="83.6" r="7.85"/><circle id="Ellipse_9" data-name="Ellipse 9" class="cls-6" cx="449.9" cy="83.6" r="7.85"/><circle id="Ellipse_10" data-name="Ellipse 10" class="cls-6" cx="489.63" cy="83.6" r="7.85"/><circle id="Ellipse_11" data-name="Ellipse 11" class="cls-13" cx="529.36" cy="83.6" r="7.85"/><circle id="Ellipse_12" data-name="Ellipse 12" class="cls-6" cx="569.09" cy="83.6" r="7.85"/><circle id="Ellipse_13" data-name="Ellipse 13" class="cls-6" cx="648.56" cy="83.6" r="7.85"/><circle id="Ellipse_14" data-name="Ellipse 14" class="cls-6" cx="410.16" cy="123.83" r="7.85"/><circle id="Ellipse_15" data-name="Ellipse 15" class="cls-6" cx="449.9" cy="123.83" r="7.85"/><circle id="Ellipse_16" data-name="Ellipse 16" class="cls-6" cx="489.63" cy="123.83" r="7.85"/><circle id="Ellipse_17" data-name="Ellipse 17" class="cls-6" cx="529.36" cy="123.83" r="7.85"/><circle id="Ellipse_18" data-name="Ellipse 18" class="cls-6" cx="569.09" cy="123.83" r="7.85"/><circle id="Ellipse_19" data-name="Ellipse 19" class="cls-6" cx="410.16" cy="164.06" r="7.85"/><circle id="Ellipse_20" data-name="Ellipse 20" class="cls-6" cx="449.9" cy="164.06" r="7.85"/><circle id="Ellipse_21" data-name="Ellipse 21" class="cls-6" cx="489.63" cy="164.06" r="7.85"/><circle id="Ellipse_22" data-name="Ellipse 22" class="cls-6" cx="529.36" cy="164.06" r="7.85"/><circle id="Ellipse_23" data-name="Ellipse 23" class="cls-6" cx="569.09" cy="164.06" r="7.85"/><circle id="Ellipse_24" data-name="Ellipse 24" class="cls-6" cx="608.83" cy="164.06" r="7.85"/><circle id="Ellipse_25" data-name="Ellipse 25" class="cls-6" cx="648.56" cy="164.06" r="7.85"/><circle id="Ellipse_26" data-name="Ellipse 26" class="cls-6" cx="688.29" cy="164.06" r="7.85"/><circle id="Ellipse_27" data-name="Ellipse 27" class="cls-6" cx="769.99" cy="330.62" r="7.85" transform="translate(278.29 871.16) rotate(-80.78)"/><circle id="Ellipse_28" data-name="Ellipse 28" class="cls-6" cx="767.75" cy="164.06" r="7.85"/><path id="Path_16" data-name="Path 16" class="cls-6" d="M967.38,294.64h-311a5.76,5.76,0,0,1-5.76-5.76V211.72a5.77,5.77,0,0,1,5.76-5.76h311a5.78,5.78,0,0,1,5.76,5.76v77.16a5.76,5.76,0,0,1-5.76,5.76Zm-311-86.37a3.47,3.47,0,0,0-3.45,3.46v77.16a3.45,3.45,0,0,0,3.45,3.45h311a3.45,3.45,0,0,0,3.46-3.44h0V211.72a3.47,3.47,0,0,0-3.46-3.45h-311Z" transform="translate(-41.98 -166.52)"/><circle id="Ellipse_62" data-name="Ellipse 62" class="cls-14" cx="654.67" cy="83.79" r="24.19"/><path id="Path_17" data-name="Path 17" class="cls-6" d="M752.54,234.17a4,4,0,1,0,0,8.06H859.67a4,4,0,1,0,0-8.06Z" transform="translate(-41.98 -166.52)"/><path id="Path_18" data-name="Path 18" class="cls-6" d="M752.54,258.33a4,4,0,1,0,0,8.07H942.61a4,4,0,0,0,0-8Z" transform="translate(-41.98 -166.52)"/></g></svg>