<svg id="Layer_1" data-name="Layer 1" xmlns="http://www.w3.org/2000/svg" viewBox="0 0 980.34 645.4"><defs><style>.cls-1{fill:#e6e6e6;}.cls-2{fill:#fff;}.cls-3{fill:#ffb8b8;}.cls-4{fill:#ff9d00;}.cls-5{fill:#2f2e41;}.cls-6{fill:#3f3d56;}.cls-7{fill:#ccc;}</style></defs><g id="undraw_Profile_data_re_v81r" data-name="undraw Profile data re v81r"><path id="Path_157" data-name="Path 157" class="cls-1" d="M658.46,480.19q-1.69,8.91-4.06,17.64c-.17.67-.36,1.34-.56,2h-22a7.06,7.06,0,0,0-7,7.07v62.65c-.67,1.24-1.35,2.47-2,3.7-3.49,6.36-7.12,12.64-10.83,18.84A716.41,716.41,0,0,1,366.17,837.75l6-13.48-6.57-.45c-47.66-3.26-95.48-6.87-142-17.58C174.88,795,127.25,775.6,89.1,743.37S23,665.11,19.07,615.3a146.35,146.35,0,0,1,5.11-50.83c9-31.8,28.5-60.4,56.7-77.33,44.29-26.57,102.08-21.16,148.77.95s84.7,58.68,121.8,94.63A470.26,470.26,0,0,0,199.24,423.84c-20.73-13.27-42.74-25.09-60.37-42.29s-30.62-41.28-27.5-65.7c3.53-27.7,26.22-48.71,48.94-64.93,9.08-6.48,18.45-12.62,28.11-18.27,27.26-16,56.76-28,87.9-32.5,42.19-6.06,87.76,3.14,120.11,30.9,36.43,31.27,51.38,81.71,50,130,22.45-32.63,57.08-57.62,96.18-58.68,40.6-1.09,79.19,24.57,99.52,59.72S666.05,440.3,658.46,480.19Z" transform="translate(-18.65 -198.37)"/><path id="Path_158" data-name="Path 158" class="cls-2" d="M401.61,615.74c23.78-2.1,45.74-4.54,68.78-11.06,22.33-6.32,43.82-16.9,59.72-34.18,17.1-18.58,26.33-42.72,32.85-66.73,3.63-13.39,6.62-27,9.43-40.55q4.58-22.11,8.14-44.42,7.08-44.39,10.12-89.31c.24-3.64.47-7.27.67-10.91.13-2.24-3.36-2.23-3.49,0q-2.49,44.28-9,88.22c-4.26,28.77-9.7,57.42-16.61,85.68-5.86,23.94-13.44,48.26-28.45,68.19-14.08,18.68-34.42,30.9-56.38,38.2-22.34,7.43-45.9,10.4-69.24,12.6-2.87.27-3.72.53-6.58.78C399.39,612.44,399.37,615.93,401.61,615.74Z" transform="translate(-18.65 -198.37)"/><path id="Path_159" data-name="Path 159" class="cls-2" d="M26.19,567a378.61,378.61,0,0,1,88.45,15.59A382.79,382.79,0,0,1,197,618.48a373,373,0,0,1,69.37,52.23,382.47,382.47,0,0,1,54.19,64.62,378,378,0,0,1,38.77,75.17q1.84,4.85,3.55,9.75c.74,2.11,4.11,1.2,3.37-.93a381.79,381.79,0,0,0-37-77,386.63,386.63,0,0,0-53.15-67,377.35,377.35,0,0,0-67.86-54.16,385.34,385.34,0,0,0-171-56.86c-3.66-.3-7.33-.56-11-.75-2.24-.13-2.23,3.36,0,3.49Z" transform="translate(-18.65 -198.37)"/><path id="Path_160" data-name="Path 160" class="cls-2" d="M189.36,236.75a205.39,205.39,0,0,1,54,26.37A253.19,253.19,0,0,1,289.38,304a339.06,339.06,0,0,1,38.15,52.58,448.43,448.43,0,0,1,30.33,61.66,557.89,557.89,0,0,1,22.08,67.07,630,630,0,0,1,20.2,140.54,556.69,556.69,0,0,1-2,67.6A430.85,430.85,0,0,1,388,755.72a294.71,294.71,0,0,1-18.31,53.83q-2.73,5.88-5.77,11.62c-1.06,2,1.95,3.74,3,1.76a269.06,269.06,0,0,0,20.61-51.87,401.66,401.66,0,0,0,12.29-61,530.24,530.24,0,0,0,4.06-67.47,619.75,619.75,0,0,0-4.22-70.89,639.26,639.26,0,0,0-12.3-70.84,577.63,577.63,0,0,0-20.55-69,480.9,480.9,0,0,0-28.59-63.5A369.3,369.3,0,0,0,301.58,313a273.19,273.19,0,0,0-44.78-44.37,216.55,216.55,0,0,0-52.51-30.29q-6.91-2.75-14-5C188.14,232.71,187.22,236.08,189.36,236.75Z" transform="translate(-18.65 -198.37)"/><ellipse id="Ellipse_79" data-name="Ellipse 79" class="cls-1" cx="377.7" cy="635.32" rx="249.63" ry="10.09"/><path id="Path_161" data-name="Path 161" class="cls-3" d="M616.9,517.79a11.51,11.51,0,0,0-.24,1.65l-43.32,25-10.53-6.06-11.23,14.7,22.53,16.06,49.43-39a10.59,10.59,0,1,0-6.24-13.61,10.06,10.06,0,0,0-.38,1.26Z" transform="translate(-18.65 -198.37)"/><path id="Path_162" data-name="Path 162" class="cls-4" d="M518.23,533.12l34.12,24.32,15.25-19.13L534.44,511.7a13.43,13.43,0,0,0-18.89,2.07c-.16.2-.32.4-.46.61h0A13.43,13.43,0,0,0,518.23,533.12Z" transform="translate(-18.65 -198.37)"/><path id="Path_163" data-name="Path 163" class="cls-3" d="M447.81,810.56l12,3.13,17.78-44.64-17.65-4.63Z" transform="translate(-18.65 -198.37)"/><path id="Path_164" data-name="Path 164" class="cls-5" d="M479.93,830.84,442.35,821l3.8-14.52,23.06,6a15,15,0,0,1,10.72,18.32Z" transform="translate(-18.65 -198.37)"/><path id="Path_165" data-name="Path 165" class="cls-3" d="M554.14,819.07l12.17-2.17-2.59-48-18,3.2Z" transform="translate(-18.65 -198.37)"/><path id="Path_166" data-name="Path 166" class="cls-5" d="M591.8,824l-38.26,6.83-2.64-14.78,23.48-4.19A15,15,0,0,1,591.8,824Z" transform="translate(-18.65 -198.37)"/><path id="Path_167" data-name="Path 167" class="cls-5" d="M530.17,466.17c3,.73,5.44,3.79,6.9,7.33A50.64,50.64,0,0,1,539.8,485c1.15,7.32,2.26,15.25-.12,22-2.79,8-10.23,12.11-16.68,10.15s-11.59-9.29-13.34-17.74a42.92,42.92,0,0,1,2.95-25.3,20.59,20.59,0,0,1,7.71-9.91,7.63,7.63,0,0,1,10.16,2.12" transform="translate(-18.65 -198.37)"/><path id="Path_168" data-name="Path 168" class="cls-5" d="M547.14,598.69l23.17,207.56-19.14,7.26-35.3-139.18L466.73,801.6l-21,1.16s28.74-198,50-202.52Z" transform="translate(-18.65 -198.37)"/><circle id="Ellipse_80" data-name="Ellipse 80" class="cls-3" cx="509.02" cy="269.52" r="24.77"/><path id="Path_169" data-name="Path 169" class="cls-4" d="M538.31,503.05l-26.77-3.49s-17.46,20.95-16.3,57-2.91,47.14-2.91,47.14l55.82,1C540.08,593.65,573.83,529.92,538.31,503.05Z" transform="translate(-18.65 -198.37)"/><path id="Path_170" data-name="Path 170" class="cls-3" d="M552.69,609.79a10.37,10.37,0,0,0-1.67.15l-34.25-36.46,3.5-11.64-16.88-7.56-10.46,25.6,49.27,39.19a10.59,10.59,0,1,0,11.81-9.2,11.51,11.51,0,0,0-1.31-.08Z" transform="translate(-18.65 -198.37)"/><path id="Path_171" data-name="Path 171" class="cls-4" d="M515.18,517.24,499.32,556l22.11,10.47,18.31-38.38a13.42,13.42,0,0,0-6.34-17.91c-.23-.11-.47-.22-.71-.31h0a13.43,13.43,0,0,0-17.52,7.35Z" transform="translate(-18.65 -198.37)"/><path id="Path_172" data-name="Path 172" class="cls-5" d="M521.19,490.41c3.88-2.24,4.3-7.64,3.77-12.09s-1.41-9.41,1.21-13.05c3.12-4.34,9.4-4.43,14.74-4.57s11.85-1.71,13.24-6.88a9.21,9.21,0,0,0-3.85-9.22,27.09,27.09,0,0,0-9.74-4c-7.65-2-15.54-4-23.37-2.93a29.79,29.79,0,0,0-25.38,33.26c1.27,9.94,3.11,14.28,1.9,18.66-2.24,8.16-11.93,13.4-12.12,21.86-.15,6.62,5.69,11.72,11.4,15.08a38.29,38.29,0,0,0,14.62,5.56A18.65,18.65,0,0,0,522.32,528c5-4.56,6.25-12.17,4.81-18.79S522,496.7,518.37,491" transform="translate(-18.65 -198.37)"/><path id="Path_173" data-name="Path 173" class="cls-6" d="M989.91,497.83h-358a9.09,9.09,0,0,0-9.08,9.08v230a9.08,9.08,0,0,0,9.08,9.07h358a9.08,9.08,0,0,0,9.08-9.07v-230A9.09,9.09,0,0,0,989.91,497.83Zm7.06,239a7.06,7.06,0,0,1-7.06,7h-358a7.06,7.06,0,0,1-7.06-7v-230a7.07,7.07,0,0,1,7.06-7.06h358a7.07,7.07,0,0,1,7.06,7.06Z" transform="translate(-18.65 -198.37)"/><path id="Path_174" data-name="Path 174" class="cls-4" d="M708.29,612.3H651.81a8.58,8.58,0,0,1-8.58-8.57V547.25a8.59,8.59,0,0,1,8.58-8.58h56.48a8.58,8.58,0,0,1,8.57,8.58v56.48A8.57,8.57,0,0,1,708.29,612.3Z" transform="translate(-18.65 -198.37)"/><path id="Path_175" data-name="Path 175" class="cls-7" d="M971.27,672.32H650.53a6.56,6.56,0,1,1,0-13.11H971.27a6.56,6.56,0,0,1,0,13.11Z" transform="translate(-18.65 -198.37)"/><path id="Path_176" data-name="Path 176" class="cls-7" d="M971.48,640.55H650.76a6.56,6.56,0,1,1,0-13.11H971.48a6.56,6.56,0,1,1,0,13.11Z" transform="translate(-18.65 -198.37)"/><path id="Path_177" data-name="Path 177" class="cls-7" d="M813.13,597.17H765.74a6.56,6.56,0,1,1,0-13.11h47.4a6.56,6.56,0,1,1,0,13.11Z" transform="translate(-18.65 -198.37)"/><path id="Path_178" data-name="Path 178" class="cls-7" d="M971.48,564.9H765.74a6.56,6.56,0,1,1,0-13.11H971.49a6.56,6.56,0,1,1,0,13.11Z" transform="translate(-18.65 -198.37)"/><path id="Path_179" data-name="Path 179" class="cls-7" d="M805.06,704.6H650.53a6.56,6.56,0,1,1,0-13.12H805.06a6.56,6.56,0,1,1,0,13.12Z" transform="translate(-18.65 -198.37)"/></g></svg>