<svg id="a48982f8-6f90-42ca-afb3-d8e4a7a73152" xmlns="http://www.w3.org/2000/svg" xmlns:xlink="http://www.w3.org/1999/xlink" viewBox="0 0 535.88 513"><defs><style>.cls-1{fill:#f4f4f4;}.cls-2{fill:url(#linear-gradient);}.cls-3{fill:url(#linear-gradient-2);}.cls-4{fill:url(#linear-gradient-3);}.cls-5{fill:url(#linear-gradient-4);}.cls-6{fill:url(#linear-gradient-5);}.cls-7{fill:#fff;}</style><linearGradient id="linear-gradient" x1="203.51" y1="56.6" x2="316.71" y2="56.6" gradientUnits="userSpaceOnUse"><stop offset="0" stop-color="#f06d06"/><stop offset="1" stop-color="#ff2c2c"/></linearGradient><linearGradient id="linear-gradient-2" x1="422.68" y1="210.74" x2="535.88" y2="210.74" xlink:href="#linear-gradient"/><linearGradient id="linear-gradient-3" x1="354.04" y1="446.77" x2="467.24" y2="446.77" xlink:href="#linear-gradient"/><linearGradient id="linear-gradient-4" x1="81.89" y1="456.4" x2="195.08" y2="456.4" xlink:href="#linear-gradient"/><linearGradient id="linear-gradient-5" x1="0" y1="210.74" x2="113.2" y2="210.74" xlink:href="#linear-gradient"/></defs><path class="cls-1" d="M366.58,530.82c-2.4,0-4.83,0-7.22-.11l.08-2.4c2.36.07,4.78.1,7.14.11s4.81,0,7.21-.12l.08,2.4C371.44,530.78,369,530.82,366.58,530.82Zm-21.7-1c-4.79-.46-9.63-1.07-14.39-1.83l.38-2.38c4.71.75,9.5,1.36,14.24,1.81Zm43.47,0-.23-2.4c4.74-.45,9.53-1.07,14.23-1.82l.39,2.38c-4.76.76-9.6,1.38-14.39,1.84Zm-72.1-4.55c-4.7-1.06-9.42-2.3-14-3.66l.68-2.31c4.57,1.35,9.25,2.57,13.89,3.62ZM417,525.17l-.54-2.35c4.66-1.06,9.33-2.28,13.89-3.64l.68,2.31c-4.6,1.37-9.32,2.61-14,3.68ZM288.43,517c-4.53-1.66-9.06-3.5-13.47-5.45l1-2.2c4.36,1.93,8.84,3.74,13.32,5.39Zm156.35-.09-.83-2.26c4.45-1.64,8.92-3.46,13.28-5.39l1,2.2C453.8,513.43,449.28,515.26,444.78,516.92Zm-182.9-11.66c-4.27-2.23-8.52-4.62-12.66-7.13l1.25-2.06c4.09,2.48,8.3,4.85,12.52,7.05Zm209.38-.09L470.14,503c4.21-2.2,8.41-4.58,12.49-7.05l1.25,2.05C479.76,500.55,475.51,503,471.26,505.17Zm-234.2-15c-3.95-2.76-7.86-5.68-11.63-8.69l1.5-1.88c3.73,3,7.6,5.87,11.51,8.59Zm259-.09-1.38-2c3.9-2.73,7.77-5.62,11.49-8.59l1.5,1.88C503.88,484.44,500,487.36,496,490.12Zm-281.66-18c-3.57-3.24-7.07-6.63-10.42-10.08l1.72-1.68c3.32,3.42,6.79,6.77,10.32,10ZM518.68,472l-1.62-1.78c3.53-3.2,7-6.56,10.32-10l1.72,1.68C525.75,465.4,522.24,468.8,518.68,472ZM194.18,451.3c-3.12-3.67-6.17-7.48-9.06-11.33l1.93-1.45c2.86,3.82,5.87,7.59,9,11.21Zm344.68-.1L537,449.63c3.09-3.62,6.11-7.4,9-11.22l1.93,1.44c-2.88,3.86-5.93,7.68-9.06,11.35Zm-362-23.12c-2.63-4-5.17-8.2-7.54-12.38l2.1-1.19c2.34,4.14,4.85,8.27,7.46,12.26ZM556.24,428l-2-1.31c2.61-4,5.12-8.13,7.46-12.28l2.1,1.18c-2.37,4.2-4.9,8.37-7.54,12.41ZM162.55,402.86c-2.1-4.33-4.08-8.79-5.89-13.24l2.23-.91c1.79,4.41,3.75,8.81,5.83,13.1Zm408-.19-2.17-1c2.07-4.3,4-8.72,5.82-13.14l2.23.9C574.58,393.86,572.6,398.33,570.51,402.67ZM151.64,376c-1.53-4.58-2.92-9.26-4.14-13.91l2.33-.61c1.21,4.6,2.58,9.23,4.09,13.76Zm429.77-.26-2.28-.75c1.49-4.52,2.87-9.15,4.07-13.77l2.33.61C584.31,366.51,582.93,371.19,581.41,375.75ZM144.27,348c-.92-4.73-1.7-9.55-2.32-14.32l2.39-.31c.61,4.73,1.38,9.49,2.29,14.17Zm444.48-.27-2.37-.45c.91-4.68,1.67-9.45,2.27-14.18l2.39.31c-.61,4.78-1.38,9.6-2.29,14.32ZM140.56,319.2c-.31-4.8-.47-9.68-.47-14.51h2.41c0,4.77.16,9.6.47,14.35Zm451.86-.27-2.4-.15c.3-4.75.45-9.58.45-14.35v-.53h2.41v.52c0,4.83-.16,9.71-.46,14.51ZM142.93,290.35l-2.4-.15c.3-4.81.75-9.67,1.36-14.45l2.39.3C143.68,280.78,143.23,285.59,142.93,290.35ZM590,289.56c-.31-4.77-.78-9.57-1.39-14.29L591,275c.62,4.77,1.09,9.63,1.41,14.44ZM146.53,261.88l-2.36-.45c.91-4.73,2-9.49,3.19-14.15l2.33.6C148.49,252.49,147.43,257.2,146.53,261.88Zm439.75-.78c-.92-4.67-2-9.38-3.21-14l2.33-.62c1.22,4.65,2.32,9.41,3.24,14.14Zm-432.52-27-2.29-.75c1.51-4.58,3.19-9.17,5-13.65l2.23.91C156.92,225.05,155.25,229.59,153.76,234.11Zm425.2-.75c-1.51-4.52-3.19-9.05-5-13.46l2.23-.91c1.82,4.46,3.52,9,5,13.61ZM164.51,207.47l-2.17-1.05c2.09-4.34,4.35-8.67,6.72-12.88l2.1,1.19C168.81,198.88,166.58,203.17,164.51,207.47Zm403.63-.66c-2.08-4.27-4.32-8.55-6.67-12.69l2.09-1.19c2.38,4.19,4.65,8.51,6.74,12.83ZM178.6,182.44l-2-1.31c2.63-4,5.42-8,8.3-11.91l1.93,1.44C184,174.48,181.2,178.44,178.6,182.44Zm375.4-.57c-2.61-4-5.38-7.93-8.24-11.74l1.92-1.45c2.89,3.86,5.7,7.85,8.33,11.87ZM195.76,159.42l-1.83-1.56c3.12-3.67,6.4-7.28,9.74-10.75l1.74,1.68C202.09,152.21,198.85,155.79,195.76,159.42Zm341-.49c-3.1-3.62-6.35-7.19-9.67-10.61l1.72-1.68c3.36,3.46,6.65,7.06,9.78,10.72ZM215.71,138.79,214.08,137c3.57-3.25,7.28-6.42,11-9.42l1.51,1.88C222.9,132.44,219.23,135.58,215.71,138.79Zm301.07-.44c-3.54-3.2-7.22-6.32-10.95-9.29l1.5-1.89c3.77,3,7.49,6.16,11.06,9.39ZM238.1,120.86l-1.38-2c3.94-2.76,8-5.43,12.14-7.94l1.25,2.06C246,115.49,242,118.13,238.1,120.86Zm256.21-.38c-3.92-2.73-8-5.36-12-7.83l1.24-2.06c4.12,2.49,8.22,5.15,12.18,7.91ZM262.59,105.94l-1.12-2.13c4.26-2.23,8.65-4.36,13-6.32l1,2.2C271.14,101.63,266.8,103.73,262.59,105.94Zm207.15-.33c-4.23-2.2-8.59-4.29-12.95-6.22l1-2.2c4.41,2,8.82,4.06,13.09,6.29Zm-181-11.32L287.93,92c4.52-1.67,9.15-3.21,13.77-4.59l.68,2.31C297.82,91.11,293.24,92.64,288.77,94.29ZM443.45,94c-4.47-1.64-9.06-3.15-13.63-4.5l.68-2.31c4.62,1.36,9.26,2.89,13.78,4.55ZM316.26,86.09l-.53-2.34c4.68-1.08,9.47-2,14.23-2.79l.39,2.38C325.64,84.11,320.9,85,316.26,86.09Zm99.67-.17c-4.65-1-9.39-2-14.1-2.7l.38-2.38c4.76.75,9.55,1.67,14.25,2.73ZM344.58,81.5l-.23-2.4c4.78-.46,9.65-.78,14.48-.94l.08,2.41c-4.78.16-9.59.47-14.33.93Zm43-.08c-4.74-.44-9.56-.73-14.32-.88l.07-2.4c4.81.14,9.69.44,14.47.89Z" transform="translate(-97.94 -27.46)"/><circle class="cls-2" cx="260.11" cy="56.6" r="56.6"/><circle class="cls-3" cx="479.28" cy="210.74" r="56.6"/><circle class="cls-4" cx="410.64" cy="446.77" r="56.6"/><circle class="cls-5" cx="138.49" cy="456.4" r="56.6"/><circle class="cls-6" cx="56.6" cy="210.74" r="56.6"/><path class="cls-7" d="M382.31,79.54H362.56a6.77,6.77,0,0,1-6.76-6.77V53a.57.57,0,0,0-.57-.56h-13a9,9,0,0,0-9,9v45.13a9,9,0,0,0,9,9h31.59a9,9,0,0,0,9-9h0V80.11a.57.57,0,0,0-.56-.57Zm-13,22.57H346.77a2.26,2.26,0,0,1,0-4.52h22.56a2.26,2.26,0,0,1,0,4.52Zm0-11.29H346.77a2.26,2.26,0,0,1,0-4.51h22.56a2.26,2.26,0,1,1,0,4.51Z" transform="translate(-97.94 -27.46)"/><path class="cls-7" d="M381.07,74.55,360.79,54.27a.28.28,0,0,0-.4,0,.3.3,0,0,0-.08.2v18.3A2.26,2.26,0,0,0,362.56,75h18.31a.28.28,0,0,0,.2-.48Z" transform="translate(-97.94 -27.46)"/><path class="cls-7" d="M516.77,463.08a3,3,0,1,0,3,3,3,3,0,0,0-.88-2.12A3,3,0,0,0,516.77,463.08Z" transform="translate(-97.94 -27.46)"/><path class="cls-7" d="M533.47,451.08h0a2.31,2.31,0,0,0-1.7-1.72c-3.35-.82-8.62.06-14.46,2.39a46.65,46.65,0,0,0-15.12,9.58,36.37,36.37,0,0,0-3.33,3.8,14.83,14.83,0,0,0-6.58,1.06c-6.49,2.85-8.34,10.16-8.83,13.16a2.81,2.81,0,0,0,2.3,3.24,2.69,2.69,0,0,0,.75,0h0l7.23-.79a2,2,0,0,0,0,.26,4,4,0,0,0,1.11,2.33l3.53,3.53a3.9,3.9,0,0,0,2.33,1.11l.24,0-.79,7.22h0a2.82,2.82,0,0,0,2.51,3.08h0l.26,0a2.49,2.49,0,0,0,.47,0c3-.49,10.32-2.32,13.17-8.84a15,15,0,0,0,1.06-6.56,34.32,34.32,0,0,0,3.81-3.32,46.15,46.15,0,0,0,9.59-15C533.39,459.87,534.26,454.56,533.47,451.08Zm-12,19.65a6.6,6.6,0,1,1,0-9.34h0a6.54,6.54,0,0,1,.07,9.26h0Z" transform="translate(-97.94 -27.46)"/><path class="cls-7" d="M498,488.88a1.86,1.86,0,0,0-1.24.3c-.72.5-1.44,1-2.17,1.45a1.68,1.68,0,0,1-2.36-2.24l1.37-2.36a1.8,1.8,0,0,0-.47-2.5,1.74,1.74,0,0,0-1.23-.3,6.87,6.87,0,0,0-4,2c-.41.41-1.66,1.66-2.33,6.43a38.12,38.12,0,0,0-.37,4.14A1.81,1.81,0,0,0,487,497.6h.09a40.85,40.85,0,0,0,4.13-.36c4.78-.67,6-1.93,6.44-2.34a6.8,6.8,0,0,0,1.95-4A1.81,1.81,0,0,0,498,488.88Z" transform="translate(-97.94 -27.46)"/><path class="cls-7" d="M217,514.61h-4.1a3.07,3.07,0,0,1-3.08-3.07h0V493.09a3.08,3.08,0,0,1,3.08-3.08H217a3.07,3.07,0,0,1,3.07,3.08h0v18.45a3.06,3.06,0,0,1-3.07,3.07Z" transform="translate(-97.94 -27.46)"/><path class="cls-7" d="M245.65,514.61h-4.1a3.06,3.06,0,0,1-3.07-3.07h0V480.78a3.06,3.06,0,0,1,3.07-3.07h4.1a3.07,3.07,0,0,1,3.08,3.07h0v30.76a3.07,3.07,0,0,1-3.08,3.07Z" transform="translate(-97.94 -27.46)"/><path class="cls-7" d="M260,514.61H255.9a3.07,3.07,0,0,1-3.07-3.07h0V466.43a3.08,3.08,0,0,1,3.07-3.08H260a3.08,3.08,0,0,1,3.07,3.08v45.11a3.07,3.07,0,0,1-3.07,3.07Z" transform="translate(-97.94 -27.46)"/><path class="cls-7" d="M231.3,514.61h-4.1a3.07,3.07,0,0,1-3.08-3.07h0V456.18a3.08,3.08,0,0,1,3.08-3.08h4.1a3.08,3.08,0,0,1,3.08,3.08v55.36a3.07,3.07,0,0,1-3.08,3.07Z" transform="translate(-97.94 -27.46)"/><path class="cls-7" d="M579.93,236.71,577,233.78a3.59,3.59,0,0,0-5.06,0l-20.37,18.8a3.75,3.75,0,0,0-1.27,2.59,3.57,3.57,0,0,0,1,2.68l4.37,4.43h0a3.59,3.59,0,0,0,2.55,1.06h.13a3.75,3.75,0,0,0,2.6-1.25l18.93-20.28a3.59,3.59,0,0,0,0-5.08Z" transform="translate(-97.94 -27.46)"/><path class="cls-7" d="M603.48,230.79l0,0L599.6,227a2.4,2.4,0,0,0-1.72-.7,2.46,2.46,0,0,0-1.43.46c0-.05,0-.09,0-.13a4.13,4.13,0,0,0-.58-2.83,28.6,28.6,0,0,0-2.79-3.23h0a30.29,30.29,0,0,0-9.73-6.28,15.77,15.77,0,0,0-6-1.17,11.37,11.37,0,0,0-7.27,2.55,12.57,12.57,0,0,0-1.59,1.82,1.8,1.8,0,0,0,2.09,2.73,8.35,8.35,0,0,1,1-.3,7.55,7.55,0,0,1,2.07-.13,8.75,8.75,0,0,1,4,1.47,5.75,5.75,0,0,1,2.05,4.61,12,12,0,0,1-2.24,3.87,1.79,1.79,0,0,0,.16,2.36l3.86,3.86A1.79,1.79,0,0,0,584,236a42.89,42.89,0,0,1,3.33-2.81,4.29,4.29,0,0,1,1.65-.65,2.16,2.16,0,0,1,1.27.27.2.2,0,0,1,0,.11l-.21.19,0,0a2.42,2.42,0,0,0,0,3.42h0l3.85,3.8a2.39,2.39,0,0,0,1.71.71,2.44,2.44,0,0,0,1.71-.7l6.23-6.15.06-.07A2.45,2.45,0,0,0,603.48,230.79Z" transform="translate(-97.94 -27.46)"/><path class="cls-7" d="M163.52,234.83a2.24,2.24,0,0,1-2.24-2.25,2.21,2.21,0,0,1,.66-1.59l5.15-5.15-5.15-5.15a2.25,2.25,0,0,1,3.17-3.18l6.74,6.74a2.25,2.25,0,0,1,0,3.18h0l-6.74,6.74A2.25,2.25,0,0,1,163.52,234.83Z" transform="translate(-97.94 -27.46)"/><path class="cls-7" d="M127.58,241.57a2.25,2.25,0,0,1-2.25-2.25h0v-2.25a13.56,13.56,0,0,1,13.48-13.48H168a2.25,2.25,0,0,1,0,4.5H138.81a9,9,0,0,0-9,9v2.24a2.25,2.25,0,0,1-2.25,2.25Z" transform="translate(-97.94 -27.46)"/><path class="cls-7" d="M145.55,259.54a2.27,2.27,0,0,1-1.59-.66l-6.74-6.74a2.26,2.26,0,0,1,0-3.18h0l6.74-6.74a2.25,2.25,0,0,1,3.18,3.18L142,250.55l5.15,5.15a2.25,2.25,0,0,1-1.59,3.84Z" transform="translate(-97.94 -27.46)"/><path class="cls-7" d="M141.06,252.8a2.25,2.25,0,0,1,0-4.49h29.2a9,9,0,0,0,9-9v-2.24a2.25,2.25,0,0,1,4.49,0v2.25a13.54,13.54,0,0,1-13.47,13.48Z" transform="translate(-97.94 -27.46)"/></svg>