<svg id="a48982f8-6f90-42ca-afb3-d8e4a7a73152" xmlns="http://www.w3.org/2000/svg" xmlns:xlink="http://www.w3.org/1999/xlink" viewBox="0 0 535.88 544.35"><defs><style>.cls-1{fill:#f4f4f4;}.cls-2{fill:url(#linear-gradient);}.cls-3{fill:url(#linear-gradient-2);}.cls-4{fill:url(#linear-gradient-3);}.cls-5{fill:url(#linear-gradient-4);}.cls-6{fill:url(#linear-gradient-5);}.cls-12,.cls-7,.cls-8{font-size:18px;font-family:Muli-Black, Muli Black;font-weight:800;}.cls-12,.cls-16,.cls-7,.cls-8{fill:#fff;}.cls-11,.cls-7{letter-spacing:0.01em;}.cls-8{letter-spacing:-0.07em;}.cls-9{letter-spacing:0.01em;}.cls-10{letter-spacing:0em;}.cls-12{letter-spacing:0em;}.cls-13{letter-spacing:0em;}.cls-14{letter-spacing:0em;}.cls-15{letter-spacing:0.02em;}</style><linearGradient id="linear-gradient" x1="203.51" y1="56.6" x2="316.71" y2="56.6" gradientUnits="userSpaceOnUse"><stop offset="0" stop-color="#f06d06"/><stop offset="1" stop-color="#ff2c2c"/></linearGradient><linearGradient id="linear-gradient-2" x1="422.68" y1="210.74" x2="535.88" y2="210.74" xlink:href="#linear-gradient"/><linearGradient id="linear-gradient-3" x1="354.04" y1="446.77" x2="467.24" y2="446.77" xlink:href="#linear-gradient"/><linearGradient id="linear-gradient-4" x1="81.89" y1="456.4" x2="195.08" y2="456.4" xlink:href="#linear-gradient"/><linearGradient id="linear-gradient-5" x1="0" y1="210.74" x2="113.2" y2="210.74" xlink:href="#linear-gradient"/></defs><path class="cls-1" d="M366.58,530.82c-2.4,0-4.83,0-7.22-.11l.08-2.4c2.36.07,4.78.1,7.14.11s4.81,0,7.21-.12l.08,2.4C371.44,530.78,369,530.82,366.58,530.82Zm-21.7-1c-4.79-.46-9.63-1.07-14.39-1.83l.38-2.38c4.71.75,9.5,1.36,14.24,1.81Zm43.47,0-.23-2.4c4.74-.45,9.53-1.07,14.23-1.82l.39,2.38c-4.76.76-9.6,1.38-14.39,1.84Zm-72.1-4.55c-4.7-1.06-9.42-2.3-14-3.66l.68-2.31c4.57,1.35,9.25,2.57,13.89,3.62ZM417,525.17l-.54-2.35c4.66-1.06,9.33-2.28,13.89-3.64l.68,2.31c-4.6,1.37-9.32,2.61-14,3.68ZM288.43,517c-4.53-1.66-9.06-3.5-13.47-5.45l1-2.2c4.36,1.93,8.84,3.74,13.32,5.39Zm156.35-.09-.83-2.26c4.45-1.64,8.92-3.46,13.28-5.39l1,2.2C453.8,513.43,449.28,515.26,444.78,516.92Zm-182.9-11.66c-4.27-2.23-8.52-4.62-12.66-7.13l1.25-2.06c4.09,2.48,8.3,4.85,12.52,7.05Zm209.38-.09L470.14,503c4.21-2.2,8.41-4.58,12.49-7.05l1.25,2.05C479.76,500.55,475.51,503,471.26,505.17Zm-234.2-15c-3.95-2.76-7.86-5.68-11.63-8.69l1.5-1.88c3.73,3,7.6,5.87,11.51,8.59Zm259-.09-1.38-2c3.9-2.73,7.77-5.62,11.49-8.59l1.5,1.88C503.88,484.44,500,487.36,496,490.12Zm-281.66-18c-3.57-3.24-7.07-6.63-10.42-10.08l1.72-1.68c3.32,3.42,6.79,6.77,10.32,10ZM518.68,472l-1.62-1.78c3.53-3.2,7-6.56,10.32-10l1.72,1.68C525.75,465.4,522.24,468.8,518.68,472ZM194.18,451.3c-3.12-3.67-6.17-7.48-9.06-11.33l1.93-1.45c2.86,3.82,5.87,7.59,9,11.21Zm344.68-.1L537,449.63c3.09-3.62,6.11-7.4,9-11.22l1.93,1.44c-2.88,3.86-5.93,7.68-9.06,11.35Zm-362-23.12c-2.63-4-5.17-8.2-7.54-12.38l2.1-1.19c2.34,4.14,4.85,8.27,7.46,12.26ZM556.24,428l-2-1.31c2.61-4,5.12-8.13,7.46-12.28l2.1,1.18c-2.37,4.2-4.9,8.37-7.54,12.41ZM162.55,402.86c-2.1-4.33-4.08-8.79-5.89-13.24l2.23-.91c1.79,4.41,3.75,8.81,5.83,13.1Zm408-.19-2.17-1c2.07-4.3,4-8.72,5.82-13.14l2.23.9C574.58,393.86,572.6,398.33,570.51,402.67ZM151.64,376c-1.53-4.58-2.92-9.26-4.14-13.91l2.33-.61c1.21,4.6,2.58,9.23,4.09,13.76Zm429.77-.26-2.28-.75c1.49-4.52,2.87-9.15,4.07-13.77l2.33.61C584.31,366.51,582.93,371.19,581.41,375.75ZM144.27,348c-.92-4.73-1.7-9.55-2.32-14.32l2.39-.31c.61,4.73,1.38,9.49,2.29,14.17Zm444.48-.27-2.37-.45c.91-4.68,1.67-9.45,2.27-14.18l2.39.31c-.61,4.78-1.38,9.6-2.29,14.32ZM142.93,290.35l-2.4-.15c.3-4.81.75-9.67,1.36-14.45l2.39.3C143.68,280.78,143.23,285.59,142.93,290.35ZM590,289.56c-.31-4.77-.78-9.57-1.39-14.29L591,275c.62,4.77,1.09,9.63,1.41,14.44ZM146.53,261.88l-2.36-.45c.91-4.73,2-9.49,3.19-14.15l2.33.6C148.49,252.49,147.43,257.2,146.53,261.88Zm439.75-.78c-.92-4.67-2-9.38-3.21-14l2.33-.62c1.22,4.65,2.32,9.41,3.24,14.14Zm-432.52-27-2.29-.75c1.51-4.58,3.19-9.17,5-13.65l2.23.91C156.92,225.05,155.25,229.59,153.76,234.11Zm425.2-.75c-1.51-4.52-3.19-9.05-5-13.46l2.23-.91c1.82,4.46,3.52,9,5,13.61ZM164.51,207.47l-2.17-1.05c2.09-4.34,4.35-8.67,6.72-12.88l2.1,1.19C168.81,198.88,166.58,203.17,164.51,207.47Zm403.63-.66c-2.08-4.27-4.32-8.55-6.67-12.69l2.09-1.19c2.38,4.19,4.65,8.51,6.74,12.83ZM178.6,182.44l-2-1.31c2.63-4,5.42-8,8.3-11.91l1.93,1.44C184,174.48,181.2,178.44,178.6,182.44Zm375.4-.57c-2.61-4-5.38-7.93-8.24-11.74l1.92-1.45c2.89,3.86,5.7,7.85,8.33,11.87ZM195.76,159.42l-1.83-1.56c3.12-3.67,6.4-7.28,9.74-10.75l1.74,1.68C202.09,152.21,198.85,155.79,195.76,159.42Zm341-.49c-3.1-3.62-6.35-7.19-9.67-10.61l1.72-1.68c3.36,3.46,6.65,7.06,9.78,10.72ZM215.71,138.79,214.08,137c3.57-3.25,7.28-6.42,11-9.42l1.51,1.88C222.9,132.44,219.23,135.58,215.71,138.79Zm301.07-.44c-3.54-3.2-7.22-6.32-10.95-9.29l1.5-1.89c3.77,3,7.49,6.16,11.06,9.39ZM238.1,120.86l-1.38-2c3.94-2.76,8-5.43,12.14-7.94l1.25,2.06C246,115.49,242,118.13,238.1,120.86Zm256.21-.38c-3.92-2.73-8-5.36-12-7.83l1.24-2.06c4.12,2.49,8.22,5.15,12.18,7.91ZM262.59,105.94l-1.12-2.13c4.26-2.23,8.65-4.36,13-6.32l1,2.2C271.14,101.63,266.8,103.73,262.59,105.94Zm207.15-.33c-4.23-2.2-8.59-4.29-12.95-6.22l1-2.2c4.41,2,8.82,4.06,13.09,6.29Zm-181-11.32L287.93,92c4.52-1.67,9.15-3.21,13.77-4.59l.68,2.31C297.82,91.11,293.24,92.64,288.77,94.29ZM443.45,94c-4.47-1.64-9.06-3.15-13.63-4.5l.68-2.31c4.62,1.36,9.26,2.89,13.78,4.55ZM316.26,86.09l-.53-2.34c4.68-1.08,9.47-2,14.23-2.79l.39,2.38C325.64,84.11,320.9,85,316.26,86.09Zm99.67-.17c-4.65-1-9.39-2-14.1-2.7l.38-2.38c4.76.75,9.55,1.67,14.25,2.73ZM344.58,81.5l-.23-2.4c4.78-.46,9.65-.78,14.48-.94l.08,2.41c-4.78.16-9.59.47-14.33.93Zm43-.08c-4.74-.44-9.56-.73-14.32-.88l.07-2.4c4.81.14,9.69.44,14.47.89Z" transform="translate(-97.94 -27.46)"/><circle class="cls-2" cx="260.11" cy="56.6" r="56.6"/><circle class="cls-3" cx="479.28" cy="210.74" r="56.6"/><circle class="cls-4" cx="410.64" cy="446.77" r="56.6"/><circle class="cls-5" cx="138.49" cy="456.4" r="56.6"/><circle class="cls-6" cx="56.6" cy="210.74" r="56.6"/><text class="cls-7" transform="translate(218.84 141.76)">Empathise</text><text class="cls-8" transform="translate(32.45 291.87)">T<tspan class="cls-9" x="10.17" y="0">e</tspan><tspan class="cls-10" x="20.29" y="0">s</tspan><tspan class="cls-11" x="29.48" y="0">t</tspan></text><text class="cls-12" transform="translate(92.63 539.24)">Pr<tspan class="cls-13" x="20.03" y="0">o</tspan><tspan class="cls-11" x="31.21" y="0">t</tspan><tspan class="cls-14" x="38.86" y="0">o</tspan><tspan class="cls-15" x="50.04" y="0">t</tspan><tspan class="cls-11" x="57.89" y="0">ype</tspan></text><text class="cls-7" transform="translate(385.94 531.24)">Ideate</text><text class="cls-7" transform="translate(457.06 291.74)">D<tspan class="cls-13" x="14.22" y="0">e</tspan><tspan x="24.23" y="0">fine</tspan></text><path class="cls-16" d="M378.24,46.86A15.14,15.14,0,0,0,363.1,62v1l-4.59,12.63a1.15,1.15,0,0,0,.14,1.06,1.17,1.17,0,0,0,1,.5h5.83v7a1.16,1.16,0,0,0,1.16,1.16h11.65V90a1.17,1.17,0,0,0,1.16,1.17h12.82A1.17,1.17,0,0,0,393.38,90V62A15.14,15.14,0,0,0,378.24,46.86ZM391.05,88.8H380.57V84.14A1.17,1.17,0,0,0,379.4,83H367.76V76a1.16,1.16,0,0,0-1.17-1.16h-5.32l4.09-11.25a1.34,1.34,0,0,0,.07-.4V62a12.81,12.81,0,1,1,25.62,0Z" transform="translate(-97.94 -27.46)"/><path class="cls-16" d="M376,61.88a4.41,4.41,0,0,1-6.22,0l-1.66,1.65a6.74,6.74,0,0,0,9.53,0Z" transform="translate(-97.94 -27.46)"/><path class="cls-16" d="M358.37,100.05l-4.59-12.63v-1a15.14,15.14,0,1,0-30.28,0v28a1.17,1.17,0,0,0,1.16,1.17h12.81a1.17,1.17,0,0,0,1.17-1.17v-4.66h11.65a1.16,1.16,0,0,0,1.16-1.16v-7h5.82a1.17,1.17,0,0,0,1.1-1.56Zm-8.08-.77a1.16,1.16,0,0,0-1.17,1.16v7H337.47a1.16,1.16,0,0,0-1.16,1.17v4.66H325.82V86.47a12.82,12.82,0,1,1,25.63,0v1.16a1.09,1.09,0,0,0,.07.4l4.09,11.25Z" transform="translate(-97.94 -27.46)"/><path class="cls-16" d="M347.13,86.34a4.41,4.41,0,0,1-6.22,0L339.25,88a6.74,6.74,0,0,0,9.53,0Z" transform="translate(-97.94 -27.46)"/><path class="cls-16" d="M342.13,56.18A5.83,5.83,0,0,0,336.31,62v3l-1.5-1.51-1.66,1.65,3.5,3.5a1.16,1.16,0,0,0,1.64,0h0l3.49-3.5-1.65-1.65L338.64,65V62a3.5,3.5,0,0,1,3.49-3.5h14V56.18Z" transform="translate(-97.94 -27.46)"/><rect class="cls-16" x="260.5" y="28.72" width="2.33" height="2.33"/><path class="cls-16" d="M387.22,93.79a1.17,1.17,0,0,0-1.65,0h0l-3.5,3.5,1.66,1.65,1.5-1.51v5.34a3.5,3.5,0,0,1-3.5,3.5H358.44v2.33h23.29a5.83,5.83,0,0,0,5.83-5.83V97.43l1.5,1.51,1.65-1.65Z" transform="translate(-97.94 -27.46)"/><rect class="cls-16" x="255.84" y="78.81" width="2.33" height="2.33"/><path class="cls-16" d="M606.1,221.34l3.14-3.13a1.9,1.9,0,0,0,.44-2,1.93,1.93,0,0,0-1.62-1.24l-5.81-.49-.5-5.81a1.89,1.89,0,0,0-3.22-1.18l-3.13,3.14a32.32,32.32,0,1,0,10.7,10.7Zm-7.49-4.93a1.88,1.88,0,0,0,1.72,1.72l3.35.28-4.53,4.53-4.94-.41-.41-4.94,4.53-4.53ZM585,238.2a6.44,6.44,0,1,1-6.44-6.44,6.36,6.36,0,0,1,3,.75l-4.35,4.35a1.91,1.91,0,0,0,0,2.68,1.91,1.91,0,0,0,2.68,0l4.35-4.35A6.36,6.36,0,0,1,585,238.2Zm-.68-8.44a10.1,10.1,0,0,0-5.76-1.78,10.22,10.22,0,1,0,8.44,4.46l5.41-5.41a17.82,17.82,0,1,1-2.68-2.68Zm14.41,28.6a28.52,28.52,0,1,1-6.08-45l-2.13,2.13a1.87,1.87,0,0,0-.55,1.29,1.47,1.47,0,0,0,0,.21l.26,3a21.59,21.59,0,1,0,6.48,6.48l3,.26h.46l.12,0,.07,0,.12,0,.07,0,.11,0,.07,0,.11-.06.06,0,.11-.08,0,0,.15-.13,2.13-2.14a28.54,28.54,0,0,1-4.63,34.26Z" transform="translate(-97.94 -27.46)"/><path class="cls-16" d="M512.35,508.63h-8.62c-2,0-4.31-1.73-4.31-5.17v-6a10,10,0,0,0-3.74-7.47,19.89,19.89,0,0,1-7.76-16.1A20.46,20.46,0,0,1,507.75,454a20.17,20.17,0,0,1,14.37,5.75,20.46,20.46,0,0,1,6,14.37,19.34,19.34,0,0,1-7.47,15.52,10.48,10.48,0,0,0-4,8v6.61a4.42,4.42,0,0,1-4.31,4.31ZM508,456.89a17.62,17.62,0,0,0-17.24,17,16.88,16.88,0,0,0,6.61,13.8,12.5,12.5,0,0,1,4.88,9.77v6c0,.57,0,2.29,1.44,2.29h8.62a1.36,1.36,0,0,0,1.44-1.43v-6.61A14,14,0,0,1,519,487.36a16.74,16.74,0,0,0,6.32-13.22,17.18,17.18,0,0,0-5.17-12.36A16.94,16.94,0,0,0,508,456.89Z" transform="translate(-97.94 -27.46)"/><path class="cls-16" d="M515.23,500H500.85a1.44,1.44,0,0,1,0-2.88h14.38a1.44,1.44,0,0,1,0,2.88Z" transform="translate(-97.94 -27.46)"/><path class="cls-16" d="M508,448.27a1.36,1.36,0,0,1-1.44-1.43v-5.75a1.44,1.44,0,0,1,2.88,0v5.75A1.36,1.36,0,0,1,508,448.27Z" transform="translate(-97.94 -27.46)"/><path class="cls-16" d="M527.3,456.32a1.7,1.7,0,0,1-1.15-.29,1.38,1.38,0,0,1,0-2l4-4a1.42,1.42,0,0,1,2,2l-4,4a2.94,2.94,0,0,1-.86.29Z" transform="translate(-97.94 -27.46)"/><path class="cls-16" d="M541.09,475.58h-5.75a1.44,1.44,0,0,1,0-2.88h5.75a1.44,1.44,0,0,1,0,2.88Z" transform="translate(-97.94 -27.46)"/><path class="cls-16" d="M531.32,498.86a1.72,1.72,0,0,1-1.15-.29l-4-4a1.42,1.42,0,1,1,2-2l4,4a1.38,1.38,0,0,1,0,2c0,.29-.28.29-.86.29Z" transform="translate(-97.94 -27.46)"/><path class="cls-16" d="M484.76,498.86a1.72,1.72,0,0,1-1.15-.29,1.4,1.4,0,0,1,0-2l4-4a1.43,1.43,0,1,1,2,2l-4,4A1,1,0,0,1,484.76,498.86Z" transform="translate(-97.94 -27.46)"/><path class="cls-16" d="M480.74,475.58H475a1.44,1.44,0,0,1,0-2.88h5.75a1.44,1.44,0,0,1,0,2.88Z" transform="translate(-97.94 -27.46)"/><path class="cls-16" d="M488.78,456.32a1.73,1.73,0,0,1-1.15-.29l-4-4.31a1.4,1.4,0,0,1,0-2,1.38,1.38,0,0,1,2,0l4,4a1.41,1.41,0,0,1,0,2c-.29.28-.58.57-.87.57Z" transform="translate(-97.94 -27.46)"/><path class="cls-16" d="M519.54,475.58a1.36,1.36,0,0,1-1.44-1.44A10.19,10.19,0,0,0,508,464.08a1.44,1.44,0,1,1,0-2.87A12.87,12.87,0,0,1,521,474.14,1.36,1.36,0,0,1,519.54,475.58Z" transform="translate(-97.94 -27.46)"/><path class="cls-16" d="M265,461a4.41,4.41,0,0,0-4.16-4.17c-4.54-.24-13.43,0-21.92,4.39a42.78,42.78,0,0,0-12.57,10.43l-.14.16-8.29.64a4.36,4.36,0,0,0-3.34,2L208.9,483a3,3,0,0,0,2.06,4.68l7,1.08c0,.13,0,.27-.07.41a4.41,4.41,0,0,0,1.24,3.83l9.73,9.73A4.41,4.41,0,0,0,232,504a4.25,4.25,0,0,0,.71-.06l.41-.08,1.08,7a3,3,0,0,0,1.77,2.32,3.16,3.16,0,0,0,1.23.26,3,3,0,0,0,1.67-.51l8.57-5.66a4.38,4.38,0,0,0,2-3.34l.64-8.29.16-.14a43.06,43.06,0,0,0,10.43-12.57A43.72,43.72,0,0,0,265,461Zm-19.41,43.49-8.19,5.42-1-6.82a36.78,36.78,0,0,0,10.15-4.83l-.42,5.41a1.09,1.09,0,0,1-.49.82Zm-14.37-4.13-9.74-9.74a1.1,1.1,0,0,1-.3-.94,29.18,29.18,0,0,1,1.29-4.93l14.61,14.61a28,28,0,0,1-4.93,1.3,1.08,1.08,0,0,1-.93-.3Zm-13-24.6,5.41-.42a36.78,36.78,0,0,0-4.83,10.15l-6.82-1.06,5.42-8.19A1,1,0,0,1,218.15,475.78ZM248.05,493a37.89,37.89,0,0,1-7.69,5l-16.51-16.51a38.64,38.64,0,0,1,5-7.69,39.78,39.78,0,0,1,11.54-9.6,40.41,40.41,0,0,1,20.22-4,1.08,1.08,0,0,1,1,1,40.41,40.41,0,0,1-4,20.22,39.78,39.78,0,0,1-9.6,11.54Z" transform="translate(-97.94 -27.46)"/><path class="cls-16" d="M247.2,482.93a8.3,8.3,0,1,0-5.87-2.43,8.27,8.27,0,0,0,5.87,2.43Zm-3.52-11.82a5,5,0,1,1-1.46,3.53A5,5,0,0,1,243.68,471.11Z" transform="translate(-97.94 -27.46)"/><path class="cls-16" d="M210.09,503.48a1.63,1.63,0,0,0,1.17-.49l5.42-5.42a1.66,1.66,0,1,0-2.35-2.34l-5.42,5.42a1.66,1.66,0,0,0,1.18,2.83Z" transform="translate(-97.94 -27.46)"/><path class="cls-16" d="M221.65,500.19a1.66,1.66,0,0,0-2.35,0l-10.42,10.42a1.67,1.67,0,0,0,1.17,2.84,1.69,1.69,0,0,0,1.18-.49l10.42-10.42a1.68,1.68,0,0,0,0-2.35Z" transform="translate(-97.94 -27.46)"/><path class="cls-16" d="M224.26,505.16l-5.41,5.42a1.66,1.66,0,0,0,0,2.35,1.64,1.64,0,0,0,1.17.48,1.66,1.66,0,0,0,1.17-.48l5.42-5.42a1.66,1.66,0,0,0-2.35-2.35Z" transform="translate(-97.94 -27.46)"/><path class="cls-16" d="M183.17,259.09h-2.89V228.27h-1.92v30.82H130.19V227.3H135v1h-2.89a1,1,0,0,0-1,1v27.94a1,1,0,0,0,1,1h44.32a1,1,0,0,0,1-1V229.23h-1.92v27H133.08v-26H135V236a1,1,0,0,0,1,1h13.49a1,1,0,0,0,1-1v-5.78h8.67v-1.92h-8.67v-1h8.67v-1.92h-8.67v-2.89a1,1,0,0,0-1-1H136a1,1,0,0,0-1,1v2.89h-5.78a1,1,0,0,0-1,1v32.75h-2.89a1,1,0,0,0-1,1v3.85a2.89,2.89,0,0,0,2.89,2.89h54a2.9,2.9,0,0,0,2.89-2.89v-3.85A1,1,0,0,0,183.17,259.09Zm-46.24-35.64h11.56V235H136.93Zm45.28,40.46a1,1,0,0,1-1,1H127.3a1,1,0,0,1-1-1V261h55.88Z" transform="translate(-97.94 -27.46)"/><path class="cls-16" d="M160.05,221.52h1.41a9.69,9.69,0,0,0,.65,1.56l-1,1a1,1,0,0,0,0,1.36l2.73,2.73a1,1,0,0,0,1.36,0l1-1a9.69,9.69,0,0,0,1.56.65v1.41a1,1,0,0,0,1,1h3.86a1,1,0,0,0,1-1v-1.41a9.69,9.69,0,0,0,1.56-.65l1,1a1,1,0,0,0,1.36,0l2.72-2.73a1,1,0,0,0,0-1.36l-1-1a9.65,9.65,0,0,0,.64-1.56h1.42a1,1,0,0,0,1-1V216.7a1,1,0,0,0-1-1h-1.42a9.65,9.65,0,0,0-.64-1.56l1-1a1,1,0,0,0,0-1.36l-2.72-2.72a1,1,0,0,0-1.36,0l-1,1a8.86,8.86,0,0,0-1.56-.65V208a1,1,0,0,0-1-1h-3.86a1,1,0,0,0-1,1v1.42a8.86,8.86,0,0,0-1.56.65l-1-1a1,1,0,0,0-1.36,0l-2.73,2.72a1,1,0,0,0,0,1.36l1,1a9.69,9.69,0,0,0-.65,1.56h-1.41a1,1,0,0,0-1,1v3.86A1,1,0,0,0,160.05,221.52Zm1-3.85h1.18a1,1,0,0,0,.94-.75,7.55,7.55,0,0,1,1-2.38,1,1,0,0,0-.14-1.2l-.84-.84,1.37-1.36.84.84a1,1,0,0,0,1.19.13,8,8,0,0,1,2.38-1,1,1,0,0,0,.76-.94V209h1.92v1.18a1,1,0,0,0,.75.94,7.79,7.79,0,0,1,2.38,1,1,1,0,0,0,1.2-.13l.84-.84,1.36,1.36-.84.84a1,1,0,0,0-.13,1.19,8,8,0,0,1,1,2.39,1,1,0,0,0,.94.75h1.18v1.92H179.1a1,1,0,0,0-.94.75,7.71,7.71,0,0,1-1,2.39,1,1,0,0,0,.13,1.19l.84.84-1.36,1.36-.84-.84a1,1,0,0,0-1.19-.13,7.71,7.71,0,0,1-2.39,1,1,1,0,0,0-.75.94v1.19h-1.92v-1.19a1,1,0,0,0-.75-.94,7.71,7.71,0,0,1-2.39-1,1,1,0,0,0-1.19.14l-.84.84-1.36-1.37.84-.84a1,1,0,0,0,.13-1.19,7.75,7.75,0,0,1-1-2.38,1,1,0,0,0-.94-.76H161Z" transform="translate(-97.94 -27.46)"/><path class="cls-16" d="M170.65,225.38a6.75,6.75,0,1,0-6.74-6.75A6.75,6.75,0,0,0,170.65,225.38Zm0-11.57a4.82,4.82,0,1,1-4.82,4.82A4.84,4.84,0,0,1,170.65,213.81Z" transform="translate(-97.94 -27.46)"/><path class="cls-16" d="M174.5,239.83V237.9h-1a6.66,6.66,0,0,0-1.27-3.07l.74-.74-1.37-1.36-.73.74a6.7,6.7,0,0,0-3.07-1.27v-1h-1.93v1a6.7,6.7,0,0,0-3.07,1.27l-.73-.74-1.37,1.36.74.74a6.66,6.66,0,0,0-1.27,3.07h-1v1.93h1a6.67,6.67,0,0,0,1.27,3.06l-.74.74L162,245l.73-.74a6.72,6.72,0,0,0,3.07,1.28v1h1.93v-1a6.72,6.72,0,0,0,3.07-1.28l.73.74,1.37-1.36-.74-.74a6.67,6.67,0,0,0,1.27-3.06Zm-2.89-1a4.82,4.82,0,1,1-4.81-4.81A4.82,4.82,0,0,1,171.61,238.86Z" transform="translate(-97.94 -27.46)"/><path class="cls-16" d="M166.8,235a3.86,3.86,0,1,0,3.85,3.85A3.86,3.86,0,0,0,166.8,235Zm0,5.78a1.93,1.93,0,1,1,1.92-1.93A1.93,1.93,0,0,1,166.8,240.79Z" transform="translate(-97.94 -27.46)"/><path class="cls-16" d="M149.46,238.86H136a1,1,0,0,0-1,1v13.48a1,1,0,0,0,1,1h13.49a1,1,0,0,0,1-1V239.83A1,1,0,0,0,149.46,238.86Zm-1,13.49H136.93V240.79h11.56Z" transform="translate(-97.94 -27.46)"/><path class="cls-16" d="M141.68,231.38l-2.05-2.73-1.54,1.16,2.89,3.85a1,1,0,0,0,.77.39h0a1,1,0,0,0,.78-.45l4.81-7.7-1.63-1Z" transform="translate(-97.94 -27.46)"/><path class="cls-16" d="M139.54,251.1l3.17-3.17,3.17,3.17,1.37-1.36-3.18-3.17,3.18-3.17L145.88,242l-3.17,3.18L139.54,242l-1.36,1.37,3.17,3.17-3.17,3.17Z" transform="translate(-97.94 -27.46)"/></svg>