<svg id="Layer_1" data-name="Layer 1" xmlns="http://www.w3.org/2000/svg" viewBox="0 0 951.82 597.4"><defs><style>.cls-1{fill:#3f3d56;}.cls-2{fill:#ff6584;}.cls-3{fill:#e6e6e6;}.cls-4{fill:#ff9d00;}.cls-5{fill:#f2f2f2;}.cls-6{fill:#ffb8b8;}.cls-7{fill:#2f2e41;}.cls-8{fill:#ccc;}</style></defs><path id="Path_67" data-name="Path 67" class="cls-1" d="M678.72,464.27H37.05V201.35H678.72ZM39,462.32H676.77v-259H39Z" transform="translate(-37.05 -201.35)"/><path id="Path_68" data-name="Path 68" class="cls-2" d="M127.68,301.55H87.36a141.08,141.08,0,0,1,0-48.07h40.32A86.53,86.53,0,0,0,127.68,301.55Z" transform="translate(-37.05 -201.35)"/><path id="Path_69" data-name="Path 69" class="cls-3" d="M162.59,322h40.33a141.13,141.13,0,0,0,0-48.08H162.59A88.73,88.73,0,0,1,162.59,322Z" transform="translate(-37.05 -201.35)"/><path id="Path_70" data-name="Path 70" class="cls-3" d="M422.82,331.87H477.6a1.47,1.47,0,0,0,0-2.93H422.82a1.47,1.47,0,0,0,0,2.93Z" transform="translate(-37.05 -201.35)"/><path id="Path_71" data-name="Path 71" class="cls-3" d="M476.19,318.05l8.56,7.81a24.83,24.83,0,0,1,4.28,3.91c1.26,2.42-.09,1.86-2.25,2.71a48,48,0,0,0-14.41,8.95c-1.42,1.24.66,3.31,2.07,2.07a44.77,44.77,0,0,1,13.12-8.2c1.73-.69,5-1.08,5.83-3.14,1-2.52-2.19-4.38-3.71-5.76L478.26,316c-1.39-1.27-3.46.8-2.07,2.07Z" transform="translate(-37.05 -201.35)"/><path id="Path_72" data-name="Path 72" class="cls-4" d="M115.73,391.36h40.33a141.13,141.13,0,0,0,0-48.08H115.73A86.57,86.57,0,0,1,115.73,391.36Z" transform="translate(-37.05 -201.35)"/><path id="Path_73" data-name="Path 73" class="cls-4" d="M429.12,297.63h40.33a141.13,141.13,0,0,0,0-48.08H429.12a86.38,86.38,0,0,1,0,48.08Z" transform="translate(-37.05 -201.35)"/><path id="Path_74" data-name="Path 74" class="cls-5" d="M301.47,376.64V258l-10.74-2.39v131.8l81-.83-.27-10.63Z" transform="translate(-37.05 -201.35)"/><path id="Path_75" data-name="Path 75" class="cls-1" d="M381.52,397.28H283.89V240.09h97.63Zm-95.68-2h93.73V242.05H285.84Z" transform="translate(-37.05 -201.35)"/><rect id="Rectangle_26" data-name="Rectangle 26" class="cls-1" x="255.62" y="48.51" width="15.81" height="1.95"/><rect id="Rectangle_27" data-name="Rectangle 27" class="cls-1" x="255.62" y="53.39" width="15.81" height="1.95"/><rect id="Rectangle_28" data-name="Rectangle 28" class="cls-1" x="255.62" y="58.27" width="15.81" height="1.95"/><rect id="Rectangle_29" data-name="Rectangle 29" class="cls-1" x="263.43" y="142.23" width="67.56" height="1.95"/><rect id="Rectangle_30" data-name="Rectangle 30" class="cls-1" x="263.43" y="152.97" width="67.56" height="1.95"/><rect id="Rectangle_31" data-name="Rectangle 31" class="cls-1" x="263.43" y="163.71" width="67.56" height="1.95"/><path id="Path_76" data-name="Path 76" class="cls-1" d="M366.87,262.55a6.84,6.84,0,1,1,6.84-6.84,6.83,6.83,0,0,1-6.84,6.84Zm0-11.72a4.87,4.87,0,1,0,4.87,4.87h0a4.87,4.87,0,0,0-4.87-4.87Z" transform="translate(-37.05 -201.35)"/><path id="Path_77" data-name="Path 77" class="cls-1" d="M368.83,321.12H299.52v-44.9h69.31Zm-67.36-1.95h65.41v-41H301.46Z" transform="translate(-37.05 -201.35)"/><rect id="Rectangle_32" data-name="Rectangle 32" class="cls-1" x="333.19" y="258.72" width="1.95" height="79.9" transform="translate(-134.38 218.49) rotate(-57.47)"/><rect id="Rectangle_33" data-name="Rectangle 33" class="cls-1" x="294.22" y="297.69" width="79.9" height="1.95" transform="translate(-145.22 25.17) rotate(-32.53)"/><path id="Path_78" data-name="Path 78" class="cls-5" d="M549.46,376.64V258l-10.74-2.39v131.8l81-.83-.27-10.63Z" transform="translate(-37.05 -201.35)"/><path id="Path_79" data-name="Path 79" class="cls-1" d="M630.48,395.32H532.84V238.14h97.64Zm-95.68-1.95h93.73V240.09H534.8Z" transform="translate(-37.05 -201.35)"/><rect id="Rectangle_34" data-name="Rectangle 34" class="cls-1" x="504.58" y="46.55" width="15.81" height="1.95"/><rect id="Rectangle_35" data-name="Rectangle 35" class="cls-1" x="504.58" y="51.44" width="15.81" height="1.95"/><rect id="Rectangle_36" data-name="Rectangle 36" class="cls-1" x="504.58" y="56.32" width="15.81" height="1.95"/><path id="Path_80" data-name="Path 80" class="cls-1" d="M615.83,260.59a6.84,6.84,0,1,1,6.84-6.83h0A6.83,6.83,0,0,1,615.83,260.59Zm0-11.71a4.87,4.87,0,1,0,4.87,4.87h0A4.87,4.87,0,0,0,615.83,248.88Z" transform="translate(-37.05 -201.35)"/><path id="Path_81" data-name="Path 81" class="cls-1" d="M617.8,319.17H548.48V274.26H617.8Zm-67.37-1.95h65.41v-41H550.42Z" transform="translate(-37.05 -201.35)"/><rect id="Rectangle_37" data-name="Rectangle 37" class="cls-1" x="582.15" y="256.77" width="1.95" height="79.9" transform="translate(-17.63 427.5) rotate(-57.47)"/><rect id="Rectangle_38" data-name="Rectangle 38" class="cls-1" x="543.17" y="295.73" width="79.9" height="1.95" transform="matrix(0.84, -0.54, 0.54, 0.84, -105.1, 158.95)"/><path id="Path_82" data-name="Path 82" class="cls-1" d="M617.8,377.75H548.48V332.84H617.8Zm-67.37-1.95h65.41v-41H550.42Z" transform="translate(-37.05 -201.35)"/><rect id="Rectangle_39" data-name="Rectangle 39" class="cls-1" x="582.15" y="315.35" width="1.95" height="79.9" transform="translate(-67.02 454.59) rotate(-57.47)"/><rect id="Rectangle_40" data-name="Rectangle 40" class="cls-1" x="543.17" y="354.3" width="79.9" height="1.95" transform="translate(-136.61 168.15) rotate(-32.55)"/><path id="Path_83" data-name="Path 83" class="cls-4" d="M317.83,427.48h40.32a141.13,141.13,0,0,0,0-48.08H317.83A86.57,86.57,0,0,1,317.83,427.48Z" transform="translate(-37.05 -201.35)"/><circle id="Ellipse_67" data-name="Ellipse 67" class="cls-6" cx="766.81" cy="193.51" r="28.57"/><circle id="Ellipse_68" data-name="Ellipse 68" class="cls-7" cx="811.61" cy="158.04" r="25.28"/><path id="Path_84" data-name="Path 84" class="cls-7" d="M870.46,380.31a25.28,25.28,0,0,1-39-13.27,25.28,25.28,0,1,0,50.16-6.29,24.53,24.53,0,0,0-.85-4.07A25.26,25.26,0,0,1,870.46,380.31Z" transform="translate(-37.05 -201.35)"/><path id="Path_85" data-name="Path 85" class="cls-7" d="M770.71,380.34c4.41-7.9,6.1-11.2,11.79-16,5-4.25,11.22-5.5,16.21-1.47a30.06,30.06,0,1,1-17.83,24.07C776.54,386.32,775,381,770.71,380.34Z" transform="translate(-37.05 -201.35)"/><path id="Path_86" data-name="Path 86" class="cls-6" d="M734.67,784.9l-13.07-3.79L730,728.89l19.29,5.61Z" transform="translate(-37.05 -201.35)"/><path id="Path_87" data-name="Path 87" class="cls-7" d="M711.45,774.1,738.56,782,734,797.84l-41.07-11.93.55-1.91A14.54,14.54,0,0,1,711.45,774.1Z" transform="translate(-37.05 -201.35)"/><path id="Path_88" data-name="Path 88" class="cls-6" d="M869.73,785.21H856.11l-6.47-52.49h20.08Z" transform="translate(-37.05 -201.35)"/><path id="Path_89" data-name="Path 89" class="cls-7" d="M844.41,781.32h28.23v16.52H829.87v-2A14.53,14.53,0,0,1,844.41,781.32Z" transform="translate(-37.05 -201.35)"/><path id="Path_90" data-name="Path 90" class="cls-6" d="M837.71,602.48a11.16,11.16,0,0,1,1.51-15.71,10.55,10.55,0,0,1,1.62-1.11l-7.05-39,19,8.12,3.81,35.82a11.23,11.23,0,0,1-18.83,11.94Z" transform="translate(-37.05 -201.35)"/><path id="Path_91" data-name="Path 91" class="cls-4" d="M847.87,509l-22.23-67.51a15,15,0,0,0-18-5.78,10.05,10.05,0,0,0-6.22,5.08c-3.52,6.76-.24,17.21-.22,17.26l27.37,61.36,0,.06,8.66,63,18.66-3.79Z" transform="translate(-37.05 -201.35)"/><path id="Path_92" data-name="Path 92" class="cls-7" d="M700.06,758.77l33.47-102.63,38.81-88.71-.56-43,46.06-10.74,5.36,18c31,20.47,20.8,59.84,20.07,62.48L890,766.65l-51,5.66L804.84,609l-31.55,66.36L751,774.62Z" transform="translate(-37.05 -201.35)"/><path id="Path_93" data-name="Path 93" class="cls-4" d="M768.46,488.29c-9.16-17.55-2.54-24.23,7.48-34.35a137,137,0,0,0,11.49-12.71c15.62-20.08,33.75-10.22,33.93-10.11l.1.05,4.48,6.72c14.76,14.86-7.62,55.67-9.32,58.71l1.12,29.18-47.6,4.53Z" transform="translate(-37.05 -201.35)"/><path id="Path_94" data-name="Path 94" class="cls-6" d="M786.61,601a11.16,11.16,0,0,1,7.29-15.49l3-39.55,16.28,12.63-5.38,35.62A11.23,11.23,0,0,1,786.61,601Z" transform="translate(-37.05 -201.35)"/><path id="Path_95" data-name="Path 95" class="cls-4" d="M790.05,582.42l7.69-64-11-66.26c0-.46-.57-11.45,4.82-17.41a11,11,0,0,1,8-3.66,16.17,16.17,0,0,1,17,10.92l4.46,71.19L811,583.59Z" transform="translate(-37.05 -201.35)"/><path id="Path_96" data-name="Path 96" class="cls-8" d="M615.92,798.75h372a1,1,0,0,0,1-1,1,1,0,0,0-1-1h-372a1,1,0,0,0-1,1A1,1,0,0,0,615.92,798.75Z" transform="translate(-37.05 -201.35)"/></svg>