<svg id="fab53ecb-c04a-44eb-8d92-23f87bdb6c81" xmlns="http://www.w3.org/2000/svg" xmlns:xlink="http://www.w3.org/1999/xlink" viewBox="0 0 942.55 631.44"><defs><style>.cls-1{fill:#2f2e41;}.cls-2{fill:#ffb8b8;}.cls-3{fill:#3f3d56;}.cls-4{fill:url(#linear-gradient);}.cls-5{fill:#e6e6e6;}.cls-6{fill:#ccc;}.cls-7{fill:#fff;}.cls-8{fill:#f2f2f2;}.cls-9{fill:url(#linear-gradient-2);}.cls-10{fill:url(#linear-gradient-3);}.cls-11{fill:url(#linear-gradient-4);}.cls-12{fill:url(#linear-gradient-5);}.cls-13{fill:url(#linear-gradient-6);}.cls-14{fill:url(#linear-gradient-7);}.cls-15{fill:url(#linear-gradient-8);}.cls-16{fill:url(#linear-gradient-9);}.cls-17{fill:url(#linear-gradient-10);}.cls-18{fill:url(#linear-gradient-11);}</style><linearGradient id="linear-gradient" x1="742.01" y1="352.13" x2="798.5" y2="352.13" gradientUnits="userSpaceOnUse"><stop offset="0" stop-color="#f06d06"/><stop offset="1" stop-color="red"/></linearGradient><linearGradient id="linear-gradient-2" x1="539.36" y1="107.33" x2="562.13" y2="107.33" xlink:href="#linear-gradient"/><linearGradient id="linear-gradient-3" x1="538.1" y1="175.42" x2="550.61" y2="175.42" xlink:href="#linear-gradient"/><linearGradient id="linear-gradient-4" x1="534.8" y1="242.45" x2="586.88" y2="242.45" xlink:href="#linear-gradient"/><linearGradient id="linear-gradient-5" x1="534.8" y1="264.96" x2="603.09" y2="264.96" xlink:href="#linear-gradient"/><linearGradient id="linear-gradient-6" x1="534.8" y1="287.48" x2="567.97" y2="287.48" xlink:href="#linear-gradient"/><linearGradient id="linear-gradient-7" x1="151.53" y1="240.95" x2="181.72" y2="240.95" xlink:href="#linear-gradient"/><linearGradient id="linear-gradient-8" x1="197.24" y1="224.56" x2="227.43" y2="224.56" xlink:href="#linear-gradient"/><linearGradient id="linear-gradient-9" x1="242.96" y1="240.95" x2="273.15" y2="240.95" xlink:href="#linear-gradient"/><linearGradient id="linear-gradient-10" x1="288.68" y1="218.09" x2="318.86" y2="218.09" xlink:href="#linear-gradient"/><linearGradient id="linear-gradient-11" x1="334.39" y1="206.45" x2="364.58" y2="206.45" xlink:href="#linear-gradient"/></defs><path class="cls-1" d="M750.86,279.44l2.8-22.43a30.28,30.28,0,1,1,60.1,7.5L811,286.94a4.06,4.06,0,0,1-4.54,3.53l-52-6.49A4.08,4.08,0,0,1,750.86,279.44Z"/><circle class="cls-2" cx="775.79" cy="263.93" r="22.2"/><path class="cls-1" d="M746.33,257.92a24,24,0,0,1,26.74-20.81l4.48.56a24,24,0,0,1,20.81,26.74l-.06.45-9.48-1.18-2.1-9.46-1.78,9-4.9-.61L779,257.81l-.89,4.53-31.82-4Z"/><path class="cls-2" d="M667.19,343.13A10.23,10.23,0,0,0,681,347.6a10.44,10.44,0,0,0,1.52-1l20.17,11.81L712.81,348,684.1,331.67a10.29,10.29,0,0,0-16.91,11.46Z"/><path class="cls-3" d="M733.29,364.36c-14.88,0-41.06-6.66-42.51-7l-.45-.12,4.12-20.86,40,7.9,21.72-30.59,24.94-2.53-.7.91c-.32.43-32.47,42.75-37.47,49.84C741.66,363.68,738.05,364.36,733.29,364.36Z"/><path class="cls-3" d="M737.27,442.65l-.59-.29c-.13-.06-12.77-6.21-19.31-18.21s24-62.61,26.11-66.12l0-16.09,11-29.63,14-7.9-12,28Z"/><polygon class="cls-2" points="723.26 615.59 709.88 615.59 703.52 564.01 723.26 564.01 723.26 615.59"/><path class="cls-1" d="M726.67,628.55H683.55V628a16.79,16.79,0,0,1,16.78-16.79h26.34Z"/><polygon class="cls-2" points="866.89 603.87 854.18 608.03 832.08 561 850.83 554.86 866.89 603.87"/><path class="cls-1" d="M874.17,615.13l-41,13.42L833,628a16.79,16.79,0,0,1,10.73-21.17h0l25-8.2Z"/><path class="cls-1" d="M841,595.44,802.88,531.8l-32.18-68-29,60.06-11.5,77.78-40.35.56.16-.63,61.74-245.31,48.35,7.23-2.2,31.91,1.31,1.87c10.93,15.51,22.22,31.56,15.74,48.85l18.36,54.52L874,591.44Z"/><path class="cls-4" d="M754,409.44c-7,0-15-8-10.85-21.66l-.27-.19,10-44c-8.69-12.43,2.77-22.69,3.84-23.61l5.47-9.85,24.14-15.3L798.5,396.29l-.18.17C789.5,404.9,759.88,409.44,754,409.44Z"/><path class="cls-3" d="M803.43,432.34a11.91,11.91,0,0,1-2.85-.31c-.94-.23-2.46-1.43-4.81-9.07-9.33-30.4-20.35-121.86-12.35-130.81l.19-.21,13.15,2.19c1.09-.8,6.82-4.81,12.12-4.11a8,8,0,0,1,5.49,3.25l.09.12L818.65,353,834,423.11l-.37.17C832.74,423.69,813.58,432.34,803.43,432.34Z"/><path class="cls-2" d="M794.59,409a10.21,10.21,0,0,0,9.88-10.56,9.84,9.84,0,0,0-.22-1.79l19.25-13.26-5.2-13.66-26.92,19.11A10.28,10.28,0,0,0,794.59,409Z"/><path class="cls-3" d="M817.15,394.06,800,381.48l24.1-32.86L805.61,316l8.27-23.66.54,1c.25.47,25,47.53,29.26,55.07,4.48,7.84-25,43.76-26.23,45.28Z"/><path class="cls-5" d="M431.48,542l-14.59-6.14-10-73.15H273.57l-10.85,72.85-13.05,6.53a3.1,3.1,0,0,0,1.38,5.87H430.28a3.1,3.1,0,0,0,1.2-6Z"/><path class="cls-6" d="M668.37,472.41H13.54a13,13,0,0,1-12.94-13V367.1H681.32v92.34A13,13,0,0,1,668.37,472.41Z"/><path class="cls-3" d="M682,410.74H0V15.64A15.66,15.66,0,0,1,15.64,0H666.36A15.66,15.66,0,0,1,682,15.64Z"/><path class="cls-7" d="M641.27,382.06H40.73a12.06,12.06,0,0,1-12-12.05V40.73a12.06,12.06,0,0,1,12-12H641.27a12.06,12.06,0,0,1,12.05,12V370A12.06,12.06,0,0,1,641.27,382.06Z"/><path class="cls-6" d="M509.42,548.69H172a1.57,1.57,0,0,1-1.54-1.13,1.53,1.53,0,0,1,1.09-1.87,1.74,1.74,0,0,1,.39-.05H509.29a1.61,1.61,0,0,1,1.62,1.2,1.53,1.53,0,0,1-1.16,1.82Z"/><rect class="cls-8" x="489.86" y="81.91" width="145" height="110.77"/><rect class="cls-7" x="497.06" y="87.41" width="130.59" height="99.76"/><path class="cls-3" d="M564.65,161.41h.05a34.82,34.82,0,0,0,.78-69.49.82.82,0,0,0-.6.21.84.84,0,0,0-.26.58l-.76,67.9a.79.79,0,0,0,.79.8Z"/><path class="cls-5" d="M537.35,103.15a1.08,1.08,0,0,1,.72.31l23.37,23.91a1,1,0,0,1,.29.72l-.36,32.49a1,1,0,0,1-.33.74,1,1,0,0,1-.77.27,35,35,0,0,1-23.7-58.09,1,1,0,0,1,.74-.35Z"/><path class="cls-9" d="M561.12,91.65a1,1,0,0,1,.7.28,1.06,1.06,0,0,1,.31.75L561.8,122a1,1,0,0,1-1,1,1.08,1.08,0,0,1-.72-.31l-20.4-20.86a1,1,0,0,1,0-1.45l0,0a35.07,35.07,0,0,1,21.34-8.71Z"/><path class="cls-10" d="M550.61,175.49a6.26,6.26,0,1,1-6.19-6.32h0A6.26,6.26,0,0,1,550.61,175.49Z"/><path class="cls-3" d="M568.47,175.7a6.25,6.25,0,1,1-6.18-6.33h0A6.25,6.25,0,0,1,568.47,175.7Z"/><path class="cls-5" d="M586.34,175.9a6.26,6.26,0,1,1-6.18-6.33h0A6.26,6.26,0,0,1,586.34,175.9Z"/><rect class="cls-8" x="488.33" y="210.12" width="145" height="110.77"/><rect class="cls-7" x="495.54" y="215.62" width="130.59" height="99.76"/><circle class="cls-3" cx="517.69" cy="242.99" r="5.42"/><path class="cls-3" d="M604.81,238.77a3.68,3.68,0,1,1,0,7.35h-57a3.68,3.68,0,1,1,0-7.35h57m0-.9h-57a4.58,4.58,0,1,0,0,9.15h57a4.58,4.58,0,0,0,0-9.15Z"/><path class="cls-11" d="M582.31,247H539.38a4.58,4.58,0,0,1,0-9.15h42.94a4.58,4.58,0,0,1,0,9.15Z"/><circle class="cls-3" cx="517.69" cy="265.5" r="5.42"/><path class="cls-3" d="M604.81,261.28a3.68,3.68,0,0,1,0,7.36h-57a3.68,3.68,0,1,1,0-7.36h57m0-.9h-57a4.58,4.58,0,1,0,0,9.16h57a4.58,4.58,0,1,0,0-9.16Z"/><path class="cls-12" d="M598.52,269.54H539.38a4.58,4.58,0,0,1,0-9.16h59.15a4.58,4.58,0,0,1,0,9.16Z"/><circle class="cls-3" cx="517.69" cy="288.02" r="5.42"/><path class="cls-3" d="M604.81,283.8a3.68,3.68,0,1,1,0,7.35h-57a3.68,3.68,0,1,1,0-7.35h57m0-.9h-57a4.58,4.58,0,1,0,0,9.15h57a4.58,4.58,0,1,0,0-9.15Z"/><path class="cls-13" d="M563.4,292.05h-24a4.58,4.58,0,0,1,0-9.15h24a4.58,4.58,0,0,1,0,9.15Z"/><rect class="cls-8" x="51.19" y="101.51" width="405.09" height="207.61"/><rect class="cls-7" x="64.69" y="111.82" width="378.09" height="186.98"/><path class="cls-3" d="M395.89,270.28H120.27a.86.86,0,0,1-.86-.87V137.31a.86.86,0,1,1,1.72,0h0V268.55H395.89a.87.87,0,0,1,0,1.73Z"/><path class="cls-14" d="M179.16,260.79H154.09a2.56,2.56,0,0,1-2.56-2.56V223.67a2.56,2.56,0,0,1,2.56-2.56h25.07a2.56,2.56,0,0,1,2.56,2.56v34.56A2.56,2.56,0,0,1,179.16,260.79Z"/><path class="cls-15" d="M224.87,260.79H199.8a2.57,2.57,0,0,1-2.56-2.56V190.89a2.58,2.58,0,0,1,2.56-2.56h25.07a2.56,2.56,0,0,1,2.56,2.56v67.34A2.56,2.56,0,0,1,224.87,260.79Z"/><path class="cls-16" d="M270.59,260.79H245.52a2.56,2.56,0,0,1-2.56-2.56V223.67a2.56,2.56,0,0,1,2.56-2.56h25.07a2.56,2.56,0,0,1,2.56,2.56v34.56A2.56,2.56,0,0,1,270.59,260.79Z"/><path class="cls-17" d="M316.3,260.79H291.24a2.5,2.5,0,0,1-2.56-2.45v-80.5a2.5,2.5,0,0,1,2.56-2.44H316.3a2.5,2.5,0,0,1,2.56,2.44v80.5A2.5,2.5,0,0,1,316.3,260.79Z"/><path class="cls-18" d="M362,260.79H337a2.56,2.56,0,0,1-2.56-2.56V154.67a2.56,2.56,0,0,1,2.56-2.56H362a2.56,2.56,0,0,1,2.56,2.56V258.23A2.56,2.56,0,0,1,362,260.79Z"/><circle class="cls-3" cx="166.62" cy="205.58" r="5.18"/><circle class="cls-3" cx="212.34" cy="171.95" r="5.18"/><circle class="cls-3" cx="258.05" cy="205.58" r="5.18"/><circle class="cls-3" cx="303.77" cy="155.56" r="5.18"/><circle class="cls-3" cx="349.49" cy="136.58" r="5.18"/><polygon class="cls-3" points="258.16 206.74 212.34 172.42 167.14 206.28 166.11 204.9 212.34 170.26 257.94 204.43 303.27 154.83 303.45 154.76 349.16 136.34 349.81 137.94 304.27 156.28 258.16 206.74"/><path class="cls-6" d="M941.55,631.44h-381a1,1,0,0,1,0-2h381a1,1,0,0,1,0,2Z"/></svg>