<svg id="Layer_1" data-name="Layer 1" xmlns="http://www.w3.org/2000/svg" xmlns:xlink="http://www.w3.org/1999/xlink" viewBox="0 0 454 432"><defs><style>.cls-1{fill:#180253;}.cls-2,.cls-3{isolation:isolate;}.cls-3{font-size:164.11px;fill:#fafafa;font-family:AvenirNext-Bold, Avenir Next;font-weight:700;letter-spacing:-0.01em;}.cls-4{fill:url(#linear-gradient);}</style><linearGradient id="linear-gradient" x1="351.78" y1="-248" x2="543.69" y2="-248" gradientTransform="matrix(1, 0, 0, -1, -189.15, -6.53)" gradientUnits="userSpaceOnUse"><stop offset="0" stop-color="#f06d06"/><stop offset="1" stop-color="#ff2c2c"/></linearGradient></defs><rect class="cls-1" x="-9" y="-10" width="475" height="454"/><g id="Group_2" data-name="Group 2"><g id="Group_1" data-name="Group 1"><g id="Staark"><g class="cls-2"><text class="cls-3" transform="translate(129.43 206.03)">S</text></g></g><path id="x" class="cls-4" d="M351.27,94.88a7.54,7.54,0,0,0,3.24-5.43,6.8,6.8,0,0,0-1.47-5,9,9,0,0,0-4.13-2.79q-2.51-.85-5.12,1.5a234.39,234.39,0,0,0-19.71,18.5q-12,12.33-25,26.56T274.58,156q-11.5,13.47-17.81,21.27a95.29,95.29,0,0,1-7.15-13.88q-3.6-8.35-7.3-17.12t-7.19-17.57q-3.48-8.79-6.39-15.27c-.9-2.46-2-3.8-3.15-4a3.45,3.45,0,0,0-3.18,1.09,8.32,8.32,0,0,0-2,3.94,7.61,7.61,0,0,0,.38,5q2,6.21,5.51,15.19t7.58,18.31q4.05,9.34,8.26,18.45t7.44,15.13q-7.8,10.22-17.12,22.61t-18.54,26.1q-9.19,13.68-18,27.88t-15.7,27.64Q174.1,304.06,169.13,317A95.54,95.54,0,0,0,163,342a59.82,59.82,0,0,0,2.22,23.53q3.44,11.32,13.14,21a53.25,53.25,0,0,0,15,10.24q8.58,4,14.86,4.41c2.33.55,3.7.23,4.09-1s-.58-2-2.92-2.59a51.45,51.45,0,0,1-14.76-4,45.78,45.78,0,0,1-24.35-32.13,70.28,70.28,0,0,1,1.07-24.28,126.7,126.7,0,0,1,7.6-23.66q5-11.43,8.89-18.89,7.88-15,16.86-29.14t17.92-27q8.89-12.84,17.35-23.5t15.55-18.6Q260,203.94,266.79,214t14.34,20q7.5,10,14.86,18.45A111,111,0,0,0,308.34,265c3.89,2.61,6.53,3.51,8,2.7s-.11-3.08-4.57-6.79q-6-4.75-13.27-14.39t-14-20.36q-6.84-10.76-12.9-21.12a187.28,187.28,0,0,1-9-16.9q7-8.39,18.55-21.61t24.23-27.12q12.64-13.91,24.91-26.24T351.27,94.88Z"/></g></g></svg>