<svg id="Layer_1" data-name="Layer 1" xmlns="http://www.w3.org/2000/svg" xmlns:xlink="http://www.w3.org/1999/xlink" viewBox="0 0 828.11 889.35"><defs><style>.cls-1{fill:#e6e6e6;}.cls-2{fill:#ff7f00;}.cls-3{fill:red;}.cls-4{fill:url(#linear-gradient);}.cls-5{fill:url(#linear-gradient-2);}.cls-6{fill:#3f3d56;}.cls-7{fill:#f06d06;}.cls-8{fill:#f2f2f2;}.cls-9{opacity:0.1;isolation:isolate;}.cls-10{fill:url(#linear-gradient-3);}.cls-11{fill:url(#linear-gradient-4);}.cls-12{fill:#fff;}.cls-13{fill:#517bd9;}</style><linearGradient id="linear-gradient" x1="421.64" y1="161.48" x2="470.02" y2="161.48" gradientUnits="userSpaceOnUse"><stop offset="0" stop-color="#f06d06"/><stop offset="1" stop-color="red"/></linearGradient><linearGradient id="linear-gradient-2" x1="21.89" y1="318.15" x2="70.27" y2="318.15" xlink:href="#linear-gradient"/><linearGradient id="linear-gradient-3" x1="439.55" y1="838.88" x2="696.13" y2="838.88" xlink:href="#linear-gradient"/><linearGradient id="linear-gradient-4" x1="816.97" y1="921.86" x2="841.46" y2="921.86" xlink:href="#linear-gradient"/></defs><g id="undraw_Business_decisions_re_84ag" data-name="undraw Business decisions re 84ag"><circle id="Ellipse_3" data-name="Ellipse 3" class="cls-1" cx="201.32" cy="121.06" r="7.85"/><circle id="Ellipse_4" data-name="Ellipse 4" class="cls-1" cx="241.06" cy="121.06" r="7.85"/><circle id="Ellipse_5" data-name="Ellipse 5" class="cls-1" cx="280.79" cy="121.06" r="7.85"/><circle id="Ellipse_6" data-name="Ellipse 6" class="cls-1" cx="320.52" cy="121.06" r="7.85"/><circle id="Ellipse_7" data-name="Ellipse 7" class="cls-1" cx="360.25" cy="121.06" r="7.85"/><circle id="Ellipse_8" data-name="Ellipse 8" class="cls-1" cx="201.32" cy="161.29" r="7.85"/><circle id="Ellipse_9" data-name="Ellipse 9" class="cls-1" cx="241.06" cy="161.29" r="7.85"/><circle id="Ellipse_10" data-name="Ellipse 10" class="cls-1" cx="280.79" cy="161.29" r="7.85"/><circle id="Ellipse_11" data-name="Ellipse 11" class="cls-2" cx="320.52" cy="161.29" r="7.85"/><circle id="Ellipse_12" data-name="Ellipse 12" class="cls-1" cx="360.25" cy="161.29" r="7.85"/><circle id="Ellipse_13" data-name="Ellipse 13" class="cls-1" cx="439.72" cy="161.29" r="7.85"/><circle id="Ellipse_14" data-name="Ellipse 14" class="cls-1" cx="201.32" cy="201.52" r="7.85"/><circle id="Ellipse_15" data-name="Ellipse 15" class="cls-1" cx="241.06" cy="201.52" r="7.85"/><circle id="Ellipse_16" data-name="Ellipse 16" class="cls-1" cx="280.79" cy="201.52" r="7.85"/><circle id="Ellipse_17" data-name="Ellipse 17" class="cls-1" cx="320.52" cy="201.52" r="7.85"/><circle id="Ellipse_18" data-name="Ellipse 18" class="cls-1" cx="360.25" cy="201.52" r="7.85"/><circle id="Ellipse_19" data-name="Ellipse 19" class="cls-1" cx="201.32" cy="241.75" r="7.85"/><circle id="Ellipse_20" data-name="Ellipse 20" class="cls-1" cx="241.06" cy="241.75" r="7.85"/><circle id="Ellipse_21" data-name="Ellipse 21" class="cls-1" cx="280.79" cy="241.75" r="7.85"/><circle id="Ellipse_22" data-name="Ellipse 22" class="cls-1" cx="320.52" cy="241.75" r="7.85"/><circle id="Ellipse_23" data-name="Ellipse 23" class="cls-1" cx="360.25" cy="241.75" r="7.85"/><circle id="Ellipse_24" data-name="Ellipse 24" class="cls-1" cx="399.99" cy="241.75" r="7.85"/><circle id="Ellipse_25" data-name="Ellipse 25" class="cls-1" cx="439.72" cy="241.75" r="7.85"/><circle id="Ellipse_26" data-name="Ellipse 26" class="cls-1" cx="479.45" cy="241.75" r="7.85"/><circle id="Ellipse_27" data-name="Ellipse 27" class="cls-1" cx="519.18" cy="241.75" r="7.85"/><circle id="Ellipse_28" data-name="Ellipse 28" class="cls-1" cx="558.91" cy="241.75" r="7.85"/><circle id="Ellipse_29" data-name="Ellipse 29" class="cls-1" cx="360.25" cy="281.98" r="7.85"/><circle id="Ellipse_30" data-name="Ellipse 30" class="cls-2" cx="399.99" cy="281.98" r="7.85"/><circle id="Ellipse_31" data-name="Ellipse 31" class="cls-1" cx="439.72" cy="281.98" r="7.85"/><circle id="Ellipse_32" data-name="Ellipse 32" class="cls-1" cx="479.45" cy="281.98" r="7.85"/><circle id="Ellipse_33" data-name="Ellipse 33" class="cls-1" cx="519.18" cy="281.98" r="7.85"/><circle id="Ellipse_34" data-name="Ellipse 34" class="cls-1" cx="558.91" cy="281.98" r="7.85"/><circle id="Ellipse_35" data-name="Ellipse 35" class="cls-1" cx="360.25" cy="322.21" r="7.85"/><circle id="Ellipse_36" data-name="Ellipse 36" class="cls-1" cx="399.99" cy="322.21" r="7.85"/><circle id="Ellipse_37" data-name="Ellipse 37" class="cls-1" cx="439.72" cy="322.21" r="7.85"/><circle id="Ellipse_38" data-name="Ellipse 38" class="cls-1" cx="479.45" cy="322.21" r="7.85"/><circle id="Ellipse_39" data-name="Ellipse 39" class="cls-3" cx="519.18" cy="322.21" r="7.85"/><circle id="Ellipse_40" data-name="Ellipse 40" class="cls-1" cx="558.91" cy="322.21" r="7.85"/><circle id="Ellipse_41" data-name="Ellipse 41" class="cls-1" cx="360.25" cy="362.44" r="7.85"/><circle id="Ellipse_42" data-name="Ellipse 42" class="cls-1" cx="399.99" cy="362.44" r="7.85"/><circle id="Ellipse_43" data-name="Ellipse 43" class="cls-1" cx="439.72" cy="362.44" r="7.85"/><circle id="Ellipse_44" data-name="Ellipse 44" class="cls-1" cx="479.45" cy="362.44" r="7.85"/><circle id="Ellipse_45" data-name="Ellipse 45" class="cls-1" cx="519.18" cy="362.44" r="7.85"/><circle id="Ellipse_46" data-name="Ellipse 46" class="cls-1" cx="558.91" cy="362.44" r="7.85"/><circle id="Ellipse_47" data-name="Ellipse 47" class="cls-1" cx="201.32" cy="402.68" r="7.85"/><circle id="Ellipse_48" data-name="Ellipse 48" class="cls-1" cx="241.06" cy="402.68" r="7.85"/><circle id="Ellipse_49" data-name="Ellipse 49" class="cls-1" cx="280.79" cy="402.68" r="7.85"/><circle id="Ellipse_50" data-name="Ellipse 50" class="cls-1" cx="320.52" cy="402.68" r="7.85"/><circle id="Ellipse_51" data-name="Ellipse 51" class="cls-1" cx="360.25" cy="402.68" r="7.85"/><circle id="Ellipse_52" data-name="Ellipse 52" class="cls-1" cx="399.99" cy="402.68" r="7.85"/><circle id="Ellipse_53" data-name="Ellipse 53" class="cls-1" cx="439.72" cy="402.68" r="7.85"/><circle id="Ellipse_54" data-name="Ellipse 54" class="cls-1" cx="479.45" cy="402.68" r="7.85"/><circle id="Ellipse_55" data-name="Ellipse 55" class="cls-1" cx="519.18" cy="402.68" r="7.85"/><circle id="Ellipse_56" data-name="Ellipse 56" class="cls-1" cx="558.91" cy="402.68" r="7.85"/><circle id="Ellipse_57" data-name="Ellipse 57" class="cls-1" cx="201.32" cy="442.91" r="7.85"/><circle id="Ellipse_58" data-name="Ellipse 58" class="cls-1" cx="241.06" cy="442.91" r="7.85"/><circle id="Ellipse_59" data-name="Ellipse 59" class="cls-1" cx="201.32" cy="483.14" r="7.85"/><circle id="Ellipse_60" data-name="Ellipse 60" class="cls-1" cx="241.06" cy="483.14" r="7.85"/><circle id="Ellipse_61" data-name="Ellipse 61" class="cls-1" cx="320.52" cy="483.14" r="7.85"/><path id="Path_16" data-name="Path 16" class="cls-1" d="M844.41,267.31h-311a5.77,5.77,0,0,1-5.76-5.76V184.39a5.77,5.77,0,0,1,5.76-5.76h311a5.77,5.77,0,0,1,5.76,5.76v77.16a5.77,5.77,0,0,1-5.76,5.76Zm-311-86.38a3.46,3.46,0,0,0-3.45,3.46v77.16a3.46,3.46,0,0,0,3.45,3.45h311a3.46,3.46,0,0,0,3.46-3.45V184.39a3.46,3.46,0,0,0-3.46-3.46Z" transform="translate(-127.85 -61.49)"/><circle id="Ellipse_62" data-name="Ellipse 62" class="cls-4" cx="445.83" cy="161.48" r="24.19"/><path id="Path_17" data-name="Path 17" class="cls-1" d="M629.56,206.84a4,4,0,1,0,0,8.06H736.7a4,4,0,0,0,0-8.06Z" transform="translate(-127.85 -61.49)"/><path id="Path_18" data-name="Path 18" class="cls-1" d="M629.56,231a4,4,0,0,0,0,8.07H819.64a4,4,0,0,0,0-8.07Z" transform="translate(-127.85 -61.49)"/><path id="Path_19" data-name="Path 19" class="cls-1" d="M444.66,424h-311a5.77,5.77,0,0,1-5.76-5.76V341.06a5.77,5.77,0,0,1,5.76-5.76H444.66a5.78,5.78,0,0,1,5.76,5.76v77.16A5.77,5.77,0,0,1,444.66,424Zm-311-86.37a3.45,3.45,0,0,0-3.45,3.45v77.16a3.45,3.45,0,0,0,3.45,3.46H444.66a3.47,3.47,0,0,0,3.46-3.46V341.06a3.47,3.47,0,0,0-3.46-3.45Z" transform="translate(-127.85 -61.49)"/><circle id="Ellipse_63" data-name="Ellipse 63" class="cls-5" cx="46.08" cy="318.15" r="24.19"/><path id="Path_20" data-name="Path 20" class="cls-1" d="M229.81,363.52a4,4,0,1,0,0,8.06H341.55a4,4,0,0,0,0-8.06Z" transform="translate(-127.85 -61.49)"/><path id="Path_21" data-name="Path 21" class="cls-1" d="M229.81,387.71a4,4,0,1,0,0,8.06H419.89a4,4,0,0,0,0-8.06Z" transform="translate(-127.85 -61.49)"/><g id="Group_3" data-name="Group 3"><path id="Path_22" data-name="Path 22" class="cls-6" d="M490.74,150.17h-311a5.77,5.77,0,0,1-5.76-5.76V67.25a5.77,5.77,0,0,1,5.76-5.76H490.74a5.77,5.77,0,0,1,5.76,5.76v77.16A5.77,5.77,0,0,1,490.74,150.17Zm-311-86.37a3.45,3.45,0,0,0-3.45,3.45v77.16a3.47,3.47,0,0,0,3.45,3.46H490.74a3.47,3.47,0,0,0,3.46-3.46V67.25a3.45,3.45,0,0,0-3.46-3.45Z" transform="translate(-127.85 -61.49)"/><circle id="Ellipse_64" data-name="Ellipse 64" class="cls-7" cx="92.16" cy="44.34" r="24.19"/><path id="Path_23" data-name="Path 23" class="cls-1" d="M275.89,89.7a4,4,0,1,0,0,8.07H378.42a4,4,0,0,0,0-8.07Z" transform="translate(-127.85 -61.49)"/><path id="Path_24" data-name="Path 24" class="cls-1" d="M275.89,113.89a4,4,0,1,0,0,8.07H466a4,4,0,0,0,0-8.07Z" transform="translate(-127.85 -61.49)"/></g></g><g id="undraw_file_manager_j85s" data-name="undraw file manager j85s"><rect id="Rectangle_3" data-name="Rectangle 3" class="cls-8" x="167.23" y="364.79" width="80.22" height="93.46"/><rect id="Rectangle_4" data-name="Rectangle 4" class="cls-8" x="383.74" y="419.3" width="80.22" height="93.46"/><rect id="Rectangle_5" data-name="Rectangle 5" class="cls-8" x="601.02" y="364.79" width="80.22" height="93.46"/><rect id="Rectangle_6" data-name="Rectangle 6" class="cls-6" x="228.72" y="681.24" width="211.04" height="52.62"/><path id="Path_1" data-name="Path 1" class="cls-6" d="M789.25,949.86H603.31l52.22-90.44,40.75-70.59Z" transform="translate(-127.85 -61.49)"/><rect id="Rectangle_7" data-name="Rectangle 7" class="cls-6" x="157.32" y="747.84" width="309.06" height="140.57"/><circle id="Ellipse_1" data-name="Ellipse 1" class="cls-7" cx="568.1" cy="690.57" r="36.65"/><rect id="Rectangle_8" data-name="Rectangle 8" class="cls-6" x="51.89" y="887.79" width="670.38" height="1.56"/><path id="Path_2" data-name="Path 2" class="cls-9" d="M567.62,746.26v49.09h-49.7l30.38-52.62h17.29Z" transform="translate(-127.85 -61.49)"/><path id="Path_3" data-name="Path 3" class="cls-9" d="M594.23,809.33V949.9H428.69l.16-.27,81-140.3Z" transform="translate(-127.85 -61.49)"/><path id="Path_4" data-name="Path 4" class="cls-9" d="M707.74,949.86H603.31l52.22-90.44,2.33,4Z" transform="translate(-127.85 -61.49)"/><path id="Path_5" data-name="Path 5" class="cls-10" d="M696.13,950H439.55l.2-.35L523.9,803.88l43.94-76.11,78.34,135.7,49.88,86.4Z" transform="translate(-127.85 -61.49)"/><circle id="Ellipse_2" data-name="Ellipse 2" class="cls-6" cx="439.6" cy="652.41" r="15.78"/><path id="Path_6" data-name="Path 6" class="cls-6" d="M523.87,718.93a286.57,286.57,0,0,1-94-15.79c-40.54-14-73.75-33.34-98.7-57.46-47.22-45.6-85.92-52.48-110.07-50.22-26.15,2.45-41.37,15.84-41.52,16l-1-1.15c.16-.14,15.69-13.83,42.31-16.36,15.61-1.48,31.94,1.1,48.52,7.67,20.69,8.19,41.84,22.64,62.88,43,24.79,24,57.81,43.17,98.13,57.11,74,25.59,157.45,19.4,228.89-17a258.19,258.19,0,0,1,69.48-24.45c28.31-5.26,55.16-4,79.81,3.63,54.16,16.85,91.16,15.95,112.65,12.24,23.2-4,33.72-12,33.83-12.11l1,1.23c-.44.33-10.94,8.34-34.52,12.41-21.67,3.75-58.93,4.66-113.39-12.29-55.14-17.15-111,1.81-148.12,20.73a299,299,0,0,1-113.42,32Q535.17,718.92,523.87,718.93Z" transform="translate(-127.85 -61.49)"/><path id="Path_7" data-name="Path 7" class="cls-6" d="M348,659.41l-1.11-1.09a57.09,57.09,0,0,0,11.42-20c3.79-11.4,5.64-29.42-7.06-50.46-13-21.52-13.59-39-11.79-49.88a44.67,44.67,0,0,1,7.16-18.74l1.24,1A44.15,44.15,0,0,0,341,538.36c-1.73,10.6-1.13,27.66,11.6,48.74,13,21.57,11.1,40.09,7.18,51.81A57.24,57.24,0,0,1,348,659.41Z" transform="translate(-127.85 -61.49)"/><path id="Path_8" data-name="Path 8" class="cls-6" d="M406.45,520.51H294.31V408.37H406.45ZM295.86,519h109v-109h-109Z" transform="translate(-127.85 -61.49)"/><path id="Path_9" data-name="Path 9" class="cls-6" d="M565.31,714.7l-1.11-1.08a57,57,0,0,0,11.42-20c3.79-11.4,5.64-29.41-7.06-50.45-13-21.53-13.58-39-11.79-49.88a44.9,44.9,0,0,1,7.16-18.75l1.24,1a44.19,44.19,0,0,0-6.88,18.15c-1.73,10.6-1.12,27.66,11.6,48.73,13,21.58,11.1,40.09,7.18,51.82A57.28,57.28,0,0,1,565.31,714.7Z" transform="translate(-127.85 -61.49)"/><path id="Path_10" data-name="Path 10" class="cls-6" d="M623.73,575.81H511.59V463.66H623.74Zm-110.59-1.56h109v-109h-109Z" transform="translate(-127.85 -61.49)"/><path id="Path_11" data-name="Path 11" class="cls-6" d="M781.81,658.63l-1.1-1.09a56.91,56.91,0,0,0,11.41-20c3.79-11.4,5.64-29.42-7.06-50.46-13-21.52-13.58-39-11.78-49.88a44.54,44.54,0,0,1,7.16-18.74l1.23,1a44.13,44.13,0,0,0-6.87,18.14c-1.73,10.6-1.13,27.66,11.6,48.74,13,21.58,11.09,40.09,7.18,51.82A57.31,57.31,0,0,1,781.81,658.63Z" transform="translate(-127.85 -61.49)"/><path id="Path_12" data-name="Path 12" class="cls-6" d="M840.24,519.74H728.09V407.59H840.24Zm-110.59-1.56h109v-109h-109Z" transform="translate(-127.85 -61.49)"/><rect id="Rectangle_9" data-name="Rectangle 9" class="cls-6" x="189.82" y="379.59" width="68.53" height="1.56"/><rect id="Rectangle_10" data-name="Rectangle 10" class="cls-6" x="189.82" y="396.72" width="68.53" height="1.56"/><rect id="Rectangle_11" data-name="Rectangle 11" class="cls-6" x="189.82" y="413.85" width="68.53" height="1.56"/><rect id="Rectangle_12" data-name="Rectangle 12" class="cls-6" x="405.54" y="432.54" width="68.53" height="1.56"/><rect id="Rectangle_13" data-name="Rectangle 13" class="cls-6" x="405.54" y="449.68" width="68.53" height="1.56"/><rect id="Rectangle_14" data-name="Rectangle 14" class="cls-6" x="405.54" y="466.81" width="68.53" height="1.56"/><rect id="Rectangle_15" data-name="Rectangle 15" class="cls-6" x="622.05" y="379.59" width="68.53" height="1.56"/><rect id="Rectangle_16" data-name="Rectangle 16" class="cls-6" x="622.05" y="396.72" width="68.53" height="1.56"/><rect id="Rectangle_17" data-name="Rectangle 17" class="cls-6" x="622.05" y="413.85" width="68.53" height="1.56"/><path id="Path_13" data-name="Path 13" class="cls-11" d="M818.24,924.82c4.2,15.52,18.58,25.14,18.58,25.14s7.57-15.56,3.37-31.07-18.57-25.14-18.57-25.14S814,909.31,818.24,924.82Z" transform="translate(-127.85 -61.49)"/><path id="Path_14" data-name="Path 14" class="cls-6" d="M824.41,921.49C835.93,932.71,837.34,950,837.34,950s-17.27-1-28.79-12.16-12.93-28.45-12.93-28.45S812.89,910.28,824.41,921.49Z" transform="translate(-127.85 -61.49)"/><rect id="Rectangle_18" data-name="Rectangle 18" class="cls-8" x="199.94" y="780.67" width="80.22" height="93.46"/><path id="Path_15" data-name="Path 15" class="cls-12" d="M439.16,935.61H327V823.46H439.16Zm-110.59-1.56h109V825h-109Z" transform="translate(-127.85 -61.49)"/><rect id="Rectangle_19" data-name="Rectangle 19" class="cls-13" x="220.97" y="795.46" width="68.53" height="1.56"/><rect id="Rectangle_20" data-name="Rectangle 20" class="cls-13" x="220.97" y="812.6" width="68.53" height="1.56"/><rect id="Rectangle_21" data-name="Rectangle 21" class="cls-13" x="220.97" y="829.73" width="68.53" height="1.56"/><rect id="Rectangle_22" data-name="Rectangle 22" class="cls-9" x="292.99" y="681.24" width="81" height="26.4"/><rect id="Rectangle_23" data-name="Rectangle 23" class="cls-2" x="297.66" y="658.58" width="73.21" height="45.17"/></g></svg>