<svg id="Layer_1" data-name="Layer 1" xmlns="http://www.w3.org/2000/svg" viewBox="0 0 650.59 650.64"><defs><style>.cls-1{fill:#fb8c0a;}</style></defs><g id="project"><path id="Path_38" data-name="Path 38" class="cls-1" d="M827.82,213.86h-297V160.18a9.47,9.47,0,0,0-9.47-9.47H461.8a9.47,9.47,0,0,0-9.48,9.47h0v53.68H335.58a9.47,9.47,0,0,0-9.47,9.47v81.95a72.17,72.17,0,0,0-17.27,12.83v-28c0-17.28-17.19-31.47-42.76-36.18V233.27a9.47,9.47,0,0,0-9.47-9.48,73,73,0,0,0-47.14,17.76,65,65,0,0,0-22.76,49.76v39.94a9.53,9.53,0,1,0,19,0V291.31A49.51,49.51,0,0,1,247,243.62V609.24a72.83,72.83,0,0,0-41.19,18.39V381.89a9.53,9.53,0,0,0-19.06,0V678a9.26,9.26,0,0,0,.14,1.57c.93,28,26.79,48.84,60.9,48.84A72.92,72.92,0,0,0,290,715.91v35c0,32.21,32.22,50.4,61.07,50.4,30.63,0,61.05-17.26,61.05-50.43V616.17H683.48L485.71,784.57a9.6,9.6,0,0,0,6.19,16.78h287a9.48,9.48,0,0,0,9.48-9.47h0V745.59a9.53,9.53,0,1,0-19.06,0v36.7H517.79l251.6-214.21V693a9.53,9.53,0,1,0,19.06,0h0V616.18h39.37a9.47,9.47,0,0,0,9.47-9.47h0V223.39a9.47,9.47,0,0,0-9.42-9.53Zm-9.47,19V464.09H595.08V232.91ZM511.72,169.77V413.7h-40.4V389.34h6.92a9.53,9.53,0,0,0,0-19.06h-6.92v-25h15.84a9.53,9.53,0,0,0,0-19.06H471.32v-25h6.92a9.53,9.53,0,0,0,0-19.06h-6.92v-25h15.84a9.53,9.53,0,1,0,0-19.05H471.32v-25h6.92a9.53,9.53,0,0,0,0-19.06h-6.92V169.78Zm-174.48,151a50.45,50.45,0,0,1,13-4.06V682.28a72.77,72.77,0,0,0-41.2,18.4V364.34A49.37,49.37,0,0,1,337.24,320.72ZM393,723.12l-1-.54a86.37,86.37,0,0,0-40.26-9.47V701.27a55.24,55.24,0,0,1,7.71-.59,9.46,9.46,0,0,0,9.82-9.11c0-.12,0-.24,0-.36V346.57C382,349.7,393,356.05,393,363.19Zm-103.25-433V650a84.87,84.87,0,0,0-41.24-9.88V628.26a56.92,56.92,0,0,1,7.71-.58,9.48,9.48,0,0,0,9.84-9.1V273.46C280.59,276.94,289.77,284.15,289.77,290.11Zm0,392.3c0,14.55-19.23,26.84-42,26.84-23.88,0-41.95-13.53-41.95-31.36a46.15,46.15,0,0,1,23.6-43.9v16.12a9.48,9.48,0,0,0,9.43,9.52,8.21,8.21,0,0,0,1,0,70.21,70.21,0,0,1,39.72,6.77,16.11,16.11,0,0,1,10.15,16.17ZM351,782.25h0c-23.89,0-41.95-13.53-41.95-31.34A46.17,46.17,0,0,1,332.66,707v16a9.47,9.47,0,0,0,9.42,9.52,8.27,8.27,0,0,0,1,0c16.17-1.51,50.65,1.07,49.88,22.9,0,14.55-19.23,26.84-41.95,26.85Zm61-419.06c0-17.16-17.26-31.42-42.77-36.16V306.28a9.47,9.47,0,0,0-9.47-9.47,69.13,69.13,0,0,0-14.55,1.59V232.91H452.34V423.23a9.47,9.47,0,0,0,9.47,9.47h59.45a9.47,9.47,0,0,0,9.48-9.47h0V232.91H576v364.2H412.06Zm370.89,175.6a9.47,9.47,0,0,0-10.17,1.36l-66.87,56.93H595.08V483.14H818.29v114H788.52V547.44a9.49,9.49,0,0,0-5.54-8.65Z" transform="translate(-186.71 -150.71)"/><path id="Path_39" data-name="Path 39" class="cls-1" d="M619.7,436H717a10.68,10.68,0,0,0,7.47-3.1l48.63-48.59a10.58,10.58,0,0,0,3.1-7.47V279.77a10.71,10.71,0,0,0-10.56-10.56H668.32a10.52,10.52,0,0,0-7.45,3.09l-48.62,48.57a10.72,10.72,0,0,0-3.1,7.47v97.13A10.57,10.57,0,0,0,619.7,436Zm10.55-97.14h76.14v76H630.27ZM727.51,400V332.7L755,305.2v67.28ZM672.68,290.37h67.4l-27.5,27.47H645.15Z" transform="translate(-186.71 -150.71)"/><path id="Path_40" data-name="Path 40" class="cls-1" d="M686.17,548.55h-35a10.56,10.56,0,0,0,0,21.11h35a10.56,10.56,0,0,0,0-21.11Z" transform="translate(-186.71 -150.71)"/><path id="Path_41" data-name="Path 41" class="cls-1" d="M724.26,510.75H634.64a10.56,10.56,0,0,0,0,21.11h89.62a10.56,10.56,0,0,0,0-21.11Z" transform="translate(-186.71 -150.71)"/><path id="Path_42" data-name="Path 42" class="cls-1" d="M714.53,623.05,587.08,731.56a10.64,10.64,0,0,0,6.85,18.59H721.38a10.55,10.55,0,0,0,10.55-10.56V631.09a10.67,10.67,0,0,0-17.4-8Zm-3.71,106H622.61l88.21-75.1Z" transform="translate(-186.71 -150.71)"/></g></svg>