<svg id="fab53ecb-c04a-44eb-8d92-23f87bdb6c81" xmlns="http://www.w3.org/2000/svg" xmlns:xlink="http://www.w3.org/1999/xlink" viewBox="0 0 942.55 631.44"><defs><style>.cls-1{fill:#f1f1f1;}.cls-2{fill:#3f3d56;}.cls-3{fill:#fff;}.cls-4{fill:#e5e5e5;}.cls-5{fill:url(#linear-gradient);}.cls-6{fill:url(#linear-gradient-2);}.cls-7{fill:url(#linear-gradient-3);}.cls-8{fill:#cbcbcb;}.cls-9{fill:#ffb7b7;}.cls-10{fill:#2f2e41;}</style><linearGradient id="linear-gradient" x1="354.82" y1="144.93" x2="401.4" y2="144.93" gradientUnits="userSpaceOnUse"><stop offset="0" stop-color="#f06d06"/><stop offset="1" stop-color="red"/></linearGradient><linearGradient id="linear-gradient-2" x1="478.9" y1="220.91" x2="525.49" y2="220.91" xlink:href="#linear-gradient"/><linearGradient id="linear-gradient-3" x1="541.02" y1="220.91" x2="587.6" y2="220.91" xlink:href="#linear-gradient"/></defs><path class="cls-1" d="M736.54,607.39V545.18S760.78,589.28,736.54,607.39Z"/><path class="cls-1" d="M738,607.38l-45.83-42.07S741.09,577.28,738,607.38Z"/><path class="cls-1" d="M205.54,607.39V545.18S181.3,589.28,205.54,607.39Z"/><path class="cls-1" d="M204.05,607.38l45.82-42.07S201,577.28,204.05,607.38Z"/><path class="cls-2" d="M622,146h-3.32v-91A52.66,52.66,0,0,0,566,2.39H373.24a52.66,52.66,0,0,0-52.66,52.66h0V554.2a52.66,52.66,0,0,0,52.66,52.66H566a52.66,52.66,0,0,0,52.66-52.66h0V210.8H622Z"/><path class="cls-3" d="M568.13,16.09H543a18.68,18.68,0,0,1-17.3,25.74H415.24a18.69,18.69,0,0,1-17.3-25.74h-23.5a39.33,39.33,0,0,0-39.33,39.33V553.83a39.33,39.33,0,0,0,39.33,39.33H568.13a39.32,39.32,0,0,0,39.32-39.33h0V55.42a39.32,39.32,0,0,0-39.32-39.33Z"/><path class="cls-4" d="M563.28,584.6h-184c-21.14,0-38.34-15.35-38.34-34.22V525.6c0-15,13.7-27.27,30.53-27.27h199.6c16.84,0,30.54,12.24,30.54,27.27v24.78C601.62,569.25,584.42,584.6,563.28,584.6Z"/><path class="cls-5" d="M398.63,168.22h-41a2.77,2.77,0,0,1-2.77-2.77v-41a2.78,2.78,0,0,1,2.77-2.78h41a2.78,2.78,0,0,1,2.77,2.78v41A2.77,2.77,0,0,1,398.63,168.22Z"/><path class="cls-4" d="M460.75,168.22h-41a2.78,2.78,0,0,1-2.78-2.77v-41a2.79,2.79,0,0,1,2.78-2.78h41a2.78,2.78,0,0,1,2.77,2.78v41A2.77,2.77,0,0,1,460.75,168.22Z"/><path class="cls-4" d="M522.86,168.22h-41a2.77,2.77,0,0,1-2.77-2.77v-41a2.78,2.78,0,0,1,2.77-2.78h41a2.78,2.78,0,0,1,2.77,2.78v41A2.77,2.77,0,0,1,522.86,168.22Z"/><path class="cls-4" d="M585,168.22h-41a2.78,2.78,0,0,1-2.78-2.77v-41a2.79,2.79,0,0,1,2.78-2.78h41a2.78,2.78,0,0,1,2.77,2.78v41A2.77,2.77,0,0,1,585,168.22Z"/><path class="cls-4" d="M398.48,244.2h-41a2.77,2.77,0,0,1-2.77-2.77v-41a2.78,2.78,0,0,1,2.77-2.78h41a2.79,2.79,0,0,1,2.78,2.78v41A2.78,2.78,0,0,1,398.48,244.2Z"/><path class="cls-4" d="M460.6,244.2h-41a2.77,2.77,0,0,1-2.77-2.77v-41a2.78,2.78,0,0,1,2.77-2.78h41a2.78,2.78,0,0,1,2.77,2.78v41A2.77,2.77,0,0,1,460.6,244.2Z"/><path class="cls-6" d="M522.71,244.2h-41a2.77,2.77,0,0,1-2.77-2.77v-41a2.78,2.78,0,0,1,2.77-2.78h41a2.79,2.79,0,0,1,2.78,2.78v41A2.77,2.77,0,0,1,522.71,244.2Z"/><path class="cls-7" d="M584.83,244.2h-41a2.77,2.77,0,0,1-2.77-2.77v-41a2.78,2.78,0,0,1,2.77-2.78h41a2.78,2.78,0,0,1,2.77,2.78v41A2.77,2.77,0,0,1,584.83,244.2Z"/><path class="cls-4" d="M398.34,320.18h-41a2.78,2.78,0,0,1-2.78-2.77v-41a2.8,2.8,0,0,1,2.78-2.78h41a2.78,2.78,0,0,1,2.77,2.78v41A2.77,2.77,0,0,1,398.34,320.18Z"/><path class="cls-4" d="M460.45,320.18h-41a2.77,2.77,0,0,1-2.77-2.77v-41a2.78,2.78,0,0,1,2.77-2.78h41a2.8,2.8,0,0,1,2.78,2.78v41A2.78,2.78,0,0,1,460.45,320.18Z"/><path class="cls-4" d="M522.57,320.18h-41a2.78,2.78,0,0,1-2.78-2.77v-41a2.8,2.8,0,0,1,2.78-2.78h41a2.78,2.78,0,0,1,2.77,2.78v41A2.77,2.77,0,0,1,522.57,320.18Z"/><path class="cls-4" d="M584.68,320.18h-41a2.77,2.77,0,0,1-2.77-2.77v-41a2.78,2.78,0,0,1,2.77-2.78h41a2.8,2.8,0,0,1,2.78,2.78v41A2.78,2.78,0,0,1,584.68,320.18Z"/><path class="cls-4" d="M398.19,396.16h-41a2.77,2.77,0,0,1-2.77-2.77v-41a2.78,2.78,0,0,1,2.77-2.78h41a2.78,2.78,0,0,1,2.77,2.78v41A2.77,2.77,0,0,1,398.19,396.16Z"/><path class="cls-4" d="M460.31,396.16h-41a2.77,2.77,0,0,1-2.78-2.77v-41a2.79,2.79,0,0,1,2.78-2.78h41a2.78,2.78,0,0,1,2.77,2.78v41A2.77,2.77,0,0,1,460.31,396.16Z"/><path class="cls-4" d="M522.42,396.16h-41a2.77,2.77,0,0,1-2.77-2.77v-41a2.78,2.78,0,0,1,2.77-2.78h41a2.78,2.78,0,0,1,2.77,2.78v41A2.77,2.77,0,0,1,522.42,396.16Z"/><path class="cls-4" d="M584.54,396.16h-41a2.77,2.77,0,0,1-2.78-2.77v-41a2.79,2.79,0,0,1,2.78-2.78h41a2.78,2.78,0,0,1,2.77,2.78v41A2.77,2.77,0,0,1,584.54,396.16Z"/><path class="cls-3" d="M398.63,565.87h-41a2.78,2.78,0,0,1-2.77-2.78v-41a2.77,2.77,0,0,1,2.77-2.77h41a2.77,2.77,0,0,1,2.77,2.77v41A2.78,2.78,0,0,1,398.63,565.87Z"/><path class="cls-3" d="M460.75,565.87h-41a2.79,2.79,0,0,1-2.78-2.78v-41a2.78,2.78,0,0,1,2.78-2.77h41a2.77,2.77,0,0,1,2.77,2.77v41A2.78,2.78,0,0,1,460.75,565.87Z"/><path class="cls-3" d="M522.86,565.87h-41a2.78,2.78,0,0,1-2.77-2.78v-41a2.77,2.77,0,0,1,2.77-2.77h41a2.77,2.77,0,0,1,2.77,2.77v41A2.78,2.78,0,0,1,522.86,565.87Z"/><path class="cls-3" d="M585,565.87h-41a2.79,2.79,0,0,1-2.78-2.78v-41a2.78,2.78,0,0,1,2.78-2.77h41a2.77,2.77,0,0,1,2.77,2.77v41A2.78,2.78,0,0,1,585,565.87Z"/><circle class="cls-4" cx="451.17" cy="473.8" r="5.55"/><circle class="cls-4" cx="471.14" cy="473.8" r="5.55"/><circle class="cls-4" cx="491.1" cy="473.8" r="5.55"/><path class="cls-8" d="M827.71,607.76H114.86a.86.86,0,1,1,0-1.72H827.71a.86.86,0,1,1,0,1.72Z"/><path class="cls-9" d="M394.64,438.45a11.23,11.23,0,0,0,0-15.87,10.24,10.24,0,0,0-1.52-1.27L404,382.93l-19.74,6.28L377,424.69a11.28,11.28,0,0,0,17.69,13.76Z"/><path class="cls-2" d="M400.25,414.92a4.79,4.79,0,0,1-1.07.09l-18.94-.38a5,5,0,0,1-4.92-5.12,4.46,4.46,0,0,1,.05-.63L394.59,279a15.91,15.91,0,0,1,15.7-13.51h0a15.84,15.84,0,0,1,15.33,19.63L412,340.32l-7.73,70.22A5,5,0,0,1,400.25,414.92Z"/><polygon class="cls-9" points="408.17 619.88 418.71 619.88 423.73 579.22 408.17 579.22 408.17 619.88"/><path class="cls-10" d="M405.48,616.44h20.77a13.24,13.24,0,0,1,13.23,13.23v.43h-34Z"/><polygon class="cls-9" points="453.12 616.46 463.6 617.63 473.12 577.78 457.65 576.05 453.12 616.46"/><path class="cls-10" d="M450.84,612.74l20.63,2.31h0a13.23,13.23,0,0,1,11.67,14.63l-.05.42-33.78-3.78Z"/><path class="cls-10" d="M398.28,393.6s-14.46,32-1.69,52.78l7.6,161.81h17.46l16.94-130.71,30.09,38.7-18.33,90.31,21.35,1.2,29.66-91.51s-22.79-100.91-30.31-103.34l-4.95-23.07Z"/><path class="cls-8" d="M391.85,421.69s-13,14.95,21.37,20.11,70.51-2.58,71.37-12.9S391.85,421.69,391.85,421.69Z"/><path class="cls-9" d="M564.27,236.33a10,10,0,0,1-10.35,9.61,9.31,9.31,0,0,1-1.74-.22l-13,18.75-13.32-5.12,18.73-26.22a10,10,0,0,1,19.68,3.2Z"/><path class="cls-2" d="M454.31,260.45l-18.38-8.31-23.55,1.68s-28.4,33.2-17.22,65l-6.88,110.93c43.86,12,63.79-10.54,95.45-.86L474,305.62Z"/><path class="cls-2" d="M442,268.53l12.28-8.08s17.07-2.58,23.89,4c0,0,23.15,1.94,28.75,7.72l6.15,1.39,20.46-26.49,12.51,6.8-18.05,49L474,305.62Z"/><circle class="cls-9" cx="432.35" cy="217.35" r="29.02" transform="translate(-51.27 234.01) rotate(-28.66)"/><path class="cls-10" d="M407.25,194.66c5.18-9.31,11.65-15.35,22.31-15.13s19.87-.2,24.67,9.32a15.74,15.74,0,0,0,1.84-7.72A8.83,8.83,0,0,1,460,190a6.45,6.45,0,0,0,3.19-5.3c3.56,1.18,4.48,6.2,2.68,9.48s-5.33,5.19-8.71,6.8-1.82,10.11-4,13.13c-1.54,2.12-2.24,4.71-3.28,7.11a.52.52,0,0,1-.22.22,6.25,6.25,0,0,0-3.46,6.4,1.06,1.06,0,0,1,0,.61c-3,5.68-6.27,11.63-11.74,15a19.5,19.5,0,0,1-14.64,2.26c-5.59-1.34-10.43-5-13.91-9.62a48.83,48.83,0,0,1-7.42-15.47c-1.49-4.88-2.58-10.09-1.39-15s5.2-9.56,10.28-9.94"/></svg>