<svg id="Layer_1" data-name="Layer 1" xmlns="http://www.w3.org/2000/svg" viewBox="0 0 511 478.13"><defs><style>.cls-1{fill:#fff;}</style></defs><path class="cls-1" d="M246.88,194.84a7.56,7.56,0,0,0,11.39-1.29l49.82-75.19a7.49,7.49,0,1,0-12.48-8.27l-44.89,67.75-24.95-23.68A7.48,7.48,0,1,0,215.46,165Z" transform="translate(0 -16.97)"/><path class="cls-1" d="M252,309a11,11,0,0,0,4.59,1h.06a10.8,10.8,0,0,0,4.65-1.06C375.1,254.82,394.39,138,397.59,103.52a17.89,17.89,0,0,0-11-18.26,65.41,65.41,0,0,1-40.2-54.9A14.78,14.78,0,0,0,331.68,17h-.09l-153.35.9a14.66,14.66,0,0,0-14.6,13.66A65.43,65.43,0,0,1,124,86.83a17.82,17.82,0,0,0-10.76,18.35C116.87,139.65,137.53,256.22,252,309ZM129.92,100.59a80.32,80.32,0,0,0,48.63-67.76l152.91-.89a80.36,80.36,0,0,0,49.35,67.15,3,3,0,0,1,1.87,3c-3,32.34-21,141.38-126.14,192.48-105.78-49.86-125-158.69-128.38-191A2.94,2.94,0,0,1,129.92,100.59Z" transform="translate(0 -16.97)"/><path class="cls-1" d="M148.61,142.09c.9,3.33,5.12,6.38,9.19,5.26a7.51,7.51,0,0,0,5.26-9.19c-1.91-7-3.51-14.14-4.77-21.2a105.32,105.32,0,0,0,42.83-56.13l108.1-.64a105.25,105.25,0,0,0,43.48,55.63c-1.17,7.07-2.69,14.22-4.52,21.27a7.49,7.49,0,0,0,14.5,3.76c2.14-8.29,3.89-16.69,5.18-25a11.44,11.44,0,0,0-5.39-11.61,90.33,90.33,0,0,1-39.73-50.92,11.58,11.58,0,0,0-11-8.12h-.07l-113.18.66a11.58,11.58,0,0,0-11,8.25,90.34,90.34,0,0,1-39.13,51.39,11.44,11.44,0,0,0-5.26,11.67C144.53,125.46,146.37,133.84,148.61,142.09Z" transform="translate(0 -16.97)"/><path class="cls-1" d="M347.55,164.28a7.49,7.49,0,0,0-9.78,4.07c-17.3,41.92-44.68,73.8-81.41,94.78-37-20.58-64.8-52.18-82.59-94A7.48,7.48,0,1,0,160,175c19.41,45.6,50,80,90.89,102.18a11.49,11.49,0,0,0,11.1-.06c40.59-22.65,70.75-57.33,89.62-103.09A7.48,7.48,0,0,0,347.55,164.28Z" transform="translate(0 -16.97)"/><path class="cls-1" d="M48,400a26.49,26.49,0,1,0,26.48,26.48A26.52,26.52,0,0,0,48,400Zm0,38a11.52,11.52,0,1,1,11.51-11.52A11.54,11.54,0,0,1,48,438Z" transform="translate(0 -16.97)"/><path class="cls-1" d="M505.63,326.71a31.18,31.18,0,0,0-43.06-8.33l-97.85,65.49-20.89-1.17-.54-5.35a45.41,45.41,0,0,0-38.93-40.58l-.4,0-105.44-9.24c-3.57-.56-15-3.84-46.36-21.83A116.51,116.51,0,0,0,98.81,290.3V270.72A17.84,17.84,0,0,0,81,252.9H17.82A17.84,17.84,0,0,0,0,270.72V463.59a17.85,17.85,0,0,0,17.82,17.82H81a17.85,17.85,0,0,0,17.82-17.82v-5.32L191,493.18c.2.07,7.69,2.87,21.45,1.57l153.15-22.07.11,0a75.31,75.31,0,0,0,35.69-16l.28-.24,98.91-89A31.19,31.19,0,0,0,505.63,326.71Zm-15,29.6-98.81,88.87a60.34,60.34,0,0,1-28.39,12.69l-153,22.06-.13,0h-.08a33.49,33.49,0,0,1-14.17-.91L98.81,442.26V356.78a7.49,7.49,0,1,0-15,0V463.59A2.85,2.85,0,0,1,81,466.43H17.82A2.85,2.85,0,0,1,15,463.59V270.72a2.86,2.86,0,0,1,2.85-2.85H81a2.86,2.86,0,0,1,2.85,2.85V323a7.49,7.49,0,0,0,15,0V305.29a101.24,101.24,0,0,1,45.9,13.35c37.84,21.7,48.41,23.2,51.89,23.69l.39.05,105.45,9.24a30.5,30.5,0,0,1,26,27.21l.39,4-141.18,8.72-.28,0a17.07,17.07,0,0,1-11.64-6.1,7.49,7.49,0,0,0-11.5,9.59A32.4,32.4,0,0,0,186,406.43c4.62.48,151-9.12,151-9.12L366.38,399a7.45,7.45,0,0,0,4.58-1.25l100-66.9a16.14,16.14,0,0,1,19.68,25.5Z" transform="translate(0 -16.97)"/></svg>