<svg id="Layer_1" data-name="Layer 1" xmlns="http://www.w3.org/2000/svg" xmlns:xlink="http://www.w3.org/1999/xlink" viewBox="0 0 1024 1024"><defs><style>.cls-1{fill:#fafafa;}.cls-2{fill:#e6e6e6;}.cls-3{fill:#ccc;}.cls-4{fill:#3f3d56;}.cls-5{fill:red;}.cls-6{fill:#fff;}.cls-7{fill:#ffb8b8;}.cls-8{fill:url(#linear-gradient);}.cls-9{fill:#2f2e41;}.cls-10{fill:url(#linear-gradient-2);}.cls-11{fill:url(#linear-gradient-3);}.cls-12{fill:url(#linear-gradient-4);}.cls-13{opacity:0.1;isolation:isolate;}</style><linearGradient id="linear-gradient" x1="279.7" y1="227.49" x2="328.89" y2="227.49" gradientTransform="matrix(1, 0, 0, -1, -47.16, 882.83)" gradientUnits="userSpaceOnUse"><stop offset="0" stop-color="#f06d06"/><stop offset="1" stop-color="red"/></linearGradient><linearGradient id="linear-gradient-2" x1="298.63" y1="257.89" x2="372.11" y2="257.89" xlink:href="#linear-gradient"/><linearGradient id="linear-gradient-3" x1="333.72" y1="245.96" x2="434.6" y2="245.96" xlink:href="#linear-gradient"/><linearGradient id="linear-gradient-4" x1="604.54" y1="86.11" x2="896.31" y2="86.11" xlink:href="#linear-gradient"/></defs><g id="Component_2_5" data-name="Component 2 5"><path id="Path_180" data-name="Path 180" class="cls-1" d="M85.43,156.58c228-99.1,1164.76-159.52,877,468.09s-775.85,0-775.85,0S-142.58,255.72,85.43,156.58Z"/></g><path class="cls-2" d="M251.75,429.58a8.06,8.06,0,0,0,0,16.12H353.08v-3.51a15.09,15.09,0,0,1,6.79-12.61Z"/><path class="cls-2" d="M344,411.44H309.68a8.06,8.06,0,1,1,0-16.12H344a8.06,8.06,0,1,1,0,16.12Z"/><path class="cls-2" d="M267.12,354h-133a8.06,8.06,0,0,1-.51-16.12H267.12a8.06,8.06,0,0,1,.51,16.12Z"/><path class="cls-2" d="M209.17,319.72H192a8.07,8.07,0,0,1,0-16.13h17.13a8.07,8.07,0,0,1,0,16.13Z"/><path class="cls-3" d="M352.07,591.72H226.68a17.14,17.14,0,0,1-17.14-17.14V376.23a17.14,17.14,0,0,1,17.14-17.14H427a17.14,17.14,0,0,1,17.14,17.14v49.16h-2V376.23A15.11,15.11,0,0,0,427,361.12H226.68a15.12,15.12,0,0,0-15.12,15.11V574.59a15.13,15.13,0,0,0,15.12,15.11H352.07Z"/><path class="cls-3" d="M210.55,473h-91.4A17.14,17.14,0,0,1,102,455.83h0V294.55a17.14,17.14,0,0,1,17.14-17.14H282.07a17.14,17.14,0,0,1,17.14,17.14V360.1h-2V294.55a15.13,15.13,0,0,0-15.12-15.12H119.14A15.13,15.13,0,0,0,104,294.55V455.84A15.13,15.13,0,0,0,119.14,471h91.41Z"/><path class="cls-2" d="M618.55,429.58a15.09,15.09,0,0,1,6.79,12.61v3.51H726.68a8.06,8.06,0,1,0,0-16.12Z"/><path class="cls-2" d="M626.4,403.38a8.08,8.08,0,0,1,8.07-8.06h34.27a8.06,8.06,0,1,1,0,16.12H634.47A8.08,8.08,0,0,1,626.4,403.38Z"/><path class="cls-2" d="M703.25,345.94a8.07,8.07,0,0,1,8.06-8.06h133a8.06,8.06,0,1,1,.51,16.12H711.31A8.07,8.07,0,0,1,703.25,345.94Z"/><path class="cls-2" d="M761.19,311.68a8.08,8.08,0,0,1,8.06-8.07h17.14a8.07,8.07,0,0,1,0,16.13H769.25A8.06,8.06,0,0,1,761.19,311.68Z"/><path class="cls-3" d="M626.36,591.72H751.75a17.14,17.14,0,0,0,17.14-17.14V376.23a17.14,17.14,0,0,0-17.14-17.14H551.45a17.14,17.14,0,0,0-17.14,17.14v49.16h2V376.23a15.12,15.12,0,0,1,15.11-15.11H751.75a15.12,15.12,0,0,1,15.12,15.11V574.59a15.13,15.13,0,0,1-15.12,15.11H626.36Z"/><path class="cls-3" d="M767.87,473h91.4a17.14,17.14,0,0,0,17.14-17.14h0V294.55a17.14,17.14,0,0,0-17.14-17.14H696.36a17.14,17.14,0,0,0-17.14,17.14V360.1h2V294.55a15.13,15.13,0,0,1,15.12-15.12H859.28a15.13,15.13,0,0,1,15.12,15.12V455.84A15.13,15.13,0,0,1,859.28,471h-91.4Z"/><path class="cls-4" d="M609.81,425.06H368.2a17.13,17.13,0,0,0-17.14,17.13h0V681.5a17.14,17.14,0,0,0,17.14,17.14H609.81a17.13,17.13,0,0,0,17.13-17.14h0V442.19A17.12,17.12,0,0,0,609.81,425.06ZM624.92,681.5a15.13,15.13,0,0,1-15.11,15.12H368.2a15.13,15.13,0,0,1-15.12-15.12V442.19a15.16,15.16,0,0,1,15.12-15.12H609.81a15.13,15.13,0,0,1,15.11,15.12Z"/><path class="cls-3" d="M590.78,518.26H387.23a8.07,8.07,0,1,1,0-16.13H590.78a8.07,8.07,0,1,1,0,16.13Z"/><path class="cls-5" d="M532.83,484H445.17a8.06,8.06,0,1,1-.51-16.11h88.17a8.06,8.06,0,1,1,.52,16.11Z"/><path class="cls-3" d="M474.39,566.63H386.7a8.07,8.07,0,1,1,0-16.13h87.69a8.07,8.07,0,1,1,0,16.13Z"/><path class="cls-3" d="M474.39,601.89H386.7a8.07,8.07,0,1,1,0-16.13h87.69a8.06,8.06,0,0,1,0,16.12Z"/><path class="cls-3" d="M474.39,637.17H386.7a8.06,8.06,0,0,1-.52-16.12h88.21a8.06,8.06,0,0,1,0,16.12Z"/><circle id="fc69f6bd-6aec-467a-b158-496b315f473e" class="cls-5" cx="583.75" cy="558.52" r="15.04"/><path id="f31c0d86-d70b-4e63-97a7-2fc94b4d7c12" class="cls-6" d="M582.24,564.23a1.58,1.58,0,0,1-.94-.31h0l-3.53-2.71a1.57,1.57,0,1,1,1.91-2.49l2.29,1.76,5.41-7.06a1.55,1.55,0,0,1,2.19-.3h0v0a1.59,1.59,0,0,1,.3,2.21l-6.37,8.3a1.6,1.6,0,0,1-1.26.61Z"/><circle id="a6907563-545c-4a91-99f2-6d7f4e57ba01" class="cls-5" cx="583.75" cy="593.78" r="15.04"/><path id="f071b9ad-7606-418c-8652-2e0910ae4e99" class="cls-6" d="M582.24,599.5a1.58,1.58,0,0,1-.94-.31h0l-3.53-2.7a1.58,1.58,0,0,1,1.91-2.5l2.29,1.77,5.41-7.07a1.57,1.57,0,0,1,2.2-.29h0v0a1.59,1.59,0,0,1,.3,2.21l-6.37,8.3a1.65,1.65,0,0,1-1.26.61Z"/><circle id="a9a7744d-510c-41c6-a641-cf6a8a976d00" class="cls-5" cx="583.75" cy="629.13" r="15.04"/><path id="ee4f98ac-d41c-4601-9f0c-7c3b6a7a76ac" class="cls-6" d="M582.24,634.85a1.66,1.66,0,0,1-.94-.32h0l-3.53-2.71a1.57,1.57,0,0,1,0-2.22,1.59,1.59,0,0,1,1.89-.23l2.29,1.75,5.41-7a1.58,1.58,0,0,1,2.2-.3h0v0a1.59,1.59,0,0,1,.3,2.21l-6.37,8.3a1.57,1.57,0,0,1-1.26.61Z"/><path class="cls-7" d="M228.8,735.49a10.14,10.14,0,0,1,5-13.43l0,0a10.11,10.11,0,0,1,1.68-.58l3.06-35.91,14.69,11.59-5.15,32.3a10.19,10.19,0,0,1-19.33,6Z"/><path class="cls-8" d="M238.25,717.72a4.53,4.53,0,0,1-3.93-4.3l-1.7-40.72a89.59,89.59,0,0,1,8.68-42.43l15.08-31.61a13.48,13.48,0,0,1,10.16-7.06,13,13,0,0,1,11.32,4,16.1,16.1,0,0,1,1.94,2.5,13.06,13.06,0,0,1,.69,12.4L257.36,673.7l-1.78,41.16a4.53,4.53,0,0,1-4.73,4.34h-.33l-12.2-1.46Z"/><polygon class="cls-7" points="194.98 895.63 206.29 900.6 230.83 859.32 214.14 852 194.98 895.63"/><polygon class="cls-7" points="346.86 909.36 359.21 909.36 365.09 861.71 346.86 861.71 346.86 909.36"/><path class="cls-9" d="M222.42,895.81a4.45,4.45,0,0,1-1.4-.22l-21-6.73a4.56,4.56,0,0,1-2.94-5.65l69.46-221.16,52-10.2.18.3c34.43,55.93,45.85,141.44,53.2,232a4.56,4.56,0,0,1-4.08,4.9L345,891.37a4.52,4.52,0,0,1-4.85-3.33L298.24,739.69a1.51,1.51,0,0,0-2.85-.2L226.57,893.07A4.51,4.51,0,0,1,222.42,895.81Z"/><circle class="cls-7" cx="293.48" cy="548.68" r="24.75"/><path class="cls-10" d="M262.16,668.56l-.16-.35c-.12-.25-11.52-24.44-10.46-52.34a35.9,35.9,0,0,1,35.18-34.54h0a35.9,35.9,0,0,1,35.91,29c3.17,16.22,3.09,31.58-.24,45.7l-.07.31-.32.06Z"/><path class="cls-7" d="M388.33,703.48A10.14,10.14,0,0,1,379.78,692a10.5,10.5,0,0,1,.42-1.74l-28.51-22,17.71-6.07L393.76,684a10.19,10.19,0,0,1-5.43,19.53Z"/><path class="cls-11" d="M318.4,655l-.07-.11L288.28,606.2a13.54,13.54,0,0,1-.44-12.37,13,13,0,0,1,9.51-7.34h0a16.72,16.72,0,0,1,3.16-.27,13,13,0,0,1,10.79,6.13L351.89,646l33.64,23.81a4.54,4.54,0,0,1,1.09,6.32l-.22.27-7.83,9.47a4.52,4.52,0,0,1-5.79,1Z"/><path class="cls-9" d="M289.05,547.15c1.82-3,5.85-3.85,9.35-3.51s6.88,1.58,10.4,1.54c9.75-.07,17.28-11.95,13.17-20.8-3.36-7.25-11.76-10.44-19.35-12.94-15.93-5.25-34.21-10.28-48.67-1.78a30.27,30.27,0,0,0-14.56,26.93c.33,6.69,2.89,13.56.72,19.9-2.5,7.34-10.42,11.23-17.91,13.13-13.13,3.33-27,2.79-40.19,5.77s-26.75,10.92-30.35,24c-2.34,8.58.1,17.82,4.14,25.74a66.69,66.69,0,0,0,89.72,29.11,35.94,35.94,0,0,0,3.33-1.81c16-9.32,27.5-25.09,34.38-42.26a141.6,141.6,0,0,0,8.16-31.09c1.55-10,.24-20-2.55-29.7A2.68,2.68,0,0,1,289.05,547.15Z"/><path class="cls-4" d="M704.15,962.33a61,61,0,0,1-15.21-2l-1-.27-.91-.46C654.21,943.15,626.5,921.4,604.7,895a244.55,244.55,0,0,1-41.57-73.83,283.86,283.86,0,0,1-16.07-100.08v-1.64c0-16.55,9.19-31.09,23.41-37,10.89-4.54,109.72-45.13,116.87-48.07,13.45-6.74,27.8-1.11,30.09-.13,5.15,2.11,96.53,39.48,116.27,48.88,20.35,9.69,25.78,27.1,25.78,35.86,0,39.65-6.87,76.71-20.4,110.17A254.9,254.9,0,0,1,793.24,903c-37.41,42.11-74.84,57-75.2,57.16A40.51,40.51,0,0,1,704.15,962.33Zm-8.8-21.8c3.26.73,10.71,1.82,15.58,0,6.19-2.26,37.54-18.5,66.78-51.41,40.44-45.51,61-102.73,61-170-.08-1.37-1.05-11.09-13.92-17.22-19.37-9.18-114.35-48.05-115.3-48.44l-.26-.1c-2-.82-8.33-2.6-12.69-.31l-.87.4c-1.07.44-106,43.53-117.18,48.19-7.82,3.27-10.61,11.35-10.61,17.83v2.05C567,767.53,577.61,880.88,695.35,940.53Z"/><path class="cls-12" d="M691.71,643.79S585.82,687.27,574.49,692s-17,16.07-17,27.42-8.51,159.35,134.23,231c0,0,13,3.58,22.78,0S849.15,886.28,849.15,719c0,0,0-17-19.86-26.48s-115.83-48.68-115.83-48.68S701.64,638.59,691.71,643.79Z"/><path class="cls-13" d="M703.05,677.82v232S596.23,858.38,597.18,723.2Z"/><polygon class="cls-6" points="704.45 844.54 670.42 800.79 690.21 785.4 706.32 806.12 760.75 748.66 778.95 765.9 704.45 844.54"/><path id="Path_55" data-name="Path 55" class="cls-9" d="M183.77,910l5.4-15.13,23,8.22A15.57,15.57,0,0,1,221.59,923h0l-.18.48Z"/><path id="Path_57" data-name="Path 57" class="cls-9" d="M340.89,908.26H365.3a15.55,15.55,0,0,1,15.55,15.55h0v.59h-40Z"/></svg>