<svg id="Layer_1" data-name="Layer 1" xmlns="http://www.w3.org/2000/svg" xmlns:xlink="http://www.w3.org/1999/xlink" viewBox="0 0 948.92 839.28"><defs><style>.cls-1{fill:#e6e6e6;}.cls-2{fill:#ccc;}.cls-3{fill:#3f3d56;}.cls-4{fill:red;}.cls-5{fill:#fff;}.cls-6{fill:#ffb8b8;}.cls-7{fill:url(#linear-gradient);}.cls-8{fill:#2f2e41;}.cls-9{fill:url(#linear-gradient-2);}.cls-10{fill:url(#linear-gradient-3);}.cls-11{fill:url(#linear-gradient-4);}.cls-12{opacity:0.1;isolation:isolate;}</style><linearGradient id="linear-gradient" x1="207.1" y1="604.28" x2="267.39" y2="604.28" gradientUnits="userSpaceOnUse"><stop offset="0" stop-color="#f06d06"/><stop offset="1" stop-color="red"/></linearGradient><linearGradient id="linear-gradient-2" x1="230.3" y1="567.01" x2="320.35" y2="567.01" xlink:href="#linear-gradient"/><linearGradient id="linear-gradient-3" x1="273.29" y1="581.62" x2="396.92" y2="581.62" xlink:href="#linear-gradient"/><linearGradient id="linear-gradient-4" x1="605.15" y1="777.49" x2="962.62" y2="777.49" xlink:href="#linear-gradient"/></defs><path class="cls-1" d="M230.64,327.62a9.88,9.88,0,0,0,0,19.76H354.81v-4.31a18.52,18.52,0,0,1,8.32-15.45Z" transform="translate(-47.16 -141.17)"/><path class="cls-1" d="M343.63,305.4h-42a9.88,9.88,0,0,1,0-19.76h42a9.88,9.88,0,0,1,0,19.76Z" transform="translate(-47.16 -141.17)"/><path class="cls-1" d="M249.47,235h-163a9.88,9.88,0,1,1,0-19.75h163a9.88,9.88,0,1,1,0,19.75Z" transform="translate(-47.16 -141.17)"/><path class="cls-1" d="M178.47,193h-21a9.88,9.88,0,0,1,0-19.76h21a9.88,9.88,0,0,1,0,19.76Z" transform="translate(-47.16 -141.17)"/><path class="cls-2" d="M353.57,526.3H199.92a21,21,0,0,1-21-21V262.25a21,21,0,0,1,21-21H445.36a21,21,0,0,1,21,21v60.24h-2.47V262.25a18.53,18.53,0,0,0-18.52-18.52H199.92a18.55,18.55,0,0,0-18.53,18.52V505.31a18.55,18.55,0,0,0,18.53,18.52H353.57Z" transform="translate(-47.16 -141.17)"/><path class="cls-2" d="M180.16,380.79h-112a21,21,0,0,1-21-21V162.16a21,21,0,0,1,21-21H267.8a21,21,0,0,1,21,21v80.33h-2.47V162.16a18.54,18.54,0,0,0-18.52-18.52H68.15a18.54,18.54,0,0,0-18.52,18.52V359.8a18.54,18.54,0,0,0,18.52,18.52h112Z" transform="translate(-47.16 -141.17)"/><path class="cls-1" d="M680.11,327.62a18.52,18.52,0,0,1,8.32,15.45v4.31H812.6a9.88,9.88,0,0,0,0-19.76Z" transform="translate(-47.16 -141.17)"/><path class="cls-1" d="M689.73,295.52a9.9,9.9,0,0,1,9.88-9.88h42a9.88,9.88,0,0,1,0,19.76h-42A9.9,9.9,0,0,1,689.73,295.52Z" transform="translate(-47.16 -141.17)"/><path class="cls-1" d="M783.89,225.14a9.89,9.89,0,0,1,9.88-9.88h163a9.88,9.88,0,1,1,0,19.75h-163A9.89,9.89,0,0,1,783.89,225.14Z" transform="translate(-47.16 -141.17)"/><path class="cls-1" d="M854.89,183.15a9.9,9.9,0,0,1,9.88-9.88h21a9.88,9.88,0,0,1,0,19.76h-21A9.89,9.89,0,0,1,854.89,183.15Z" transform="translate(-47.16 -141.17)"/><path class="cls-2" d="M689.67,526.3H843.33a21,21,0,0,0,21-21V262.25a21,21,0,0,0-21-21H597.88a21,21,0,0,0-21,21v60.24h2.47V262.25a18.54,18.54,0,0,1,18.52-18.52H843.33a18.54,18.54,0,0,1,18.52,18.52V505.31a18.54,18.54,0,0,1-18.52,18.52H689.67Z" transform="translate(-47.16 -141.17)"/><path class="cls-2" d="M863.08,380.79h112a21,21,0,0,0,21-21V162.16a21,21,0,0,0-21-21H775.45a21,21,0,0,0-21,21v80.33h2.47V162.16a18.55,18.55,0,0,1,18.53-18.52H975.09a18.54,18.54,0,0,1,18.52,18.52V359.8a18.54,18.54,0,0,1-18.52,18.52h-112Z" transform="translate(-47.16 -141.17)"/><path class="cls-3" d="M669.39,322.08H373.33a21,21,0,0,0-21,21V636.32a21,21,0,0,0,21,21H669.39a21,21,0,0,0,21-21V343.07A21,21,0,0,0,669.39,322.08Zm18.52,314.24a18.55,18.55,0,0,1-18.52,18.53H373.33a18.55,18.55,0,0,1-18.52-18.53V343.07a18.56,18.56,0,0,1,18.52-18.52H669.39a18.54,18.54,0,0,1,18.52,18.52Z" transform="translate(-47.16 -141.17)"/><path class="cls-2" d="M646.08,436.29H396.65a9.88,9.88,0,0,1,0-19.76H646.08a9.88,9.88,0,0,1,0,19.76Z" transform="translate(-47.16 -141.17)"/><path class="cls-4" d="M575.07,394.3H467.65a9.88,9.88,0,1,1,0-19.75H575.07a9.88,9.88,0,1,1,0,19.75Z" transform="translate(-47.16 -141.17)"/><path class="cls-2" d="M503.46,495.56H396a9.88,9.88,0,0,1,0-19.76H503.46a9.88,9.88,0,0,1,0,19.76Z" transform="translate(-47.16 -141.17)"/><path class="cls-2" d="M503.46,538.77H396A9.88,9.88,0,1,1,396,519H503.46a9.88,9.88,0,0,1,0,19.75Z" transform="translate(-47.16 -141.17)"/><path class="cls-2" d="M503.46,582H396a9.88,9.88,0,1,1,0-19.75H503.46a9.88,9.88,0,0,1,0,19.75Z" transform="translate(-47.16 -141.17)"/><circle id="fc69f6bd-6aec-467a-b158-496b315f473e" class="cls-4" cx="637.44" cy="485.59" r="18.43" transform="translate(8.85 895.85) rotate(-80.78)"/><path id="f31c0d86-d70b-4e63-97a7-2fc94b4d7c12" class="cls-5" d="M635.61,492.62a1.91,1.91,0,0,1-1.15-.38h0l-4.33-3.32a1.92,1.92,0,1,1,2.34-3.05l2.81,2.15,6.63-8.65a1.92,1.92,0,0,1,2.7-.36h0l0,.06,0-.06a1.94,1.94,0,0,1,.36,2.7l-7.8,10.17a1.94,1.94,0,0,1-1.54.75Z" transform="translate(-47.16 -141.17)"/><circle id="a6907563-545c-4a91-99f2-6d7f4e57ba01" class="cls-4" cx="637.44" cy="528.81" r="18.43" transform="translate(-33.81 932.14) rotate(-80.78)"/><path id="f071b9ad-7606-418c-8652-2e0910ae4e99" class="cls-5" d="M635.61,535.84a1.91,1.91,0,0,1-1.15-.38l0,0-4.33-3.31a1.93,1.93,0,0,1,2.34-3.06l2.81,2.16,6.63-8.66a1.93,1.93,0,0,1,2.7-.35h0l0,.06,0-.06a1.94,1.94,0,0,1,.36,2.7l-7.8,10.17a2,2,0,0,1-1.54.75Z" transform="translate(-47.16 -141.17)"/><circle id="a9a7744d-510c-41c6-a641-cf6a8a976d00" class="cls-4" cx="637.44" cy="572.11" r="18.43" transform="translate(-76.55 968.51) rotate(-80.78)"/><path id="ee4f98ac-d41c-4601-9f0c-7c3b6a7a76ac" class="cls-5" d="M635.61,579.15a1.92,1.92,0,0,1-1.15-.39h0l-4.33-3.32a1.92,1.92,0,0,1,2.34-3l2.81,2.15,6.63-8.65a1.94,1.94,0,0,1,2.7-.36h0l0,.06,0-.06a1.94,1.94,0,0,1,.36,2.7l-7.8,10.17a1.91,1.91,0,0,1-1.54.75Z" transform="translate(-47.16 -141.17)"/><path class="cls-6" d="M202.52,702.48A12.42,12.42,0,0,1,208.71,686a12.26,12.26,0,0,1,2.06-.72l3.75-44,18,14.2-6.32,39.58a12.48,12.48,0,0,1-23.68,7.35Z" transform="translate(-47.16 -141.17)"/><path class="cls-7" d="M214.1,680.7a5.55,5.55,0,0,1-4.82-5.27l-2.08-49.89a110,110,0,0,1,10.63-52l18.48-38.73a16.55,16.55,0,0,1,12.46-8.65,15.89,15.89,0,0,1,13.87,4.92,20.1,20.1,0,0,1,2.37,3.07,16,16,0,0,1,.85,15.19l-28.34,77.42-2.18,50.44a5.56,5.56,0,0,1-5.8,5.31l-.41,0-14.95-1.79Z" transform="translate(-47.16 -141.17)"/><polygon class="cls-6" points="113.92 757.53 127.78 763.62 157.85 713.04 137.39 704.07 113.92 757.53"/><polygon class="cls-6" points="300.02 774.36 315.16 774.36 322.36 715.97 300.02 715.97 300.02 774.36"/><path class="cls-8" d="M194.7,898.93a5.51,5.51,0,0,1-1.71-.27l-25.67-8.25a5.58,5.58,0,0,1-3.61-6.92l85.12-271,63.76-12.51.22.37C355,668.89,369,773.67,378,884.68a5.58,5.58,0,0,1-5,6l-28.06,2.81A5.54,5.54,0,0,1,339,889.4L287.61,707.62a1.85,1.85,0,0,0-3.49-.24L199.79,895.57A5.53,5.53,0,0,1,194.7,898.93Z" transform="translate(-47.16 -141.17)"/><circle class="cls-6" cx="234.61" cy="332.4" r="30.33"/><path class="cls-9" d="M243.4,620.46l-.2-.43c-.15-.3-14.12-29.94-12.82-64.13a44,44,0,0,1,43.11-42.33h0a44,44,0,0,1,44,35.56c3.89,19.88,3.79,38.7-.29,56l-.09.38-.39.08Z" transform="translate(-47.16 -141.17)"/><path class="cls-6" d="M398,663.25a12.43,12.43,0,0,1-10.47-14.1,13,13,0,0,1,.51-2.13l-34.93-27,21.69-7.44,29.85,26.74A12.49,12.49,0,0,1,398,663.25Z" transform="translate(-47.16 -141.17)"/><path class="cls-10" d="M312.31,603.81l-.08-.13L275.4,544.05a16.59,16.59,0,0,1-.53-15.16,15.89,15.89,0,0,1,11.65-9h0a20.93,20.93,0,0,1,3.87-.33,15.91,15.91,0,0,1,13.22,7.52l49.74,65.75L394.57,622a5.57,5.57,0,0,1,1.33,7.75l-.26.33-9.6,11.6a5.54,5.54,0,0,1-7.09,1.26Z" transform="translate(-47.16 -141.17)"/><path class="cls-8" d="M276.35,471.69c2.23-3.68,7.16-4.72,11.45-4.3s8.44,1.93,12.75,1.89c11.94-.09,21.17-14.65,16.14-25.49-4.12-8.89-14.41-12.8-23.71-15.86-19.52-6.43-41.93-12.6-59.64-2.18a37.06,37.06,0,0,0-17.84,33c.4,8.2,3.54,16.62.88,24.38-3.06,9-12.77,13.77-21.95,16.09-16.09,4.08-33.06,3.42-49.25,7.08S112.4,519.68,108,535.7c-2.87,10.52.12,21.84,5.07,31.55a81.73,81.73,0,0,0,109.94,35.67q2.07-1,4.08-2.22c19.57-11.43,33.7-30.75,42.13-51.79a173.75,173.75,0,0,0,10-38.09c1.89-12.2.29-24.54-3.13-36.4A3.3,3.3,0,0,1,276.35,471.69Z" transform="translate(-47.16 -141.17)"/><path class="cls-3" d="M785,980.44A75.1,75.1,0,0,1,766.36,978l-1.2-.33-1.12-.56c-40.24-20.18-74.19-46.83-100.9-79.21a299.75,299.75,0,0,1-50.95-90.47A347.93,347.93,0,0,1,592.5,684.79c0-.87,0-1.55,0-2,0-20.29,11.26-38.1,28.69-45.36,13.34-5.56,134.45-55.3,143.21-58.9,16.48-8.26,34.06-1.36,36.87-.16,6.31,2.58,118.28,48.38,142.47,59.9,24.94,11.87,31.59,33.2,31.59,43.94,0,48.58-8.41,94-25,135a312.33,312.33,0,0,1-56.16,90.51c-45.85,51.6-91.71,69.89-92.15,70.05A49.9,49.9,0,0,1,785,980.44Zm-10.79-26.71c4,.89,13.13,2.23,19.1,0,7.58-2.77,46-22.67,81.83-63,49.55-55.77,74.7-125.88,74.74-208.37-.09-1.68-1.28-13.6-17.06-21.11C909.09,650,792.71,602.38,791.54,601.9l-.32-.13c-2.44-1-10.2-3.18-15.55-.38l-1.07.5c-1.3.54-129.87,53.34-143.58,59.05-9.59,4-13,13.9-13,21.84,0,.57,0,1.42,0,2.51C616.88,741.74,629.94,880.63,774.21,953.73Z" transform="translate(-47.16 -141.17)"/><path class="cls-11" d="M769.75,590.11S640,643.39,626.12,649.18s-20.85,19.69-20.85,33.6-10.43,195.27,164.48,283c0,0,15.88,4.39,27.92,0s165-78.53,165-283.55c0,0,0-20.85-24.33-32.44s-141.93-59.65-141.93-59.65S781.92,583.74,769.75,590.11Z" transform="translate(-47.16 -141.17)"/><path class="cls-12" d="M783.65,631.81V916.06s-130.89-63-129.73-228.65Z" transform="translate(-47.16 -141.17)"/><polygon class="cls-5" points="738.2 694.93 696.5 641.32 720.75 622.46 740.5 647.85 807.19 577.44 829.49 598.57 738.2 694.93"/></svg>