<svg id="outline" xmlns="http://www.w3.org/2000/svg" viewBox="0 0 480 368"><defs><style>.cls-1{fill:#fff;}</style></defs><path class="cls-1" d="M488,72H136a8,8,0,0,0-8,8V312a8,8,0,0,0,8,8H352v72H320v16H448v16H320v16H456a8,8,0,0,0,8-8V320h24a8,8,0,0,0,8-8V80A8,8,0,0,0,488,72Zm-8,16v32H144V88ZM368,320h16v16a8,8,0,0,0,16,0V320h16v72H368Zm80,72H432V320h16ZM144,304V136H480V304Z" transform="translate(-16 -72)"/><path class="cls-1" d="M56,440H264a40.05,40.05,0,0,0,40-40,8,8,0,0,0-8-8H264V336H248v56H72V256h40V240H64a8,8,0,0,0-8,8V392H24a8,8,0,0,0-8,8A40.05,40.05,0,0,0,56,440Zm76.69-32,5.65,5.66A8,8,0,0,0,144,416h32a8,8,0,0,0,5.66-2.34l5.65-5.66h99.32A24,24,0,0,1,264,424H56a24,24,0,0,1-22.63-16Z" transform="translate(-16 -72)"/><circle class="cls-1" cx="144" cy="32" r="8"/><circle class="cls-1" cx="168" cy="32" r="8"/><circle class="cls-1" cx="192" cy="32" r="8"/><path class="cls-1" d="M160,152h24v16H160Z" transform="translate(-16 -72)"/><path class="cls-1" d="M208,152h56v16H208Z" transform="translate(-16 -72)"/><path class="cls-1" d="M280,152h24v16H280Z" transform="translate(-16 -72)"/><path class="cls-1" d="M160,192h24v16H160Z" transform="translate(-16 -72)"/><path class="cls-1" d="M208,192h32v16H208Z" transform="translate(-16 -72)"/><path class="cls-1" d="M256,192h48v16H256Z" transform="translate(-16 -72)"/><path class="cls-1" d="M160,232h24v16H160Z" transform="translate(-16 -72)"/><path class="cls-1" d="M208,232h96v16H208Z" transform="translate(-16 -72)"/><path class="cls-1" d="M160,272h24v16H160Z" transform="translate(-16 -72)"/><path class="cls-1" d="M208,272h32v16H208Z" transform="translate(-16 -72)"/><path class="cls-1" d="M256,272h48v16H256Z" transform="translate(-16 -72)"/><path class="cls-1" d="M354.34,186.34l-24,24a8,8,0,0,0,0,11.32l24,24,11.32-11.32L347.31,216l18.35-18.34Z" transform="translate(-16 -72)"/><path class="cls-1" d="M429.66,186.34l-11.32,11.32L436.69,216l-18.35,18.34,11.32,11.32,24-24a8,8,0,0,0,0-11.32Z" transform="translate(-16 -72)"/><path class="cls-1" d="M368.4,261.32l32-96,15.19,5.05-32,96Z" transform="translate(-16 -72)"/></svg>