<svg id="Layer_1" data-name="Layer 1" xmlns="http://www.w3.org/2000/svg" xmlns:xlink="http://www.w3.org/1999/xlink" viewBox="0 0 1024 1024"><defs><style>.cls-1{fill:#e6e6e6;}.cls-2{fill:#fff;}.cls-3{fill:url(#linear-gradient);}.cls-4{fill:red;}.cls-5{fill:#3f3d56;}.cls-6{fill:url(#linear-gradient-2);}.cls-7{fill:#a0616a;}.cls-8{fill:#2f2e41;}.cls-9{fill:#575a89;}.cls-10{fill:#ffb8b8;}.cls-11{opacity:0.2;isolation:isolate;}.cls-12{fill:#e5e5e5;}.cls-13{fill:#f1f1f1;}.cls-14{fill:#cbcbcb;}.cls-15{fill:url(#linear-gradient-3);}.cls-16{fill:url(#linear-gradient-4);}</style><linearGradient id="linear-gradient" x1="141.65" y1="181.39" x2="1010.7" y2="181.39" gradientUnits="userSpaceOnUse"><stop offset="0" stop-color="#f06d06"/><stop offset="1" stop-color="red"/></linearGradient><linearGradient id="linear-gradient-2" x1="266.92" y1="478.89" x2="484.99" y2="478.89" xlink:href="#linear-gradient"/><linearGradient id="linear-gradient-3" x1="349.23" y1="829.91" x2="415.66" y2="829.91" xlink:href="#linear-gradient"/><linearGradient id="linear-gradient-4" x1="71.55" y1="833.27" x2="134.11" y2="833.27" xlink:href="#linear-gradient"/></defs><rect class="cls-1" x="142.02" y="163.42" width="869.06" height="556.58"/><rect class="cls-2" x="218.86" y="238.16" width="313.74" height="322.39"/><rect class="cls-2" x="649.95" y="244.41" width="313.74" height="391.56"/><ellipse class="cls-1" cx="961.45" cy="640.21" rx="56.2" ry="8.03"/><ellipse class="cls-1" cx="399.56" cy="640.39" rx="56.2" ry="8.03"/><rect class="cls-3" x="141.65" y="162.93" width="869.06" height="36.92"/><circle class="cls-1" cx="243.48" cy="209.91" r="6.14"/><path class="cls-4" d="M240.48,666.45l1-1.17L240,663.64l-1.28.8a7.11,7.11,0,0,0-2.5-1.26l-.16-1.65-2.18-.14-.37,1.57a7.07,7.07,0,0,0-2.89,1l-1.08-.88-1.64,1.44.74,1.18a7.13,7.13,0,0,0-1.34,2.75l-1.59.16-.14,2.18,1.6.37a7.18,7.18,0,0,0,.94,2.66l-.88,1.08,1.44,1.64,1.18-.74a7.12,7.12,0,0,0,2.58,1.29l.17,1.71,2.18.14.38-1.66a7.05,7.05,0,0,0,2.79-.94l1.17,1,1.64-1.44-.8-1.28a7.09,7.09,0,0,0,1.3-2.64l1.69-.17.14-2.18-1.67-.39A6.91,6.91,0,0,0,240.48,666.45Zm-2.27,8a5.82,5.82,0,1,1,.53-8.21h0a5.82,5.82,0,0,1-.53,8.21Z"/><circle class="cls-1" cx="266.77" cy="209.91" r="6.14"/><circle class="cls-1" cx="290.06" cy="209.91" r="6.14"/><path class="cls-5" d="M894.52,349.44h-1.9V297.38a30.13,30.13,0,0,0-30.13-30.14H752.18a30.13,30.13,0,0,0-30.13,30.14h0V583a30.13,30.13,0,0,0,30.13,30.13h110.3A30.13,30.13,0,0,0,892.62,583h0V386.5h1.9Z"/><path class="cls-2" d="M862.47,275.08h-14.4a10.69,10.69,0,0,1-9.9,14.73H775a10.68,10.68,0,0,1-10.69-10.69,10.57,10.57,0,0,1,.79-4H751.63a22.5,22.5,0,0,0-22.5,22.51h0V582.8a22.5,22.5,0,0,0,22.5,22.5H862.47A22.51,22.51,0,0,0,885,582.8h0V297.59a22.51,22.51,0,0,0-22.5-22.51Z"/><rect class="cls-1" x="266.92" y="441.81" width="218.07" height="9.95"/><rect class="cls-6" x="266.92" y="473.92" width="218.07" height="9.95"/><rect class="cls-1" x="266.92" y="506.04" width="218.07" height="9.95"/><rect class="cls-1" x="744.63" y="463.51" width="127.3" height="9.95"/><rect class="cls-1" x="744.63" y="494.39" width="127.3" height="9.95"/><rect class="cls-1" x="744.63" y="525.27" width="127.3" height="9.95"/><rect class="cls-5" x="864.03" y="658.51" width="21.22" height="21.22"/><rect class="cls-4" x="829.84" y="658.51" width="21.22" height="21.22"/><rect class="cls-5" x="795.66" y="658.51" width="21.22" height="21.22"/><rect class="cls-5" x="761.48" y="658.51" width="21.22" height="21.22"/><rect class="cls-5" x="727.29" y="658.51" width="21.22" height="21.22"/><rect class="cls-4" x="771.68" y="334.61" width="70.72" height="70.72"/><path class="cls-7" d="M403.76,498.19l-.82,1.64-2.47-12.31s-3.28-13.13,3.29-13.13,4.92,13.13,4.92,13.13v9Z"/><path class="cls-7" d="M468,501.46l.92,1.84,2.75-13.74s3.66-14.64-3.67-14.64-5.49,14.64-5.49,14.64v10.07Z"/><polygon class="cls-8" points="388.12 606.29 377.14 674.03 382.63 739.95 395.44 734.45 393.61 685.02 406.43 645.65 409.18 692.34 403.69 740.86 420.16 742.69 432.06 642.91 431.15 609.04 388.12 606.29"/><path class="cls-8" d="M388.12,731.71l-6.41,10.07v22.5A2.72,2.72,0,0,0,384,767c3.14.52,8.61.88,10.52-2.31,2.75-4.57.92-14.64.92-14.64s3.66-7.33,1.83-12.82-3.67-6.41-3.67-6.41Z"/><path class="cls-8" d="M415.59,740.86l1.83,2.75s2.74,2.74.91,4.57a36.56,36.56,0,0,0-3.66,4.58s-10.07,2.75-10.07-.91V740Z"/><circle class="cls-7" cx="412.29" cy="519.65" r="12.13"/><polygon class="cls-7" points="404.14 523.44 403.23 540.84 419.7 541.75 418.79 524.36 404.14 523.44"/><path class="cls-9" d="M422,542.21l-2.6-6.35s-12-4.64-15.71-.06l-1.83,5.49-14.64-3.66L379,555.94l7.32,52.18s19.23,24.72,44.86.92l7.32-49.44L433,540.38Z"/><polygon class="cls-9" points="431.15 544.04 432.98 540.38 451.29 529.39 462.46 496.32 471.11 500.02 461.36 539.46 434.81 564.18 431.15 544.04"/><polygon class="cls-9" points="389.04 539.46 387.21 537.63 367.98 525.73 354.25 498.27 343.26 501.93 355.17 535.8 384.46 559.6 389.04 539.46"/><path class="cls-8" d="M421.29,501.06l2-1-3-1v-1s-14.88-5.95-16.86,4a19.92,19.92,0,0,0,0,23.8v3l15.87,2,2-6S431.21,507,421.29,501.06Z"/><rect class="cls-1" x="267.04" y="275.22" width="217.4" height="124.76"/><path class="cls-10" d="M914.3,522.66l1-6.5s5.87-13.34,1.23-14.06-8.51,12-8.51,12l1.69,13.57Z"/><polygon class="cls-9" points="961.82 559.49 920.34 551.16 915.52 520.95 903.31 520 903.9 559.07 939.94 577.96 961.82 559.49"/><polygon class="cls-11" points="961.82 559.49 920.34 551.16 915.52 520.95 903.31 520 903.9 559.07 939.94 577.96 961.82 559.49"/><rect class="cls-4" x="848.97" y="504.72" width="127.3" height="9.95"/><path class="cls-10" d="M906.2,520.43v-6.57s3.77-14.09-.93-14.09-6.59,13.14-6.59,13.14l3.74,13.15Z"/><path class="cls-8" d="M960.19,539.26l5.69-1.39a14.65,14.65,0,0,0,14.67-14.63,15.06,15.06,0,0,0-.29-2.92h0a19.15,19.15,0,0,0-19.13-19.17h0A19.14,19.14,0,0,0,942,520.27h0a15.22,15.22,0,0,0,18.23,19Z"/><polygon class="cls-8" points="926.72 634.1 931.35 684.83 939.74 734.62 953.83 734.64 952.01 685.79 944.57 626.61 926.72 634.1"/><path class="cls-8" d="M941.62,731.8l-9.4,5.63s-15,1.86-12.22,6.56,35.69,1.92,35.7,0-.93-12.21-2.81-12.21Z"/><path class="cls-8" d="M968.3,629.72s-.26,7.25-6.85,18.52l.9,34.75,33.75,43.25-12.22,10.31-41.27-47-10.26-56.37L945.52,620Z"/><path class="cls-8" d="M993.29,726.23s11.27,1.9,9.38,6.59-6.61,26.29-18.81,23.46c0,0-5.64,0-3.76-3.77a70.14,70.14,0,0,1,3.77-6.57l0-12.21Z"/><circle class="cls-10" cx="954.09" cy="526.13" r="14.09"/><polygon class="cls-10" points="960.65 535.53 960.63 551.49 945.61 551.48 947.5 535.51 960.65 535.53"/><path class="cls-9" d="M941.86,545.84l4.55-1.12,14.23,1.14s7.5,7.52,6.56,9.4-5.69,47.89-5.69,47.89L969.92,636l-30.06,1.84-15-1.9,2.89-59.17s-6.56-16,1.9-20.66A37.08,37.08,0,0,0,941.86,545.84Z"/><polygon class="cls-9" points="958.76 549.61 916.49 547.68 907.14 518.55 894.93 519.48 901.45 558 939.95 571.19 958.76 549.61"/><circle class="cls-8" cx="981.29" cy="506.66" r="9.09"/><path class="cls-8" d="M972.9,501.77a9.08,9.08,0,0,1,9.09-9.08,9,9,0,0,1,1.79.18A9.09,9.09,0,0,0,976,509.3a8.76,8.76,0,0,0,2.1.69A9.08,9.08,0,0,1,972.9,501.77Z"/><path class="cls-8" d="M965.1,506.93l-12.25-2.26-9.43,5.91a14.28,14.28,0,0,0-6.58,13.95l9.44-2.39,2.11-5.3,2.52,4.12,10.21,17.86,10.34-5.63L978,522.87Z"/><rect class="cls-2" x="374.5" y="212.27" width="2.47" height="250.65" transform="matrix(0.5, -0.87, 0.87, 0.5, -104.09, 495.45)"/><rect class="cls-2" x="250.41" y="336.36" width="250.65" height="2.47" transform="translate(-118.17 231.76) rotate(-29.85)"/><rect class="cls-2" x="806.2" y="319.92" width="2.47" height="99.57" transform="translate(-24.93 679.23) rotate(-45)"/><rect class="cls-2" x="757.65" y="368.47" width="99.57" height="2.47" transform="translate(-24.93 679.23) rotate(-45)"/><path class="cls-10" d="M319.48,764.21A11,11,0,0,1,333.94,770a9.63,9.63,0,0,1,.43,1.17,10.17,10.17,0,0,1,.32,1.43l43.94,21.79,10.17-6.74,12.65,14.57-15.52,12.61a11.15,11.15,0,0,1-13.31.51l-44.57-30.83a10.44,10.44,0,0,1-1,.37,11,11,0,0,1-13.72-7.34,10.3,10.3,0,0,1-.29-1.22,10,10,0,0,1-.16-1.34A11,11,0,0,1,319.48,764.21Z"/><path class="cls-2" d="M184,632.83H319.43V794.49H184Z"/><path class="cls-12" d="M184,632.83H319.43V794.49H184Zm133,2.39H186.43V792.1H317Z"/><rect class="cls-13" x="204.38" y="711.12" width="94.71" height="3.66"/><polygon class="cls-14" points="288.9 689.24 289.94 689.24 289.94 652.21 253.55 652.21 253.55 653.25 288.9 653.25 288.9 689.24"/><polygon class="cls-14" points="216.14 692.64 252.52 692.64 252.52 691.61 217.17 691.61 217.17 655.61 216.14 655.61 216.14 692.64"/><rect class="cls-13" x="204.38" y="720.66" width="94.71" height="3.66"/><rect class="cls-13" x="204.38" y="730.2" width="94.71" height="3.66"/><rect class="cls-13" x="204.38" y="747" width="94.71" height="3.66"/><rect class="cls-13" x="204.38" y="756.54" width="94.71" height="3.66"/><rect class="cls-13" x="204.38" y="766.08" width="94.71" height="3.66"/><path class="cls-4" d="M257.59,678.08l1.32-.73-.73-2.05-1.49.27a7,7,0,0,0-1.86-2.09l.45-1.59-2-.93-.92,1.32a7.14,7.14,0,0,0-3-.17l-.68-1.21-2,.73.25,1.37a7.19,7.19,0,0,0-2.25,2.07l-1.54-.44-.93,2,1.36.94a7,7,0,0,0-.11,2.81l-1.22.68.74,2.05,1.37-.25a7.22,7.22,0,0,0,1.93,2.15l-.47,1.65,2,.93,1-1.4a7.29,7.29,0,0,0,2.94.15l.74,1.31,2-.73-.27-1.49a7.11,7.11,0,0,0,2.18-2l1.63.46.93-2-1.41-1A6.94,6.94,0,0,0,257.59,678.08Zm-5.06,6.64a5.82,5.82,0,1,1,3.5-7.44A5.82,5.82,0,0,1,252.53,684.72Z"/><path class="cls-4" d="M273.72,668.67l.91-1.2-1.51-1.58-1.25.85a7.06,7.06,0,0,0-2.54-1.16l-.23-1.64-2.18-.05-.31,1.57a7.19,7.19,0,0,0-2.85,1.09l-1.12-.84-1.57,1.5.78,1.16a7,7,0,0,0-1.22,2.79l-1.59.23-.06,2.18,1.62.31a7.36,7.36,0,0,0,1,2.62l-.84,1.11,1.5,1.58,1.16-.78a7.06,7.06,0,0,0,2.62,1.18l.24,1.7,2.18.06.32-1.67a7.16,7.16,0,0,0,2.75-1.06l1.21.91,1.58-1.51-.85-1.25a7.16,7.16,0,0,0,1.19-2.69l1.68-.24.06-2.18-1.69-.32A7.16,7.16,0,0,0,273.72,668.67Zm-2,8.12a5.81,5.81,0,1,1,.21-8.22A5.82,5.82,0,0,1,271.76,676.79Z"/><path class="cls-5" d="M411,898.36H363c0,1.38-49.48,2.5-49.48,2.5a12.91,12.91,0,0,0-2.11,2,12.39,12.39,0,0,0-2.9,8v2a12.5,12.5,0,0,0,12.5,12.5h90a12.51,12.51,0,0,0,12.5-12.5v-2A12.52,12.52,0,0,0,411,898.36Z"/><rect class="cls-5" x="358.77" y="924.87" width="13" height="84"/><path class="cls-5" d="M321.77,1008.41c0,1.4,19.7.54,44,.54s44,.86,44-.54-19.7-12.54-44-12.54S321.77,1007,321.77,1008.41Z"/><polygon class="cls-10" points="333.51 998.56 321.25 998.56 315.42 966.77 333.51 966.77 333.51 998.56"/><path class="cls-8" d="M336.64,1010.45H297.11v-.5a15.38,15.38,0,0,1,15.38-15.39h24.15Z"/><path class="cls-8" d="M315.17,978.85,290.73,924a20.1,20.1,0,0,1,8.82-25.79l53-28.42,24.2-2.06,22.31-2,.16.27c.21.35,5,8.64,1.76,17.72-2.46,6.9-8.86,12.28-19,16-23.71,8.69-51.11,16.12-61.78,18.91a3.49,3.49,0,0,0-2.41,4.56l22.71,51a4.5,4.5,0,0,1-2.68,5.77,5,5,0,0,1-1.13.26l-17,1.23a3.1,3.1,0,0,1-.43,0A4.5,4.5,0,0,1,315.17,978.85Z"/><polygon class="cls-10" points="341.51 998.56 329.25 998.56 323.42 966.77 341.51 966.77 341.51 998.56"/><path class="cls-8" d="M344.64,1010.45H305.11v-.5a15.38,15.38,0,0,1,15.38-15.39h24.15Z"/><path class="cls-8" d="M324.17,981.85,299.73,927a20.1,20.1,0,0,1,8.82-25.79l53-28.42,24.2-2.06,17.47-1.52V869c.21.35,5,8.64,1.76,17.72-2.46,6.9-3.86,12.28-14,16-23.71,8.69-51.11,16.12-61.78,18.91a3.49,3.49,0,0,0-2.41,4.56l22.71,51a4.5,4.5,0,0,1-2.68,5.77,5,5,0,0,1-1.13.26l-17,1.23a3.1,3.1,0,0,1-.43,0A4.5,4.5,0,0,1,324.17,981.85Z"/><path class="cls-15" d="M370.23,870.25c-1.17-.83-18,8-21,1,14-35,4.36-50.11,12.93-70.18a25,25,0,0,1,16.57-14.18L401,785.76l.11.06a26,26,0,0,1,14.22,27.59c-.08,21.84-13.15,38.5-8.58,54.34a5.11,5.11,0,0,1-.48,4,4.89,4.89,0,0,1-3.12,2.31l-29.37-3.92a5,5,0,0,1-4-.78Z"/><circle class="cls-10" cx="393.55" cy="752.89" r="24.56"/><path class="cls-10" d="M347.16,836.12l-42.67-33.66a9.49,9.49,0,0,1-1,.3,11,11,0,1,1,8.19-13.22,10.18,10.18,0,0,1,.23,1.45l42.48,24.51,10.57-6.09,11.72,15.33-16.42,11.7A10.94,10.94,0,0,1,347.16,836.12Z"/><path class="cls-4" d="M381.84,829.52,357.49,813l11.45-16.21a11.17,11.17,0,0,1,13.93-3.64h0a11.17,11.17,0,0,1,5.89,13.29Z"/><path class="cls-8" d="M401.38,775.44c-1.31.57-4-9.83-2.78-11.91,1.78-3.09,1.67-3.07,2.85-5.12s1.45-4.84-.08-6.64-5.07-1.57-5.77.69c.45-4.29-3.79-7.73-8-8.7s-8.63-.37-12.85-1.23c-4.9-1-10-5.11-8.05-10.5a7.71,7.71,0,0,1,1.48-2.44c2.26-2.54,5.42-3.62,8.51-4.67,6.43-2.18,13-4.39,19.83-4.15A28.79,28.79,0,0,1,422,739.38a26.52,26.52,0,0,1,1.09,4c2.33,12.53-4.95,24.88-16.76,29.65Z"/><path class="cls-5" d="M52.56,910.77v2a12.5,12.5,0,0,0,12.5,12.5h90a12.5,12.5,0,0,0,12.5-12.5v-2a12.45,12.45,0,0,0-2.9-8,13.77,13.77,0,0,0-2.11-2s-49.48-1.12-49.48-2.5h-48A12.52,12.52,0,0,0,52.56,910.77Z"/><rect class="cls-5" x="104.28" y="924.78" width="13" height="84"/><path class="cls-5" d="M110.28,995.78c-24.3,0-44,11.14-44,12.54s19.7.54,44,.54,44,.86,44-.54S134.58,995.78,110.28,995.78Z"/><polygon class="cls-10" points="153.7 965.02 171.79 965.02 165.96 996.82 153.7 996.82 153.7 965.02"/><path class="cls-8" d="M150.57,992.81h24.15a15.38,15.38,0,0,1,15.38,15.39h0v.5H150.57Z"/><path class="cls-8" d="M167.93,979.76a3.17,3.17,0,0,1-.43,0l-17-1.23a4.5,4.5,0,0,1-4.06-4.9,4.32,4.32,0,0,1,.26-1.13l22.7-51a3.48,3.48,0,0,0-2.41-4.55c-10.67-2.8-38.07-10.23-61.78-18.92-10.16-3.73-16.56-9.11-19-16C83,872.9,87.77,864.61,88,864.26l.16-.27,22.32,2,24.19,2.06,53,28.43a20.08,20.08,0,0,1,8.82,25.78L172,977.1A4.49,4.49,0,0,1,167.93,979.76Z"/><polygon class="cls-10" points="147.7 965.02 165.79 965.02 159.96 996.82 147.7 996.82 147.7 965.02"/><path class="cls-8" d="M144.57,992.81h24.15a15.38,15.38,0,0,1,15.38,15.39h0v.5H144.57Z"/><path class="cls-8" d="M160.93,982.76a3.17,3.17,0,0,1-.43,0l-17-1.23a4.5,4.5,0,0,1-4.06-4.9,4.32,4.32,0,0,1,.26-1.13l22.7-51a3.48,3.48,0,0,0-2.41-4.55C149.35,917.11,122,909.68,98.24,901c-10.16-3.73-16.56-9.11-19-16C76,875.9,80.77,867.61,81,867.26l.16-.27,22.32,2,24.19,2.06,53,28.43a20.08,20.08,0,0,1,8.82,25.78L165,980.1A4.49,4.49,0,0,1,160.93,982.76Z"/><path class="cls-4" d="M75.44,788.72a11.15,11.15,0,0,1,14.26-2.78h0a11.16,11.16,0,0,1,5,13.5L88,818.1,60.46,807.64Z"/><path class="cls-16" d="M130.47,881.6a5,5,0,0,1-4,.78L84.08,872.3A4.89,4.89,0,0,1,81,870a5.09,5.09,0,0,1-.48-4c4.57-15.85-1.43-35.49-8.58-54.35a26,26,0,0,1,14.22-27.59l.11-.05,22.25,1.12a25,25,0,0,1,16.57,14.18c8.57,20.07,11,45.82,7.5,78.73a5,5,0,0,1-2.08,3.55Z"/><circle class="cls-10" cx="93.66" cy="751.15" r="24.56"/><path class="cls-10" d="M127,834.69,110.58,823l11.71-15.33,10.57,6.09,42.48-24.51a10.18,10.18,0,0,1,.23-1.45A11,11,0,1,1,183.76,801c-.35-.09-.7-.19-1-.31l-42.67,33.67A11,11,0,0,1,127,834.69Z"/><path class="cls-4" d="M98.45,804.65a11.15,11.15,0,0,1,5.9-13.28h0A11.14,11.14,0,0,1,118.27,795l11.45,16.2-24.35,16.56Z"/><path class="cls-8" d="M102.72,747.59a4.44,4.44,0,0,1-.59,5.19c-3.49,3.94-4.42,10.05-3.16,15.31,1.51,6.32,5.51,11.7,9.47,16.84s8,10.43,9.79,16.69c4.11,14.8-6.94,30.59-21.14,36.46s-30.38,4-45.34.47C40.47,835.88,28.82,832,21.1,823.3S11.33,800,19.54,791.79c6.43-6.42,16.44-6.94,25.39-8.55S64,776.88,65.21,767.87s-7.2-16.35-8.78-25.25c-2-11.06,7.66-21.6,18.54-24.37s22.37.31,32.91,4.18c8.11,3,16.6,6.86,19.68,15.69,1.72,4.91.39,10.51-3.85,13.53-6.45,4.6-14.73.16-21-4.16Z"/></svg>