<svg id="Layer_1" data-name="Layer 1" xmlns="http://www.w3.org/2000/svg" xmlns:xlink="http://www.w3.org/1999/xlink" viewBox="0 0 1024 1024"><defs><style>.cls-1{fill:#fafafa;}.cls-2{fill:#e6e6e6;}.cls-3{fill:#fff;}.cls-4{fill:url(#linear-gradient);}.cls-5{fill:red;}.cls-6{fill:#3f3d56;}.cls-7{fill:url(#linear-gradient-2);}.cls-8{fill:#a0616a;}.cls-9{fill:#2f2e41;}.cls-10{fill:#575a89;}.cls-11{fill:#ffb8b8;}.cls-12{opacity:0.2;isolation:isolate;}.cls-13{fill:#e5e5e5;}.cls-14{fill:#f1f1f1;}.cls-15{fill:#cbcbcb;}.cls-16{fill:url(#linear-gradient-3);}.cls-17{fill:url(#linear-gradient-4);}</style><linearGradient id="linear-gradient" x1="191.04" y1="839.56" x2="936.23" y2="839.56" gradientTransform="matrix(1, 0, 0, -1, 0, 1024)" gradientUnits="userSpaceOnUse"><stop offset="0" stop-color="#f06d06"/><stop offset="1" stop-color="red"/></linearGradient><linearGradient id="linear-gradient-2" x1="298.46" y1="584.46" x2="485.44" y2="584.46" xlink:href="#linear-gradient"/><linearGradient id="linear-gradient-3" x1="369.03" y1="283.47" x2="426.01" y2="283.47" xlink:href="#linear-gradient"/><linearGradient id="linear-gradient-4" x1="130.97" y1="280.6" x2="184.59" y2="280.6" xlink:href="#linear-gradient"/></defs><g id="Component_2_5" data-name="Component 2 5"><path id="Path_180" data-name="Path 180" class="cls-1" d="M85.43,156.58c228-99.1,1164.76-159.52,877,468.09s-775.85,0-775.85,0S-142.58,255.72,85.43,156.58Z"/></g><rect class="cls-2" x="191.36" y="169.03" width="745.19" height="477.25"/><rect class="cls-3" x="257.24" y="233.12" width="269.02" height="276.44"/><rect class="cls-3" x="626.89" y="238.48" width="269.02" height="335.75"/><ellipse class="cls-2" cx="893.99" cy="577.87" rx="48.19" ry="6.89"/><ellipse class="cls-2" cx="412.19" cy="578.02" rx="48.19" ry="6.89"/><rect class="cls-4" x="191.04" y="168.61" width="745.19" height="31.66"/><circle class="cls-2" cx="278.36" cy="208.9" r="5.26"/><path class="cls-5" d="M275.78,600.37l.86-1-1.27-1.4-1.1.68a6.26,6.26,0,0,0-2.14-1.08l-.14-1.41-1.87-.12-.31,1.34a6.22,6.22,0,0,0-2.48.86l-.93-.75-1.4,1.23.63,1a6.18,6.18,0,0,0-1.15,2.36l-1.36.14-.12,1.87,1.37.32a6.23,6.23,0,0,0,.81,2.28l-.76.92,1.24,1.41,1-.64a6,6,0,0,0,2.21,1.11L269,611l1.87.12.32-1.43a5.94,5.94,0,0,0,2.39-.8l1,.86,1.4-1.24-.68-1.1a6.2,6.2,0,0,0,1.11-2.26l1.45-.15.12-1.87-1.43-.33A5.81,5.81,0,0,0,275.78,600.37Zm-1.94,6.86a5,5,0,1,1,.45-7.05h0A5,5,0,0,1,273.84,607.23Z"/><circle class="cls-2" cx="298.33" cy="208.9" r="5.26"/><circle class="cls-2" cx="318.3" cy="208.9" r="5.26"/><path class="cls-6" d="M836.6,328.54H835V283.9a25.83,25.83,0,0,0-25.83-25.84h-94.6a25.82,25.82,0,0,0-25.83,25.83h0V528.81a25.83,25.83,0,0,0,25.83,25.84h94.58A25.85,25.85,0,0,0,835,528.82h0V360.32h1.62Z"/><path class="cls-3" d="M809.12,264.78H796.77a9.16,9.16,0,0,1-8.48,12.63H734.12a9.17,9.17,0,0,1-9.17-9.15v0a9,9,0,0,1,.68-3.43H714.08a19.29,19.29,0,0,0-19.29,19.3h0V528.64a19.28,19.28,0,0,0,19.29,19.29h95a19.3,19.3,0,0,0,19.32-19.28h0V284.08a19.3,19.3,0,0,0-19.29-19.3Z"/><rect class="cls-2" x="298.46" y="407.75" width="186.99" height="8.53"/><rect class="cls-7" x="298.46" y="435.28" width="186.99" height="8.53"/><rect class="cls-2" x="298.46" y="462.82" width="186.99" height="8.53"/><rect class="cls-2" x="708.08" y="426.35" width="109.16" height="8.53"/><rect class="cls-2" x="708.08" y="452.83" width="109.16" height="8.53"/><rect class="cls-2" x="708.08" y="479.31" width="109.16" height="8.53"/><rect class="cls-6" x="810.46" y="593.56" width="18.2" height="18.2"/><rect class="cls-5" x="781.14" y="593.56" width="18.2" height="18.2"/><rect class="cls-6" x="751.83" y="593.56" width="18.2" height="18.2"/><rect class="cls-6" x="722.53" y="593.56" width="18.2" height="18.2"/><rect class="cls-6" x="693.21" y="593.56" width="18.2" height="18.2"/><rect class="cls-5" x="731.27" y="315.82" width="60.64" height="60.64"/><path class="cls-8" d="M415.79,456.09l-.7,1.41L413,446.94s-2.81-11.26,2.82-11.26S420,446.94,420,446.94v7.72Z"/><path class="cls-8" d="M470.88,458.89l.78,1.58L474,448.69s3.14-12.55-3.14-12.55-4.71,12.55-4.71,12.55v8.63Z"/><polygon class="cls-9" points="402.38 548.78 392.97 606.87 397.67 663.39 408.66 658.68 407.09 616.29 418.08 582.53 420.44 622.57 415.73 664.17 429.85 665.74 440.06 580.18 439.28 551.14 402.38 548.78"/><path class="cls-9" d="M402.38,656.33l-5.5,8.63v19.29a2.36,2.36,0,0,0,2,2.34c2.69.44,7.38.75,9-2,2.36-3.92.79-12.56.79-12.56s3.14-6.28,1.57-11-3.15-5.5-3.15-5.5Z"/><path class="cls-9" d="M425.94,664.17l1.56,2.36s2.35,2.35.78,3.92a32.12,32.12,0,0,0-3.13,3.93s-8.64,2.35-8.64-.78V663.43Z"/><circle class="cls-8" cx="423.11" cy="474.49" r="10.4"/><polygon class="cls-8" points="416.12 477.74 415.34 492.66 429.46 493.44 428.68 478.53 416.12 477.74"/><path class="cls-10" d="M431.43,493.84l-2.23-5.45s-10.29-4-13.47-.05l-1.57,4.71-12.55-3.14-7.05,15.7,6.28,44.74s16.49,21.2,38.46.79l6.28-42.39-4.72-16.48Z"/><polygon class="cls-10" points="439.28 495.4 440.85 492.27 456.55 482.84 466.13 454.49 473.54 457.66 465.18 491.48 442.42 512.67 439.28 495.4"/><polygon class="cls-10" points="403.17 491.48 401.6 489.91 385.11 479.7 373.34 456.16 363.91 459.3 374.13 488.34 399.24 508.75 403.17 491.48"/><path class="cls-9" d="M430.82,458.55l1.72-.86-2.57-.85V456s-12.76-5.1-14.46,3.43a17.09,17.09,0,0,0,0,20.41v2.57l13.61,1.71,1.71-5.14S439.33,463.64,430.82,458.55Z"/><rect class="cls-2" x="298.56" y="264.9" width="186.41" height="106.98"/><path class="cls-11" d="M853.57,477.07l.85-5.57s5-11.44,1.06-12.06-7.3,10.29-7.3,10.29l1.45,11.64Z"/><polygon class="cls-10" points="894.31 508.65 858.74 501.51 854.61 475.61 844.14 474.79 844.65 508.29 875.55 524.49 894.31 508.65"/><polygon class="cls-12" points="894.31 508.65 858.74 501.51 854.61 475.61 844.14 474.79 844.65 508.29 875.55 524.49 894.31 508.65"/><rect class="cls-5" x="797.55" y="461.69" width="109.16" height="8.53"/><path class="cls-11" d="M846.62,475.16v-5.63s3.23-12.09-.8-12.09-5.65,11.27-5.65,11.27L843.38,480Z"/><path class="cls-9" d="M892.91,491.31l4.88-1.2a12.56,12.56,0,0,0,12.58-12.54h0a12.33,12.33,0,0,0-.25-2.5h0a16.42,16.42,0,0,0-16.4-16.44h0A16.41,16.41,0,0,0,877.32,475h0A13,13,0,0,0,893,491.31Z"/><polygon class="cls-9" points="864.22 572.63 868.18 616.13 875.38 658.82 887.46 658.84 885.9 616.95 879.52 566.21 864.22 572.63"/><path class="cls-9" d="M877,656.4l-8.06,4.83s-12.86,1.6-10.48,5.63,30.61,1.64,30.61,0-.79-10.47-2.41-10.47Z"/><path class="cls-9" d="M899.87,568.87s-.22,6.22-5.88,15.88l.78,29.8,28.94,37.09-10.48,8.84-35.39-40.3L869,571.84l11.3-11.3Z"/><path class="cls-9" d="M921.3,651.63s9.66,1.63,8,5.65-5.67,22.54-16.13,20.11c0,0-4.84,0-3.22-3.23a59.33,59.33,0,0,1,3.23-5.63V658.06Z"/><circle class="cls-11" cx="887.68" cy="480.05" r="12.08"/><polygon class="cls-11" points="893.31 488.11 893.29 501.79 880.41 501.78 882.03 488.09 893.31 488.11"/><path class="cls-10" d="M877.2,497l3.9-1,12.2,1s6.43,6.44,5.63,8.06-4.88,41.06-4.88,41.06l7.21,28.17-25.78,1.58-12.86-1.63,2.48-50.74s-5.63-13.72,1.63-17.72A31.85,31.85,0,0,0,877.2,497Z"/><polygon class="cls-10" points="891.69 500.18 855.44 498.53 847.43 473.55 836.96 474.35 842.55 507.38 875.56 518.68 891.69 500.18"/><circle class="cls-9" cx="911.01" cy="463.35" r="7.79"/><path class="cls-9" d="M903.81,459.16a7.79,7.79,0,0,1,7.79-7.79h0a7.87,7.87,0,0,1,1.53.16,7.79,7.79,0,0,0-6.67,14.09,7.59,7.59,0,0,0,1.8.59A7.81,7.81,0,0,1,903.81,459.16Z"/><path class="cls-9" d="M897.12,463.58l-10.5-1.93-8.09,5.06a12.27,12.27,0,0,0-5.64,12l8.1-2.05,1.81-4.55,2.16,3.53,8.75,15.32,8.87-4.83,5.61-8.85Z"/><rect class="cls-3" x="392.2" y="210.35" width="2.13" height="215.67" transform="translate(-78.56 500.6) rotate(-60.11)"/><rect class="cls-3" x="284.31" y="317.29" width="214.93" height="2.12" transform="translate(-106.48 237.23) rotate(-29.85)"/><rect class="cls-3" x="760.87" y="303.23" width="2.12" height="85.38" transform="translate(-21.44 640.08) rotate(-45)"/><rect class="cls-3" x="719.24" y="344.86" width="85.38" height="2.12" transform="translate(-21.44 640.08) rotate(-45)"/><path class="cls-11" d="M343.52,684.19a9.43,9.43,0,0,1,12.39,4.95v0a7,7,0,0,1,.37,1,10,10,0,0,1,.28,1.23l37.67,18.68,8.72-5.78,10.85,12.5L400.5,727.6a9.56,9.56,0,0,1-11.41.44L350.87,701.6a8,8,0,0,1-.86.32,9.44,9.44,0,0,1-11.76-6.29h0a9.26,9.26,0,0,1-.25-1,9,9,0,0,1-.14-1.15A9.45,9.45,0,0,1,343.52,684.19Z"/><path class="cls-3" d="M227.35,571.54H343.48V710.16H227.35Z"/><path class="cls-13" d="M227.35,571.54H343.48V710.16H227.35Zm114,2.05h-112V708.11h112Z"/><rect class="cls-14" x="244.83" y="638.67" width="81.21" height="3.14"/><polygon class="cls-15" points="317.3 619.91 318.19 619.91 318.19 588.16 286.99 588.16 286.99 589.05 317.3 589.05 317.3 619.91"/><polygon class="cls-15" points="254.91 622.83 286.11 622.83 286.11 621.94 255.8 621.94 255.8 591.07 254.91 591.07 254.91 622.83"/><rect class="cls-14" x="244.83" y="646.85" width="81.21" height="3.14"/><rect class="cls-14" x="244.83" y="655.03" width="81.21" height="3.14"/><rect class="cls-14" x="244.83" y="669.44" width="81.21" height="3.14"/><rect class="cls-14" x="244.83" y="677.62" width="81.21" height="3.14"/><rect class="cls-14" x="244.83" y="685.8" width="81.21" height="3.14"/><path class="cls-5" d="M290.45,610.34l1.14-.63L291,608l-1.28.23a5.8,5.8,0,0,0-1.59-1.79l.38-1.37-1.71-.8-.79,1.14a6.19,6.19,0,0,0-2.57-.15l-.59-1-1.71.63.21,1.17a6.31,6.31,0,0,0-1.93,1.78l-1.32-.38-.79,1.72,1.16.8a6.12,6.12,0,0,0-.09,2.41l-1,.59.64,1.75,1.17-.21a6.09,6.09,0,0,0,1.66,1.84l-.41,1.42,1.72.79.86-1.2a6.12,6.12,0,0,0,2.52.13l.63,1.13,1.72-.63-.23-1.28a6.08,6.08,0,0,0,1.86-1.71l1.4.39.8-1.71-1.21-.86A5.76,5.76,0,0,0,290.45,610.34ZM286.12,616a5,5,0,1,1,3-6.39h0a5,5,0,0,1-3,6.38Z"/><path class="cls-5" d="M304.29,602.27l.78-1-1.3-1.35-1.07.73a5.85,5.85,0,0,0-2.18-1l-.2-1.4-1.86-.05-.27,1.35a6.1,6.1,0,0,0-2.44.93l-1-.72L293.44,601l.67,1a6,6,0,0,0-1.05,2.4l-1.36.19-.05,1.87,1.39.27a6.47,6.47,0,0,0,.85,2.25l-.72,1,1.29,1.35,1-.67a6.1,6.1,0,0,0,2.25,1l.21,1.46,1.87,0,.27-1.43a6,6,0,0,0,2.36-.91l1,.78,1.35-1.29-.73-1.07a6,6,0,0,0,1-2.31l1.44-.21.05-1.87-1.45-.27A6.09,6.09,0,0,0,304.29,602.27Zm-1.72,7a5,5,0,1,1,.18-7,5,5,0,0,1-.18,7Z"/><path class="cls-6" d="M422,799.22H380.84c0,1.19-42.43,2.15-42.43,2.15a11.26,11.26,0,0,0-1.81,1.71,10.61,10.61,0,0,0-2.48,6.86v1.72a10.72,10.72,0,0,0,10.72,10.72H422a10.74,10.74,0,0,0,10.72-10.72v-1.72A10.74,10.74,0,0,0,422,799.22Z"/><rect class="cls-6" x="377.21" y="821.96" width="11.15" height="72.03"/><path class="cls-6" d="M345.49,893.59c0,1.2,16.89.46,37.73.46s37.72.74,37.72-.46-16.89-10.75-37.72-10.75S345.49,892.38,345.49,893.59Z"/><polygon class="cls-11" points="355.55 885.14 345.04 885.14 340.04 857.88 355.55 857.88 355.55 885.14"/><path class="cls-9" d="M358.24,895.34h-33.9v-.43a13.2,13.2,0,0,1,13.18-13.2h20.72Z"/><path class="cls-9" d="M339.83,868.24l-21-47a17.24,17.24,0,0,1,7.56-22.11l45.45-24.37L392.63,773l19.13-1.72.14.24c.18.3,4.29,7.4,1.51,15.19-2.11,5.92-7.6,10.53-16.29,13.72-20.33,7.45-43.83,13.82-53,16.21a3,3,0,0,0-2.15,3.65c0,.09.05.18.08.26l19.48,43.74a3.85,3.85,0,0,1-2.3,4.94,4,4,0,0,1-1,.23l-14.58,1.05h-.36A3.86,3.86,0,0,1,339.83,868.24Z"/><polygon class="cls-11" points="362.41 885.14 351.9 885.14 346.9 857.88 362.41 857.88 362.41 885.14"/><path class="cls-9" d="M365.1,895.34H331.2v-.43a13.2,13.2,0,0,1,13.18-13.2H365.1Z"/><path class="cls-9" d="M347.55,870.81l-21-47a17.22,17.22,0,0,1,7.56-22.11L379.6,777.3l20.75-1.77,15-1.3v-.18c.18.3,4.29,7.41,1.51,15.19-2.11,5.92-3.31,10.53-12,13.72-20.33,7.45-43.82,13.82-53,16.22a3,3,0,0,0-2.15,3.64,2.76,2.76,0,0,0,.08.27l19.48,43.73a3.87,3.87,0,0,1-2.3,4.95,4.69,4.69,0,0,1-1,.22l-14.58,1h-.37A3.83,3.83,0,0,1,347.55,870.81Z"/><path class="cls-16" d="M387,775.12c-1-.71-15.43,6.86-18,.86,12-30,3.74-43,11.09-60.18a21.47,21.47,0,0,1,14.21-12.16l19.09-1,.1.05a22.29,22.29,0,0,1,12.19,23.66c-.07,18.73-11.27,33-7.35,46.6a4.43,4.43,0,0,1-.42,3.43,4.2,4.2,0,0,1-2.67,2L390.08,775a4.31,4.31,0,0,1-3.43-.67Z"/><circle class="cls-11" cx="407.04" cy="674.49" r="21.06"/><path class="cls-11" d="M367.26,745.85,330.67,717a8.52,8.52,0,0,1-.86.26,9.43,9.43,0,1,1,7-11.34h0a8.77,8.77,0,0,1,.19,1.25l36.43,21,9.06-5.22,10.05,13.15-14.08,10A9.36,9.36,0,0,1,367.26,745.85Z"/><path class="cls-5" d="M397,740.2,376.12,726l9.81-13.9A9.58,9.58,0,0,1,397.88,709h0a9.58,9.58,0,0,1,5.05,11.4Z"/><path class="cls-9" d="M413.75,693.82c-1.12.49-3.43-8.43-2.38-10.21,1.52-2.65,1.43-2.63,2.44-4.39s1.24-4.15-.07-5.69-4.35-1.35-4.95.59c.39-3.68-3.25-6.63-6.86-7.46s-7.4-.32-11-1.06c-4.21-.85-8.58-4.38-6.91-9a6.59,6.59,0,0,1,1.27-2.09c1.94-2.18,4.65-3.11,7.3-4,5.51-1.87,11.15-3.76,17-3.55a24.67,24.67,0,0,1,21.85,15.95,24.19,24.19,0,0,1,.94,3.43c2,10.75-4.25,21.34-14.37,25.43Z"/><path class="cls-6" d="M114.65,809.87v1.71a10.72,10.72,0,0,0,10.72,10.72h77.17a10.72,10.72,0,0,0,10.72-10.72h0v-1.71a10.68,10.68,0,0,0-2.49-6.86,11.78,11.78,0,0,0-1.81-1.72s-42.43-1-42.43-2.14H125.37A10.73,10.73,0,0,0,114.65,809.87Z"/><rect class="cls-6" x="159" y="821.88" width="11.15" height="72.03"/><path class="cls-6" d="M164.14,882.76c-20.84,0-37.73,9.55-37.73,10.75s16.89.46,37.73.46,37.73.74,37.73-.46S185,882.76,164.14,882.76Z"/><polygon class="cls-11" points="201.37 856.38 216.88 856.38 211.88 883.65 201.37 883.65 201.37 856.38"/><path class="cls-9" d="M198.69,880.21H219.4a13.19,13.19,0,0,1,13.18,13.19h0v.43H198.69Z"/><path class="cls-9" d="M213.57,869h-.36l-14.58-1a3.86,3.86,0,0,1-3.48-4.2,3.51,3.51,0,0,1,.22-1l19.46-43.73a3,3,0,0,0-1.79-3.82l-.27-.09c-9.15-2.4-32.65-8.77-53-16.22-8.71-3.2-14.2-7.81-16.29-13.72-2.75-7.83,1.34-14.94,1.54-15.24l.13-.23,19.14,1.72,20.74,1.76,45.45,24.38a17.22,17.22,0,0,1,7.56,22.11l-21,47A3.84,3.84,0,0,1,213.57,869Z"/><polygon class="cls-11" points="196.23 856.38 211.74 856.38 206.74 883.65 196.23 883.65 196.23 856.38"/><path class="cls-9" d="M193.54,880.21h20.71a13.2,13.2,0,0,1,13.19,13.19h0v.43h-33.9Z"/><path class="cls-9" d="M207.57,871.59h-.37l-14.57-1.05a3.87,3.87,0,0,1-3.49-4.2,4,4,0,0,1,.23-1l19.46-43.73a3,3,0,0,0-1.79-3.82l-.27-.08c-9.13-2.44-32.58-8.81-53-16.25-8.72-3.2-14.2-7.81-16.3-13.72-2.77-7.8,1.32-14.91,1.51-15.21l.14-.24L158.31,774l20.74,1.77,45.45,24.37a17.22,17.22,0,0,1,7.56,22.11l-21,47A3.84,3.84,0,0,1,207.57,871.59Z"/><path class="cls-5" d="M134.27,705.21a9.55,9.55,0,0,1,12.22-2.38h0a9.56,9.56,0,0,1,4.29,11.57l-5.74,16-23.62-9Z"/><path class="cls-17" d="M181.45,784.85a4.26,4.26,0,0,1-3.43.67l-36.35-8.64a4.21,4.21,0,0,1-2.64-2,4.38,4.38,0,0,1-.41-3.43c3.92-13.59-1.22-30.44-7.35-46.61a22.29,22.29,0,0,1,12.19-23.66l.09,0,19.08,1a21.47,21.47,0,0,1,14.21,12.16c7.35,17.21,9.43,39.29,6.43,67.51a4.29,4.29,0,0,1-1.78,3Z"/><circle class="cls-11" cx="149.89" cy="673" r="21.06"/><path class="cls-11" d="M178.48,744.63l-14.08-10,10-13.14,9.06,5.22,36.43-21a7.57,7.57,0,0,1,.2-1.25,9.43,9.43,0,1,1,7,11.33h0a6.67,6.67,0,0,1-.86-.27L189.7,744.35A9.44,9.44,0,0,1,178.48,744.63Z"/><path class="cls-5" d="M154,718.87a9.57,9.57,0,0,1,5.06-11.39h0A9.54,9.54,0,0,1,171,710.6l9.82,13.89-20.88,14.2Z"/><path class="cls-9" d="M157.66,669.94a3.81,3.81,0,0,1-.51,4.45c-3,3.38-3.79,8.62-2.71,13.13,1.3,5.42,4.73,10,8.12,14.44s6.86,8.94,8.4,14.31c3.52,12.69-6,26.23-18.13,31.27s-26.05,3.43-38.88.4c-9.67-2.29-19.66-5.62-26.28-13.08s-8.38-20-1.34-27c5.52-5.5,14.1-6,21.77-7.33s16.36-5.45,17.39-13.18-6.17-14-7.52-21.65c-1.72-9.48,6.56-18.52,15.89-20.9s19.19.27,28.22,3.59c7,2.57,14.24,5.88,16.88,13.45a10.07,10.07,0,0,1-3.3,11.6c-5.53,4-12.63.14-18-3.56Z"/></svg>