<svg id="Layer_1" data-name="Layer 1" xmlns="http://www.w3.org/2000/svg" xmlns:xlink="http://www.w3.org/1999/xlink" viewBox="0 0 798.59 983.14"><defs><style>.cls-1{fill:#f1f1f1;}.cls-2{fill:#fff;}.cls-3{fill:#3f3d56;}.cls-4{fill:#f2f2f2;}.cls-5{fill:#180253;}.cls-6{fill:#ccc;}.cls-7{fill:#ff9d00;}.cls-8{fill:#ffb7b7;}.cls-9{fill:#2f2e41;}.cls-10{fill:#9f616a;}.cls-11{opacity:0.2;isolation:isolate;}.cls-12{fill:#cbcbcb;}.cls-13{fill:#e6e6e6;}.cls-14{fill:#ff7f00;}.cls-15{fill:url(#linear-gradient);}.cls-16{fill:red;}</style><linearGradient id="linear-gradient" x1="546.98" y1="257.72" x2="595.36" y2="257.72" gradientTransform="translate(452.72 711.64) rotate(-90)" gradientUnits="userSpaceOnUse"><stop offset="0" stop-color="#f06d06"/><stop offset="1" stop-color="red"/></linearGradient></defs><g id="undraw_Agreement_re_d4dv" data-name="undraw Agreement re d4dv"><path id="Path_25" data-name="Path 25" class="cls-1" d="M713.88,836.37V766.8S741,816.12,713.88,836.37Z"/><path id="Path_26" data-name="Path 26" class="cls-1" d="M715.56,836.35l-51.19-47S719,802.68,715.56,836.35Z"/><path id="Path_27" data-name="Path 27" class="cls-2" d="M534.82,450.36,262.89,609.28a4.16,4.16,0,0,1-5.69-1.49h0L82.33,308.67a4.16,4.16,0,0,1,1.5-5.68L355.76,144.06a4.16,4.16,0,0,1,5.68,1.48L536.31,444.66A4.18,4.18,0,0,1,534.82,450.36Z"/><path id="Path_28" data-name="Path 28" class="cls-3" d="M534.82,450.36,262.89,609.28a4.16,4.16,0,0,1-5.69-1.49h0L82.33,308.67a4.16,4.16,0,0,1,1.5-5.68L355.76,144.06a4.16,4.16,0,0,1,5.68,1.48L536.31,444.66A4.18,4.18,0,0,1,534.82,450.36Zm-450.14-146a2.47,2.47,0,0,0-.92,3.36l0,0L258.65,606.89a2.5,2.5,0,0,0,3.41.9L534,448.85a2.48,2.48,0,0,0,.91-3.38l0,0L360,146.33a2.5,2.5,0,0,0-3.41-.9Z"/><path id="Path_29" data-name="Path 29" class="cls-4" d="M259.47,334.15,192,373.58a4.17,4.17,0,0,1-5.69-1.51l-39.42-67.43a4.16,4.16,0,0,1,1.49-5.68l67.45-39.42a4.15,4.15,0,0,1,5.67,1.48h0L261,328.47a4.16,4.16,0,0,1-1.48,5.67ZM149.26,300.41a2.5,2.5,0,0,0-.9,3.41l39.42,67.44a2.49,2.49,0,0,0,3.4.89l67.39-39.42a2.5,2.5,0,0,0,.89-3.42h0l-39.27-67.44a2.49,2.49,0,0,0-3.4-.89Z"/><path id="Path_30" data-name="Path 30" class="cls-5" d="M244.91,353.73l-67.44,39.46a3.74,3.74,0,0,1-5.11-1.34l-39.42-67.44a3.76,3.76,0,0,1,1.35-5.12l67.43-39.41a3.73,3.73,0,0,1,5.12,1.34l39.42,67.44A3.74,3.74,0,0,1,244.91,353.73Z"/><path id="Path_31" data-name="Path 31" class="cls-6" d="M407.7,302.86,196.76,426.16a3.74,3.74,0,0,1-4.57-5.93,3.81,3.81,0,0,1,.8-.47h0l210.94-123.3a3.75,3.75,0,0,1,3.77,6.48Z"/><path id="Path_32" data-name="Path 32" class="cls-6" d="M369.76,354.88l-160,93.51a3.74,3.74,0,0,1-4.57-5.93,4,4,0,0,1,.8-.47h0l160-93.51a3.74,3.74,0,0,1,3.78,6.4Z"/><path id="Path_33" data-name="Path 33" class="cls-6" d="M359.19,221.49,265.91,276a3.74,3.74,0,1,1-4.57-5.93,4.25,4.25,0,0,1,.8-.46l93.27-54.52A3.74,3.74,0,0,1,360,221a3.51,3.51,0,0,1-.79.47Z"/><path id="Path_34" data-name="Path 34" class="cls-6" d="M348.9,257.34l-70,40.91a3.74,3.74,0,0,1-3.77-6.39h0l70-41a3.74,3.74,0,0,1,4.57,5.93,4.93,4.93,0,0,1-.8.47Z"/><path id="Path_35" data-name="Path 35" class="cls-6" d="M433.69,347.35,222.76,470.62a3.74,3.74,0,1,1-4.57-5.92,3.51,3.51,0,0,1,.79-.47L429.92,340.88a3.74,3.74,0,1,1,4.57,5.93,3.57,3.57,0,0,1-.8.47Z"/><path id="Path_36" data-name="Path 36" class="cls-6" d="M395.77,399.36l-160,93.51a3.74,3.74,0,1,1-4.57-5.92,3.57,3.57,0,0,1,.8-.47L392,393a3.74,3.74,0,0,1,3.78,6.39Z"/><path id="Path_37" data-name="Path 37" class="cls-6" d="M459.7,391.83,248.77,515.11a3.74,3.74,0,0,1-4.57-5.93,3.51,3.51,0,0,1,.79-.47L455.93,385.43a3.74,3.74,0,1,1,4.57,5.93,3.57,3.57,0,0,1-.8.47Z"/><path id="Path_38" data-name="Path 38" class="cls-6" d="M472.69,414.08,261.77,537.36a3.74,3.74,0,0,1-4.61-5.9,4,4,0,0,1,.85-.5h0L468.93,407.59a3.74,3.74,0,1,1,4.61,5.89,3.17,3.17,0,0,1-.85.5Z"/><path id="Path_39" data-name="Path 39" class="cls-7" d="M404.49,500.65a82.11,82.11,0,0,0,7.88-11A29.43,29.43,0,0,0,417,478.25a11.19,11.19,0,0,0-3.36-9.59,8,8,0,0,0-9.28-1.06,9.44,9.44,0,0,0-4.8,8.43,12.43,12.43,0,0,0,5.33,9.44c6.22,4.51,16,4.29,22.62.85,7.48-3.89,11.34-14,5.47-20.94-1.24-1.44-3.2.16-3,1.73A8.4,8.4,0,0,0,446.59,465l-2.66,1.6A20.22,20.22,0,0,0,464,464.48a19,19,0,0,0,3.75-3.63,22.21,22.21,0,0,1,5.23-4l12.68-8.76c1.87-1.3.1-4.35-1.79-3.06l-11.49,8c-1.9,1.31-3.84,2.62-5.74,4a40.67,40.67,0,0,0-3.44,3.63,16.64,16.64,0,0,1-17.5,2.94,1.8,1.8,0,0,0-2.43.72h0a1.92,1.92,0,0,0-.21.82,4.84,4.84,0,0,1-9.59,1.28h0v-.13L430.54,468c3.79,4.46,1.27,11.32-3.1,14.39a20.11,20.11,0,0,1-17.6,1.84,10.39,10.39,0,0,1-6.12-5.61,6.22,6.22,0,0,1,1.41-7.09,4.47,4.47,0,0,1,6.19,0,7.91,7.91,0,0,1,2.09,7.17,28.74,28.74,0,0,1-4.35,9.87,78.15,78.15,0,0,1-7.05,9.82c-1.48,1.72,1.05,4.22,2.54,2.48Z"/><path id="Path_40" data-name="Path 40" class="cls-8" d="M436,585a8.38,8.38,0,0,1,.84,1l39.27-1,4.59-8.37,13.54,5.27-6.67,15.61a6.42,6.42,0,0,1-6.59,3.81L436.57,596a8.32,8.32,0,1,1-1.38-11.68h0a9.72,9.72,0,0,1,.77.67Z"/><path id="Path_41" data-name="Path 41" class="cls-8" d="M564.09,823.48H551.18L544.9,773.7h19.19Z"/><path id="Path_42" data-name="Path 42" class="cls-9" d="M567.29,836H525.7v-.53a16.2,16.2,0,0,1,16.21-16.2h25.38Z"/><path id="Path_43" data-name="Path 43" class="cls-8" d="M446.73,823.22l-11.87-5.07,13.92-48.23,17.59,7.5Z"/><path id="Path_44" data-name="Path 44" class="cls-9" d="M444.84,836.05l-38.29-16.38.21-.48A16.23,16.23,0,0,1,428,810.65h0l23.39,10Z"/><path id="Path_45" data-name="Path 45" class="cls-8" d="M501.23,595.76l-.93,15.13,27.31,2.93,28.48,3-8.39-23Z"/><path id="Path_46" data-name="Path 46" class="cls-9" d="M499.44,611.08l-10.53-73.93,18.4-6,5.39-7.41,26.28,1.6,3.85,8.64,14,6.62-2.16,40,1.6,33.45Z"/><path id="Path_47" data-name="Path 47" class="cls-9" d="M492.77,591.28l-18.7-7.49v-.33c.08-.34,8-33.59,9.1-38.93a9.26,9.26,0,0,1,5.29-7.17h.12l7.4,2.25,3.2,25.6Z"/><path id="Path_48" data-name="Path 48" class="cls-9" d="M456.36,814.47l-24.89-5.1,39.85-109.78,13.61-37.43s8.64-30,12.54-41.59l2.35-15.6,55.73,6.18s15.58,22.86,10.84,60.13l2.15,140-24.89,1.28-20.8-141.24-36.58,77.43s-11.53,33-19.78,40.2Z"/><path id="Path_49" data-name="Path 49" class="cls-8" d="M533.14,616.3a9.55,9.55,0,0,1,1.31,0l26-29.47-3-9.05,13-6.4,6.93,15.52a6.39,6.39,0,0,1-1.7,7.4l-34,29a8.32,8.32,0,1,1-9.5-7A7.7,7.7,0,0,1,533.14,616.3Z"/><path id="Path_50" data-name="Path 50" class="cls-9" d="M558.38,589.78l-10.84-25.44,4.22-17.75,4.56-5.76a2.59,2.59,0,0,1,2.11,0c1.6.67,3.12,2.75,4.25,6.16l10.16,29Z"/><path id="Path_51" data-name="Path 51" class="cls-9" d="M502.11,514.28v-19.2a25.77,25.77,0,0,1,51.54-.43v19.68a3.46,3.46,0,0,1-3.46,3.45H505.56a3.45,3.45,0,0,1-3.45-3.45Z"/><circle id="Ellipse_65" data-name="Ellipse 65" class="cls-8" cx="522.58" cy="498.39" r="18.89"/><path id="Path_52" data-name="Path 52" class="cls-9" d="M496,496.57a20.41,20.41,0,0,1,20.39-20.38h3.86a20.42,20.42,0,0,1,20.38,20.38V497H532.5l-2.77-7.79-.56,7.76H525L523.57,493l-.27,3.92H496Z"/><path id="Path_53" data-name="Path 53" class="cls-9" d="M520.73,519.91a3.43,3.43,0,0,1-.28-3.63c4.08-7.76,9.79-22.08,2.23-30.92l-.55-.64h22v33l-20,3.52h-.62A3.47,3.47,0,0,1,520.73,519.91Z"/><path id="Path_54" data-name="Path 54" class="cls-10" d="M264.14,812.63l11.68,4.17,21.64-43-17.23-6.16Z"/><path id="Path_55" data-name="Path 55" class="cls-9" d="M257.12,822.88l5.4-15.13,23,8.22a15.56,15.56,0,0,1,9.42,19.89l-.18.48Z"/><path id="Path_56" data-name="Path 56" class="cls-10" d="M340,824.18h12.4l5.9-47.81H340.05Z"/><path id="Path_57" data-name="Path 57" class="cls-9" d="M337,820.13h24.41a15.55,15.55,0,0,1,15.55,15.55h0v.59H337Z"/><path id="Path_58" data-name="Path 58" class="cls-1" d="M311.79,518.74l5.39-10.65s20.09,5,21.91,16.66Z"/><path id="Path_59" data-name="Path 59" class="cls-9" d="M289.56,640.53l14.65,81.8-38.92,68.79,23.26,9.1L328,733.48l5-18.18,3,95,21-.64L366.62,721,351.2,638.45Z"/><path id="Path_60" data-name="Path 60" class="cls-3" d="M317.39,659.87a135.53,135.53,0,0,1-35.53-4.19l-.49-.1,11.19-52,.52-48c0-20.33,13.37-35.32,15.24-36.7a8.69,8.69,0,0,1,4.64-5.72c4.46-2,9.92.41,10.16.51l16.36,6.14V520c.19.57,21.75,71.37,21.75,71.37s-1.31,61.84-1.76,63.85C359.57,655.28,329.35,659.87,317.39,659.87Z"/><circle id="Ellipse_66" data-name="Ellipse 66" class="cls-10" cx="333.94" cy="482.61" r="22.12"/><path id="Path_61" data-name="Path 61" class="cls-11" d="M309.26,559.55l38.71,54,5.71-25.22Z"/><path id="Path_62" data-name="Path 62" class="cls-10" d="M430.61,596.34a9.51,9.51,0,0,1-13.34-1.6,9.94,9.94,0,0,1-.92-1.4L383,598.67l7.21-16,30.54-2.6a9.6,9.6,0,0,1,9.82,16.27Z"/><path id="Path_63" data-name="Path 63" class="cls-1" d="M392,581.76l12-1.18,3.39,16.7-15.07.27Z"/><path id="Path_64" data-name="Path 64" class="cls-3" d="M401.78,603.1l-58.62-5.17-29.59-47.07-.1-.42a16.2,16.2,0,0,1,30.26-10.84l17.38,33.89,35,5.25Z"/><path id="Path_65" data-name="Path 65" class="cls-9" d="M315.09,501.82l18.36.65c1.12,0,4.16-12,4.56-14.54a6.85,6.85,0,0,1,7.13-5.55c1.38.13,4.8-2.43,8.42-5.47a13.48,13.48,0,0,0,1.74-19l0,0a13.4,13.4,0,0,0-2.75-2.51l-.59-.37a32.68,32.68,0,0,0-15.61-3.58,29.2,29.2,0,0,0-14.22,2.86c-7.73,4.16-11.82,13.22-12.19,22s2.45,17.31,5.63,25.48"/><path id="Path_66" data-name="Path 66" class="cls-12" d="M775.43,837.06h-715a1,1,0,0,1-1-.91h0a1,1,0,0,1,.93-1H775.83a1,1,0,0,1,1,1h0C776.84,836.62,776,837.06,775.43,837.06Z"/></g><g id="undraw_Business_decisions_re_84ag" data-name="undraw Business decisions re 84ag"><circle id="Ellipse_3" data-name="Ellipse 3" class="cls-13" cx="670.02" cy="384.98" r="7.85"/><circle id="Ellipse_4" data-name="Ellipse 4" class="cls-13" cx="670.02" cy="345.24" r="7.85"/><circle id="Ellipse_5" data-name="Ellipse 5" class="cls-13" cx="670.02" cy="305.51" r="7.85"/><circle id="Ellipse_6" data-name="Ellipse 6" class="cls-13" cx="670.02" cy="265.78" r="7.85"/><circle id="Ellipse_7" data-name="Ellipse 7" class="cls-13" cx="670.02" cy="226.05" r="7.85"/><circle id="Ellipse_8" data-name="Ellipse 8" class="cls-13" cx="710.25" cy="384.98" r="7.85"/><circle id="Ellipse_9" data-name="Ellipse 9" class="cls-13" cx="710.25" cy="345.24" r="7.85"/><circle id="Ellipse_10" data-name="Ellipse 10" class="cls-13" cx="710.25" cy="305.51" r="7.85"/><circle id="Ellipse_11" data-name="Ellipse 11" class="cls-14" cx="710.25" cy="265.78" r="7.85"/><circle id="Ellipse_12" data-name="Ellipse 12" class="cls-13" cx="710.25" cy="226.05" r="7.85"/><circle id="Ellipse_13" data-name="Ellipse 13" class="cls-13" cx="710.25" cy="146.58" r="7.85"/><circle id="Ellipse_14" data-name="Ellipse 14" class="cls-13" cx="750.48" cy="384.98" r="7.85"/><circle id="Ellipse_15" data-name="Ellipse 15" class="cls-13" cx="750.48" cy="345.24" r="7.85"/><circle id="Ellipse_16" data-name="Ellipse 16" class="cls-13" cx="750.48" cy="305.51" r="7.85"/><circle id="Ellipse_17" data-name="Ellipse 17" class="cls-13" cx="750.48" cy="265.78" r="7.85"/><circle id="Ellipse_18" data-name="Ellipse 18" class="cls-13" cx="750.48" cy="226.05" r="7.85"/><circle id="Ellipse_19" data-name="Ellipse 19" class="cls-13" cx="790.71" cy="384.98" r="7.85"/><circle id="Ellipse_20" data-name="Ellipse 20" class="cls-13" cx="790.71" cy="345.24" r="7.85"/><circle id="Ellipse_21" data-name="Ellipse 21" class="cls-13" cx="790.71" cy="305.51" r="7.85"/><circle id="Ellipse_22" data-name="Ellipse 22" class="cls-13" cx="790.71" cy="265.78" r="7.85"/><circle id="Ellipse_23" data-name="Ellipse 23" class="cls-13" cx="790.71" cy="226.05" r="7.85"/><circle id="Ellipse_24" data-name="Ellipse 24" class="cls-13" cx="790.71" cy="186.31" r="7.85"/><circle id="Ellipse_25" data-name="Ellipse 25" class="cls-13" cx="790.71" cy="146.58" r="7.85"/><circle id="Ellipse_26" data-name="Ellipse 26" class="cls-13" cx="790.71" cy="106.85" r="7.85"/><circle id="Ellipse_27" data-name="Ellipse 27" class="cls-13" cx="790.74" cy="67.13" r="7.85" transform="translate(597.78 836.9) rotate(-80.78)"/><circle id="Ellipse_28" data-name="Ellipse 28" class="cls-13" cx="790.71" cy="27.39" r="7.85"/><path id="Path_16" data-name="Path 16" class="cls-13" d="M754.77,3.33V183.17c0,1.84-2.58,3.33-5.76,3.33H671.85c-3.18,0-5.75-1.49-5.76-3.33V3.33c0-1.84,2.58-3.33,5.76-3.33H749C752.19,0,754.77,1.49,754.77,3.33ZM668.4,183.17c0,1.1,1.55,2,3.46,2H749c1.9,0,3.45-.89,3.45-2V3.33c0-1.11-1.54-2-3.45-2H671.85c-1.91,0-3.46.89-3.46,2h0Z"/><circle id="Ellipse_62" data-name="Ellipse 62" class="cls-15" cx="710.44" cy="140.47" r="24.19"/><path id="Path_17" data-name="Path 17" class="cls-13" d="M694.3,86.05c0,1.42,1.81,2.57,4,2.57s4-1.15,4-2.57V17.88c0-1.41-1.8-2.56-4-2.56s-4,1.15-4,2.56Z"/><path id="Path_18" data-name="Path 18" class="cls-13" d="M718.46,105c0,1,1.81,1.87,4,1.87s4-.84,4-1.87V17.18c0-1-1.81-1.86-4-1.86s-4,.83-4,1.86Z"/></g><circle id="Ellipse_32" data-name="Ellipse 32" class="cls-13" cx="7.51" cy="860.11" r="7.51"/><circle id="Ellipse_33" data-name="Ellipse 33" class="cls-13" cx="45.52" cy="860.15" r="7.51"/><circle id="Ellipse_34" data-name="Ellipse 34" class="cls-13" cx="83.54" cy="860.11" r="7.51"/><circle id="Ellipse_38" data-name="Ellipse 38" class="cls-13" cx="7.51" cy="898.6" r="7.51"/><circle id="Ellipse_39" data-name="Ellipse 39" class="cls-16" cx="45.51" cy="898.64" r="7.51"/><circle id="Ellipse_40" data-name="Ellipse 40" class="cls-13" cx="83.54" cy="898.6" r="7.51"/><circle id="Ellipse_44" data-name="Ellipse 44" class="cls-13" cx="7.51" cy="937.09" r="7.51"/><circle id="Ellipse_45" data-name="Ellipse 45" class="cls-13" cx="45.53" cy="937.13" r="7.51"/><circle id="Ellipse_46" data-name="Ellipse 46" class="cls-13" cx="83.54" cy="937.09" r="7.51"/><circle id="Ellipse_54" data-name="Ellipse 54" class="cls-13" cx="7.51" cy="975.59" r="7.51"/><circle id="Ellipse_55" data-name="Ellipse 55" class="cls-13" cx="45.53" cy="975.63" r="7.51"/><circle id="Ellipse_56" data-name="Ellipse 56" class="cls-13" cx="83.54" cy="975.59" r="7.51"/></svg>