<svg id="Layer_1" data-name="Layer 1" xmlns="http://www.w3.org/2000/svg" xmlns:xlink="http://www.w3.org/1999/xlink" viewBox="0 0 862.66 983.1"><defs><style>.cls-1{fill:url(#linear-gradient);}.cls-2{fill:#f1f1f1;}.cls-3{fill:#fff;}.cls-4{fill:#3f3d56;}.cls-5{fill:#f2f2f2;}.cls-6{fill:#180253;}.cls-7{fill:#ccc;}.cls-8{fill:#ff9d00;}.cls-9{fill:#ffb7b7;}.cls-10{fill:#2f2e41;}.cls-11{fill:#9f616a;}.cls-12{opacity:0.2;isolation:isolate;}.cls-13{fill:#cbcbcb;}.cls-14{fill:#e6e6e6;}.cls-15{fill:#ff7f00;}.cls-16{fill:url(#linear-gradient-2);}.cls-17{fill:red;}</style><linearGradient id="linear-gradient" x1="77.68" y1="573.17" x2="917.25" y2="573.17" gradientUnits="userSpaceOnUse"><stop offset="0" stop-color="#f06d06"/><stop offset="1" stop-color="red"/></linearGradient><linearGradient id="linear-gradient-2" x1="645.98" y1="827.28" x2="694.36" y2="827.28" gradientTransform="matrix(0, -1, -1, 0, 1537.72, 810.64)" xlink:href="#linear-gradient"/></defs><g id="Component_2_5" data-name="Component 2 5"><path id="Path_180" data-name="Path 180" class="cls-1" d="M144.42,289c189.19-82.23,966.44-132.36,727.71,388.39s-643.75,0-643.75,0S-44.77,371.26,144.42,289Z" transform="translate(-54.6 -32.42)"/></g><g id="undraw_Agreement_re_d4dv" data-name="undraw Agreement re d4dv"><path id="Path_25" data-name="Path 25" class="cls-2" d="M752.64,785.06V741.57S769.59,772.4,752.64,785.06Z" transform="translate(-54.6 -32.42)"/><path id="Path_26" data-name="Path 26" class="cls-2" d="M753.69,785.05l-32-29.41S755.82,764,753.69,785.05Z" transform="translate(-54.6 -32.42)"/><path id="Path_27" data-name="Path 27" class="cls-3" d="M640.7,543.74l-170,99.35a2.6,2.6,0,0,1-3.56-.93l-109.32-187a2.6,2.6,0,0,1,.94-3.55l170-99.36a2.6,2.6,0,0,1,3.55.93l109.32,187A2.61,2.61,0,0,1,640.7,543.74Z" transform="translate(-54.6 -32.42)"/><path id="Path_28" data-name="Path 28" class="cls-4" d="M640.7,543.74l-170,99.35a2.6,2.6,0,0,1-3.56-.93l-109.32-187a2.6,2.6,0,0,1,.94-3.55l170-99.36a2.6,2.6,0,0,1,3.55.93l109.32,187A2.61,2.61,0,0,1,640.7,543.74ZM359.29,452.47a1.54,1.54,0,0,0-.56,2.13l109.32,187a1.56,1.56,0,0,0,2.13.56l170-99.36a1.55,1.55,0,0,0,.56-2.13l-109.32-187a1.56,1.56,0,0,0-2.13-.56Z" transform="translate(-54.6 -32.42)"/><path id="Path_29" data-name="Path 29" class="cls-5" d="M468.56,471.09,426.4,495.74a2.61,2.61,0,0,1-3.56-.94L398.2,452.64a2.6,2.6,0,0,1,.93-3.55l42.17-24.64a2.59,2.59,0,0,1,3.55.93l24.64,42.16A2.59,2.59,0,0,1,468.56,471.09ZM399.66,450a1.56,1.56,0,0,0-.56,2.13l24.64,42.16a1.57,1.57,0,0,0,2.13.56L468,470.2a1.56,1.56,0,0,0,.55-2.14L444,425.9a1.56,1.56,0,0,0-2.13-.56Z" transform="translate(-54.6 -32.42)"/><path id="Path_30" data-name="Path 30" class="cls-6" d="M459.46,483.33,417.3,508a2.34,2.34,0,0,1-3.2-.84L389.46,465a2.35,2.35,0,0,1,.84-3.2l42.16-24.64a2.34,2.34,0,0,1,3.2.84l24.64,42.16A2.34,2.34,0,0,1,459.46,483.33Z" transform="translate(-54.6 -32.42)"/><path id="Path_31" data-name="Path 31" class="cls-7" d="M561.23,451.53,429.36,528.61a2.34,2.34,0,1,1-2.36-4h0l131.87-77.08a2.34,2.34,0,0,1,2.36,4.05Z" transform="translate(-54.6 -32.42)"/><path id="Path_32" data-name="Path 32" class="cls-7" d="M537.51,484.05l-100,58.46a2.34,2.34,0,1,1-2.36-4h0l100-58.46a2.34,2.34,0,0,1,2.36,4Z" transform="translate(-54.6 -32.42)"/><path id="Path_33" data-name="Path 33" class="cls-7" d="M530.9,400.66l-58.31,34.08a2.34,2.34,0,1,1-2.36-4l58.31-34.08a2.34,2.34,0,1,1,2.36,4Z" transform="translate(-54.6 -32.42)"/><path id="Path_34" data-name="Path 34" class="cls-7" d="M524.47,423.07l-43.76,25.58a2.34,2.34,0,0,1-2.36-4h0L522.11,419a2.34,2.34,0,1,1,2.36,4Z" transform="translate(-54.6 -32.42)"/><path id="Path_35" data-name="Path 35" class="cls-7" d="M577.48,479.34,445.61,556.41a2.34,2.34,0,1,1-2.36-4L575.12,475.3a2.34,2.34,0,1,1,2.36,4Z" transform="translate(-54.6 -32.42)"/><path id="Path_36" data-name="Path 36" class="cls-7" d="M553.77,511.86l-100,58.46a2.34,2.34,0,1,1-2.36-4l100-58.46a2.34,2.34,0,0,1,2.36,4Z" transform="translate(-54.6 -32.42)"/><path id="Path_37" data-name="Path 37" class="cls-7" d="M593.74,507.15,461.87,584.22a2.34,2.34,0,1,1-2.36-4l131.87-77.07a2.34,2.34,0,1,1,2.36,4Z" transform="translate(-54.6 -32.42)"/><path id="Path_38" data-name="Path 38" class="cls-7" d="M601.86,521.06,470,598.13a2.34,2.34,0,1,1-2.35-4h0L599.51,517a2.34,2.34,0,1,1,2.35,4Z" transform="translate(-54.6 -32.42)"/><path id="Path_39" data-name="Path 39" class="cls-8" d="M559.22,575.18a50.78,50.78,0,0,0,4.93-6.89,18.38,18.38,0,0,0,2.86-7.11,7,7,0,0,0-2.1-6,5,5,0,0,0-5.8-.66,5.89,5.89,0,0,0-3,5.27,7.77,7.77,0,0,0,3.33,5.9c3.89,2.82,10,2.68,14.14.53,4.68-2.43,7.09-8.76,3.42-13.09-.77-.9-2,.1-1.85,1.08a5.25,5.25,0,0,0,10.39-1.29l-1.66,1a12.65,12.65,0,0,0,12.56-1.35,11.71,11.71,0,0,0,2.34-2.27,14,14,0,0,1,3.27-2.5l7.93-5.48c1.17-.81.06-2.72-1.12-1.91l-7.18,5c-1.19.82-2.4,1.64-3.59,2.48a25.63,25.63,0,0,0-2.15,2.27A10.4,10.4,0,0,1,585,552a1.12,1.12,0,0,0-1.52.45,1.17,1.17,0,0,0-.13.51,3,3,0,1,1-6,.8.25.25,0,0,0,0-.08l-1.84,1.08c2.37,2.79.79,7.08-1.94,9a12.58,12.58,0,0,1-11,1.15,6.5,6.5,0,0,1-3.83-3.51,3.89,3.89,0,0,1,.88-4.43,2.79,2.79,0,0,1,3.87,0,4.94,4.94,0,0,1,1.31,4.48,18,18,0,0,1-2.72,6.17,48.41,48.41,0,0,1-4.41,6.14c-.92,1.08.66,2.64,1.59,1.55Z" transform="translate(-54.6 -32.42)"/><path id="Path_40" data-name="Path 40" class="cls-9" d="M578.9,627.89a5.46,5.46,0,0,1,.53.64l24.55-.61,2.87-5.23,8.46,3.29-4.17,9.76a4,4,0,0,1-4.12,2.38l-27.74-3.35a5.2,5.2,0,1,1-.86-7.3,4.81,4.81,0,0,1,.48.42Z" transform="translate(-54.6 -32.42)"/><path id="Path_41" data-name="Path 41" class="cls-9" d="M659,777h-8.07L647,745.88H659Z" transform="translate(-54.6 -32.42)"/><path id="Path_42" data-name="Path 42" class="cls-10" d="M661,784.85H635v-.33a10.13,10.13,0,0,1,10.13-10.13H661Z" transform="translate(-54.6 -32.42)"/><path id="Path_43" data-name="Path 43" class="cls-9" d="M585.63,776.84l-7.42-3.17,8.7-30.15,11,4.69Z" transform="translate(-54.6 -32.42)"/><path id="Path_44" data-name="Path 44" class="cls-10" d="M584.45,784.86l-23.94-10.24.13-.3a10.15,10.15,0,0,1,13.3-5.34h0l14.62,6.25Z" transform="translate(-54.6 -32.42)"/><path id="Path_45" data-name="Path 45" class="cls-9" d="M619.7,634.64l-.58,9.46,17.07,1.83L654,647.84l-5.25-14.37Z" transform="translate(-54.6 -32.42)"/><path id="Path_46" data-name="Path 46" class="cls-10" d="M618.58,644.22,612,598l11.5-3.76,3.37-4.63,16.43,1,2.41,5.4,8.76,4.14-1.35,25,1,20.91Z" transform="translate(-54.6 -32.42)"/><path id="Path_47" data-name="Path 47" class="cls-10" d="M614.41,631.84l-11.69-4.68,0-.21c.05-.21,5-21,5.69-24.34a5.79,5.79,0,0,1,3.31-4.48l.07,0,4.63,1.41,2,16Z" transform="translate(-54.6 -32.42)"/><path id="Path_48" data-name="Path 48" class="cls-10" d="M591.65,771.37l-15.56-3.19L601,699.55l8.51-23.4s5.4-18.77,7.84-26l1.47-9.75,34.84,3.86s9.74,14.29,6.78,37.59l1.34,87.55-15.56.8-13-88.3-22.87,48.41s-7.21,20.65-12.37,25.13Z" transform="translate(-54.6 -32.42)"/><path id="Path_49" data-name="Path 49" class="cls-9" d="M639.65,647.48a5.64,5.64,0,0,1,.82,0l16.26-18.42-1.89-5.66,8.16-4,4.33,9.7a4,4,0,0,1-1.06,4.63L645,651.88a5.2,5.2,0,1,1-5.94-4.34C639.22,647.51,639.44,647.49,639.65,647.48Z" transform="translate(-54.6 -32.42)"/><path id="Path_50" data-name="Path 50" class="cls-10" d="M655.43,630.9,648.65,615l2.64-11.1,2.85-3.6a1.6,1.6,0,0,1,1.32,0c1,.42,1.95,1.72,2.66,3.85l6.35,18.1Z" transform="translate(-54.6 -32.42)"/><path id="Path_51" data-name="Path 51" class="cls-10" d="M620.25,583.7v-12a16.11,16.11,0,0,1,32.22-.27v12.3a2.16,2.16,0,0,1-2.16,2.16h-27.9a2.16,2.16,0,0,1-2.16-2.16Z" transform="translate(-54.6 -32.42)"/><circle id="Ellipse_65" data-name="Ellipse 65" class="cls-9" cx="578.45" cy="541.35" r="11.81"/><path id="Path_52" data-name="Path 52" class="cls-10" d="M616.43,572.63a12.76,12.76,0,0,1,12.75-12.74h2.41a12.76,12.76,0,0,1,12.74,12.74v.24h-5.08L637.52,568l-.35,4.85h-2.62l-.88-2.45-.17,2.45H616.43Z" transform="translate(-54.6 -32.42)"/><path id="Path_53" data-name="Path 53" class="cls-10" d="M631.89,587.22a2.14,2.14,0,0,1-.17-2.27c2.55-4.85,6.12-13.8,1.39-19.33l-.34-.4h13.75v20.65L634,588.07a2.58,2.58,0,0,1-.39,0A2.17,2.17,0,0,1,631.89,587.22Z" transform="translate(-54.6 -32.42)"/><path id="Path_54" data-name="Path 54" class="cls-11" d="M471.48,770.22l7.3,2.61,13.53-26.91-10.77-3.85Z" transform="translate(-54.6 -32.42)"/><path id="Path_55" data-name="Path 55" class="cls-10" d="M467.09,776.63l3.38-9.46,14.37,5.14a9.73,9.73,0,0,1,5.89,12.43l-.11.3Z" transform="translate(-54.6 -32.42)"/><path id="Path_56" data-name="Path 56" class="cls-11" d="M518.93,777.44h7.75l3.69-29.89H518.94Z" transform="translate(-54.6 -32.42)"/><path id="Path_57" data-name="Path 57" class="cls-10" d="M517,774.91h15.26a9.72,9.72,0,0,1,9.72,9.72h0V785H517Z" transform="translate(-54.6 -32.42)"/><path id="Path_58" data-name="Path 58" class="cls-2" d="M501.27,586.49l3.37-6.66s12.56,3.14,13.7,10.42Z" transform="translate(-54.6 -32.42)"/><path id="Path_59" data-name="Path 59" class="cls-10" d="M487.37,662.63l9.16,51.14-24.33,43,14.54,5.69,24.65-41.72,3.16-11.37,1.89,59.42,13.11-.4,6-55.48-9.64-51.58Z" transform="translate(-54.6 -32.42)"/><path id="Path_60" data-name="Path 60" class="cls-4" d="M504.77,674.72a84.8,84.8,0,0,1-22.21-2.62l-.31-.06,7-32.52.32-30c0-12.71,8.36-22.08,9.53-22.94A5.46,5.46,0,0,1,502,583c2.79-1.27,6.2.26,6.35.32l10.23,3.84,0,.14c.12.36,13.6,44.62,13.6,44.62s-.82,38.66-1.1,39.92C531.14,671.85,512.25,674.72,504.77,674.72Z" transform="translate(-54.6 -32.42)"/><circle id="Ellipse_66" data-name="Ellipse 66" class="cls-11" cx="460.52" cy="531.48" r="13.83"/><path id="Path_61" data-name="Path 61" class="cls-12" d="M499.69,612l24.2,33.77L527.46,630Z" transform="translate(-54.6 -32.42)"/><path id="Path_62" data-name="Path 62" class="cls-11" d="M575.55,635a5.94,5.94,0,0,1-8.34-1,5.67,5.67,0,0,1-.57-.87l-20.83,3.33,4.51-10,19.09-1.63A6,6,0,0,1,575.55,635Z" transform="translate(-54.6 -32.42)"/><path id="Path_63" data-name="Path 63" class="cls-2" d="M551.4,625.89l7.48-.74L561,635.59l-9.42.17Z" transform="translate(-54.6 -32.42)"/><path id="Path_64" data-name="Path 64" class="cls-4" d="M557.53,639.23,520.88,636l-18.5-29.43-.06-.26a10.13,10.13,0,0,1,18.92-6.78l10.86,21.19L554,624Z" transform="translate(-54.6 -32.42)"/><path id="Path_65" data-name="Path 65" class="cls-10" d="M503.33,575.91l11.48.41c.7,0,2.6-7.53,2.85-9.09a4.28,4.28,0,0,1,4.46-3.47c.86.08,3-1.52,5.26-3.42a8.42,8.42,0,0,0,1.08-11.87,8.28,8.28,0,0,0-1.72-1.57l-.37-.23a20.43,20.43,0,0,0-9.76-2.24,18.21,18.21,0,0,0-8.89,1.79c-4.83,2.6-7.39,8.26-7.62,13.74s1.53,10.82,3.52,15.93" transform="translate(-54.6 -32.42)"/><path id="Path_66" data-name="Path 66" class="cls-13" d="M791.12,785.49h-447a.6.6,0,0,1-.63-.57.61.61,0,0,1,.58-.63h447.3a.6.6,0,0,1,.6.6h0C792,785.22,791.45,785.49,791.12,785.49Z" transform="translate(-54.6 -32.42)"/></g><g id="undraw_Business_decisions_re_84ag" data-name="undraw Business decisions re 84ag"><circle id="Ellipse_3" data-name="Ellipse 3" class="cls-14" cx="670.02" cy="384.98" r="7.85"/><circle id="Ellipse_4" data-name="Ellipse 4" class="cls-14" cx="670.02" cy="345.24" r="7.85"/><circle id="Ellipse_5" data-name="Ellipse 5" class="cls-14" cx="670.02" cy="305.51" r="7.85"/><circle id="Ellipse_6" data-name="Ellipse 6" class="cls-14" cx="670.02" cy="265.78" r="7.85"/><circle id="Ellipse_7" data-name="Ellipse 7" class="cls-14" cx="670.02" cy="226.05" r="7.85"/><circle id="Ellipse_8" data-name="Ellipse 8" class="cls-14" cx="710.25" cy="384.98" r="7.85"/><circle id="Ellipse_9" data-name="Ellipse 9" class="cls-14" cx="710.25" cy="345.24" r="7.85"/><circle id="Ellipse_10" data-name="Ellipse 10" class="cls-14" cx="710.25" cy="305.51" r="7.85"/><circle id="Ellipse_11" data-name="Ellipse 11" class="cls-15" cx="710.25" cy="265.78" r="7.85"/><circle id="Ellipse_12" data-name="Ellipse 12" class="cls-14" cx="710.25" cy="226.05" r="7.85"/><circle id="Ellipse_13" data-name="Ellipse 13" class="cls-14" cx="710.25" cy="146.58" r="7.85"/><circle id="Ellipse_14" data-name="Ellipse 14" class="cls-14" cx="750.48" cy="384.98" r="7.85"/><circle id="Ellipse_15" data-name="Ellipse 15" class="cls-14" cx="750.48" cy="345.24" r="7.85"/><circle id="Ellipse_16" data-name="Ellipse 16" class="cls-14" cx="750.48" cy="305.51" r="7.85"/><circle id="Ellipse_17" data-name="Ellipse 17" class="cls-14" cx="750.48" cy="265.78" r="7.85"/><circle id="Ellipse_18" data-name="Ellipse 18" class="cls-14" cx="750.48" cy="226.05" r="7.85"/><circle id="Ellipse_19" data-name="Ellipse 19" class="cls-14" cx="790.71" cy="384.98" r="7.85"/><circle id="Ellipse_20" data-name="Ellipse 20" class="cls-14" cx="790.71" cy="345.24" r="7.85"/><circle id="Ellipse_21" data-name="Ellipse 21" class="cls-14" cx="790.71" cy="305.51" r="7.85"/><circle id="Ellipse_22" data-name="Ellipse 22" class="cls-14" cx="790.71" cy="265.78" r="7.85"/><circle id="Ellipse_23" data-name="Ellipse 23" class="cls-14" cx="790.71" cy="226.05" r="7.85"/><circle id="Ellipse_24" data-name="Ellipse 24" class="cls-14" cx="790.71" cy="186.31" r="7.85"/><circle id="Ellipse_25" data-name="Ellipse 25" class="cls-14" cx="790.71" cy="146.58" r="7.85"/><circle id="Ellipse_26" data-name="Ellipse 26" class="cls-14" cx="790.71" cy="106.85" r="7.85"/><circle id="Ellipse_27" data-name="Ellipse 27" class="cls-14" cx="845.3" cy="99.54" r="7.85" transform="translate(557.05 885.56) rotate(-80.78)"/><circle id="Ellipse_28" data-name="Ellipse 28" class="cls-14" cx="790.71" cy="27.39" r="7.85"/><path id="Path_16" data-name="Path 16" class="cls-14" d="M809.37,35.75V215.59c0,1.84-2.58,3.33-5.76,3.33H726.45c-3.18,0-5.75-1.49-5.76-3.33V35.75c0-1.84,2.58-3.33,5.76-3.33h77.16C806.79,32.42,809.37,33.91,809.37,35.75ZM723,215.59c0,1.1,1.55,2,3.46,2h77.16c1.9,0,3.45-.89,3.45-2V35.75c0-1.11-1.54-2-3.45-2H726.45c-1.91,0-3.46.89-3.46,2h0Z" transform="translate(-54.6 -32.42)"/><circle id="Ellipse_62" data-name="Ellipse 62" class="cls-16" cx="710.44" cy="140.47" r="24.19"/><path id="Path_17" data-name="Path 17" class="cls-14" d="M748.9,118.47c0,1.42,1.81,2.57,4,2.57s4-1.15,4-2.57V50.3c0-1.41-1.8-2.56-4-2.56s-4,1.15-4,2.56Z" transform="translate(-54.6 -32.42)"/><path id="Path_18" data-name="Path 18" class="cls-14" d="M773.06,137.4c0,1,1.81,1.87,4,1.87s4-.84,4-1.87V49.6c0-1-1.81-1.86-4-1.86s-4,.83-4,1.86Z" transform="translate(-54.6 -32.42)"/></g><circle id="Ellipse_32" data-name="Ellipse 32" class="cls-14" cx="7.51" cy="860.11" r="7.51"/><circle id="Ellipse_33" data-name="Ellipse 33" class="cls-14" cx="100.12" cy="892.52" r="7.51" transform="translate(-851.51 815.97) rotate(-80.78)"/><circle id="Ellipse_34" data-name="Ellipse 34" class="cls-14" cx="83.54" cy="860.11" r="7.51"/><circle id="Ellipse_38" data-name="Ellipse 38" class="cls-14" cx="7.51" cy="898.6" r="7.51"/><circle id="Ellipse_39" data-name="Ellipse 39" class="cls-17" cx="100.12" cy="931.01" r="7.51" transform="translate(-889.51 848.29) rotate(-80.78)"/><circle id="Ellipse_40" data-name="Ellipse 40" class="cls-14" cx="83.54" cy="898.6" r="7.51"/><circle id="Ellipse_44" data-name="Ellipse 44" class="cls-14" cx="7.51" cy="937.09" r="7.51"/><circle id="Ellipse_45" data-name="Ellipse 45" class="cls-14" cx="100.12" cy="969.51" r="7.51" transform="translate(-927.5 880.62) rotate(-80.78)"/><circle id="Ellipse_46" data-name="Ellipse 46" class="cls-14" cx="83.54" cy="937.09" r="7.51"/><circle id="Ellipse_54" data-name="Ellipse 54" class="cls-14" cx="7.51" cy="975.59" r="7.51"/><circle id="Ellipse_55" data-name="Ellipse 55" class="cls-14" cx="100.12" cy="1008.01" r="7.51" transform="translate(-965.5 912.95) rotate(-80.78)"/><circle id="Ellipse_56" data-name="Ellipse 56" class="cls-14" cx="83.54" cy="975.59" r="7.51"/></svg>