<svg id="Layer_1" data-name="Layer 1" xmlns="http://www.w3.org/2000/svg" xmlns:xlink="http://www.w3.org/1999/xlink" viewBox="0 0 660.54 317.27"><defs><style>.cls-1,.cls-2{isolation:isolate;}.cls-2{font-size:161px;fill:#fff;font-family:Righteous-Regular, Righteous;}.cls-3{letter-spacing:-0.01em;}.cls-4{fill:url(#linear-gradient);}</style><linearGradient id="linear-gradient" x1="652.31" y1="300.11" x2="850.51" y2="300.11" gradientUnits="userSpaceOnUse"><stop offset="0" stop-color="#fb8c0a"/><stop offset="1" stop-color="#ff5858"/></linearGradient></defs><g id="Group_2" data-name="Group 2"><g id="Group_1" data-name="Group 1"><g id="Staark" class="cls-1"><text class="cls-2" transform="translate(0 136.87)"><tspan class="cls-3">S</tspan><tspan x="96.93" y="0">taark</tspan></text></g><path id="x" class="cls-4" d="M847.05,163.47q3.23-2.19,3.44-5.15a6.74,6.74,0,0,0-1.48-5,10.27,10.27,0,0,0-4.3-3c-1.74-.66-3.53-.28-5.36,1.16a220.8,220.8,0,0,0-20.7,16.94q-12.58,11.29-26.15,24.38-13.41,12.93-25.45,25.37-6,6.15-10.56,11t-7.87,8.43a100,100,0,0,1-7.19-14q-3.61-8.39-7.32-17.17t-7.2-17.58q-3.49-8.81-6.41-15.29-1.35-3.69-3.18-4.09a3.48,3.48,0,0,0-3.24.85A7.52,7.52,0,0,0,712,174a7.2,7.2,0,0,0,.36,4.87q2,6.18,5.49,15.14t7.59,18.33q4.05,9.36,8.28,18.51t7.47,15.22q-8,9.33-17.62,20.67t-19,23.84q-9.39,12.51-18.36,25.49t-16,25.31Q664,353.7,659,365.64a83.61,83.61,0,0,0-6.31,23.48,56.15,56.15,0,0,0,2.09,22.69q3.36,11.12,13,21.2a60.31,60.31,0,0,0,15,11.17q8.6,4.56,14.91,5.58,3.52,1.11,4.13-.54c.41-1.1-.57-2-2.92-2.75a57.75,57.75,0,0,1-14.83-5.17,42.49,42.49,0,0,1-13.91-11.61,43,43,0,0,1-7-10.2,36,36,0,0,1-3.33-11.15,63.69,63.69,0,0,1,1.21-23.13,109.27,109.27,0,0,1,7.76-22q5.06-10.55,9-17.39,8-13.76,17.17-26.67t18.28-24.67q9.13-11.74,17.8-21.43t16.06-16.86q4.51,7.68,11.42,17.92t14.53,20.52q7.62,10.29,15.11,19.12a122.58,122.58,0,0,0,12.6,13.21q6,4.31,8.18,3.28c.73-.34.71-1.09-.06-2.26a27.61,27.61,0,0,0-4.58-4.72q-6.18-5.13-13.55-15.08t-14.27-20.91q-6.91-11-13.06-21.54t-9.07-17.11q7.29-7.64,19.31-19.69t25.22-24.81Q812.16,191.33,825,180T847.05,163.47Z" transform="translate(-189.96 -132.94)"/></g></g></svg>
