<svg id="Layer_1" data-name="Layer 1" xmlns="http://www.w3.org/2000/svg" xmlns:xlink="http://www.w3.org/1999/xlink" viewBox="0 0 646.79 336.4"><defs><style>.cls-1,.cls-2{isolation:isolate;}.cls-2{font-size:164.11px;fill:#fafafa;font-family:AvenirNext-Bold, Avenir Next;font-weight:700;}.cls-3{letter-spacing:-0.01em;}.cls-4{fill:url(#linear-gradient);}</style><linearGradient id="linear-gradient" x1="644.06" y1="520.96" x2="835.94" y2="520.96" gradientUnits="userSpaceOnUse"><stop offset="0" stop-color="#f06d06"/><stop offset="1" stop-color="red"/></linearGradient></defs><g id="Group_2" data-name="Group 2"><g id="Group_1" data-name="Group 1"><g id="Staark" class="cls-1"><text class="cls-2" transform="translate(0 140.15)"><tspan class="cls-3">S</tspan><tspan x="96" y="0">taark</tspan></text></g><path id="x" class="cls-4" d="M832.69,374.39a7.52,7.52,0,0,0,3.24-5.43,6.82,6.82,0,0,0-1.47-4.95,9,9,0,0,0-4.13-2.79q-2.51-.86-5.12,1.5a235.08,235.08,0,0,0-19.71,18.5q-12,12.33-25,26.56T756,435.46q-11.5,13.47-17.81,21.27a95.86,95.86,0,0,1-7.15-13.88q-3.6-8.36-7.3-17.12t-7.19-17.57q-3.48-8.79-6.39-15.27c-.9-2.46-1.95-3.8-3.15-4a3.46,3.46,0,0,0-3.18,1.09,8.39,8.39,0,0,0-2,3.94,7.58,7.58,0,0,0,.38,5q2,6.21,5.51,15.19t7.58,18.31q4.05,9.34,8.26,18.45T731,466q-7.8,10.22-17.12,22.61t-18.54,26.1q-9.2,13.68-18,27.88t-15.7,27.64q-6.12,13.34-11.09,26.23a95.71,95.71,0,0,0-6.17,25.08,59.85,59.85,0,0,0,2.22,23.53q3.43,11.33,13.14,21a53.17,53.17,0,0,0,15,10.24q8.58,4,14.86,4.41c2.33.55,3.7.23,4.09-1s-.58-2-2.92-2.59a51.3,51.3,0,0,1-14.76-4A45.77,45.77,0,0,1,651.66,641a70.33,70.33,0,0,1,1.07-24.28,126.78,126.78,0,0,1,7.6-23.66q5-11.43,8.89-18.89,7.88-15,16.86-29.14T704,518q8.89-12.84,17.35-23.5T736.9,475.9q4.49,7.55,11.31,17.56t14.34,20q7.5,10,14.86,18.45a111.28,111.28,0,0,0,12.35,12.56c3.89,2.61,6.53,3.51,8,2.7s-.11-3.08-4.57-6.79q-6-4.75-13.27-14.39t-14-20.36q-6.84-10.75-12.9-21.12a186.35,186.35,0,0,1-9-16.9Q751,459.22,762.57,446t24.23-27.12q12.65-13.9,24.91-26.24T832.69,374.39Z" transform="translate(-189.15 -344.53)"/></g></g></svg>
