<svg id="Layer_1" data-name="Layer 1" xmlns="http://www.w3.org/2000/svg" viewBox="0 0 480 480"><defs><style>.cls-1{fill:#fff;}</style></defs><g id="Outline"><path class="cls-1" d="M320,224h40a8,8,0,0,0,0-16H320a8,8,0,0,0,0,16Z" transform="translate(-16 -16)"/><path class="cls-1" d="M488,208a8,8,0,0,0-8,8V480H72a40,40,0,1,1,40-40,8,8,0,0,0,16,0V224h24a8,8,0,0,0,0-16H128V184a56,56,0,0,0-112,0V440a56.07,56.07,0,0,0,56,56H488a8,8,0,0,0,8-8V216A8,8,0,0,0,488,208ZM32,184a40,40,0,0,1,80,0V400.8a55.93,55.93,0,0,0-79.09-.91l-.91.91Z" transform="translate(-16 -16)"/><path class="cls-1" d="M384.57,307l12.8,32h0l19.2,48a8,8,0,0,0,14.86,0l19.2-48h0l12.8-32a8.17,8.17,0,0,0,.51-2.68c0-.1.06-.19.06-.3V168a8,8,0,0,0-16,0V296H432V112h16v24a8,8,0,0,0,16,0V56a40,40,0,0,0-80,0V304c0,.11.06.2.06.31A8.16,8.16,0,0,0,384.57,307Zm32.05,37h14.76L424,362.46Zm21.16-16H410.22l-6.4-16h40.36ZM416,296H400V112h16ZM400,96V80h48V96Zm0-40a24,24,0,0,1,48,0v8H400Z" transform="translate(-16 -16)"/><path class="cls-1" d="M192,173.6v3.85a23.85,23.85,0,0,0,0,45.05V224a48.06,48.06,0,0,0,33.1,45.6,66.37,66.37,0,0,1-31,17.6l-12.2,3.06A39.45,39.45,0,0,0,191.44,368H208a8,8,0,0,0,0-16H191.44a23.45,23.45,0,0,1-5.68-46.19l12.2-3.05a82.38,82.38,0,0,0,46.23-31A48,48,0,0,0,288,224v-1.47a23.86,23.86,0,0,0,0-45.06V173.6a71.78,71.78,0,0,0,14-90.15,8,8,0,1,0-13.79,8.13A55.78,55.78,0,0,1,275,163.66a8,8,0,0,0-3,6.24V176h-7.06l7-63.12a8,8,0,0,0-7.07-8.83,7.89,7.89,0,0,0-3.41.36L240,111.57l-21.47-7.16a8,8,0,0,0-10.12,5.06,7.89,7.89,0,0,0-.36,3.41l7,63.12H208v-6.08a8,8,0,0,0-3-6.24A55.94,55.94,0,0,1,268.39,71.8,8,8,0,1,0,276.53,58,72,72,0,0,0,192,173.6ZM240,256a32,32,0,0,1-32-32h64A32,32,0,0,1,240,256ZM225.34,123.54l12.13,4a8,8,0,0,0,5.06,0l12.13-4L248.84,176H231.2ZM224,192h56a8,8,0,0,1,0,16H200a8,8,0,0,1,0-16Z" transform="translate(-16 -16)"/><circle class="cls-1" cx="128" cy="104" r="8"/><circle class="cls-1" cx="320" cy="104" r="8"/><circle class="cls-1" cx="224" cy="8" r="8"/><path class="cls-1" d="M152.86,78.93A8,8,0,1,0,149.94,68h0A8,8,0,0,0,152.86,78.93Z" transform="translate(-16 -16)"/><path class="cls-1" d="M319.14,174.93A8,8,0,1,0,316.21,164h0A8,8,0,0,0,319.14,174.93Z" transform="translate(-16 -16)"/><circle class="cls-1" cx="272" cy="20.87" r="8"/><path class="cls-1" d="M327.14,78.93A8,8,0,1,0,316.21,76h0A8,8,0,0,0,327.14,78.93Z" transform="translate(-16 -16)"/><path class="cls-1" d="M163.79,164a8,8,0,1,0-2.93,10.93h0A8,8,0,0,0,163.79,164Z" transform="translate(-16 -16)"/><path class="cls-1" d="M196,43.79a8,8,0,1,0-10.93-2.93h0A8,8,0,0,0,196,43.79Z" transform="translate(-16 -16)"/><path class="cls-1" d="M280,432h32a8,8,0,0,0,8-8V410.55a54.27,54.27,0,0,0,7.79-4.49l11.63,6.72a8,8,0,0,0,10.93-2.92l16-27.72a8,8,0,0,0-2.93-10.92l-11.61-6.72c.13-1.51.19-3,.19-4.5s-.06-3-.19-4.5l11.61-6.72a8,8,0,0,0,2.93-10.92l-16-27.72a8,8,0,0,0-10.93-2.92l-11.63,6.72a54.27,54.27,0,0,0-7.79-4.49V296a8,8,0,0,0-8-8H280a8,8,0,0,0-8,8v13.45a54.27,54.27,0,0,0-7.79,4.49l-11.63-6.72a8,8,0,0,0-10.93,2.92l-16,27.72a8,8,0,0,0,2.93,10.92l11.61,6.72c-.13,1.51-.19,3-.19,4.5s.06,3,.19,4.5l-11.61,6.72a8,8,0,1,0,7.9,13.91l.1-.06,16.22-9.39a8,8,0,0,0,3.87-8.38,38.15,38.15,0,0,1,0-14.6,8,8,0,0,0-3.87-8.38l-9.33-5.39,8-13.86,9.33,5.39a8,8,0,0,0,9.2-.84,39.85,39.85,0,0,1,12.64-7.29,8,8,0,0,0,5.36-7.54V304h16v10.79a8,8,0,0,0,5.33,7.54A39.85,39.85,0,0,1,322,329.62a8,8,0,0,0,9.2.84l9.33-5.39,8,13.86-9.3,5.39a8,8,0,0,0-3.87,8.38,38.15,38.15,0,0,1,0,14.6,8,8,0,0,0,3.87,8.38l9.33,5.39-8,13.86-9.33-5.39a8,8,0,0,0-9.2.84,39.85,39.85,0,0,1-12.64,7.29,8,8,0,0,0-5.33,7.54V416H288V405.21a8,8,0,0,0-5.33-7.54A39.85,39.85,0,0,1,270,390.38a8,8,0,0,0-9.2-.84l-16.25,9.39a8,8,0,1,0,7.9,13.91l.1-.06,11.63-6.72a54.27,54.27,0,0,0,7.79,4.49V424a8,8,0,0,0,8,8Z" transform="translate(-16 -16)"/><path class="cls-1" d="M320,360a24,24,0,1,0-24,24A24,24,0,0,0,320,360Zm-32,0a8,8,0,1,1,8,8A8,8,0,0,1,288,360Z" transform="translate(-16 -16)"/><path class="cls-1" d="M304,464h96a32,32,0,0,0,32-32V416a8,8,0,0,0-16,0v16a16,16,0,0,1-16,16H304a8,8,0,0,0,0,16Z" transform="translate(-16 -16)"/><path class="cls-1" d="M160,432a24,24,0,1,0,24-24A24,24,0,0,0,160,432Zm32,0a8,8,0,1,1-8-8A8,8,0,0,1,192,432Z" transform="translate(-16 -16)"/></g></svg>