<svg id="Layer_1" data-name="Layer 1" xmlns="http://www.w3.org/2000/svg" xmlns:xlink="http://www.w3.org/1999/xlink" viewBox="0 0 996.17 848.49"><defs><style>.cls-1{fill:#fafafa;}.cls-2{fill:#f2f2f2;}.cls-3{fill:url(#linear-gradient);}.cls-4{fill:url(#linear-gradient-2);}.cls-5{fill:#3f3d56;}.cls-6{fill:red;}.cls-7{fill:#2f2e41;}.cls-8{fill:#ffb8b8;}.cls-9{fill:url(#linear-gradient-3);}.cls-10{fill:#d0cde1;}.cls-11{fill:url(#linear-gradient-4);}.cls-12{fill:#e6e6e6;}.cls-13{fill:url(#linear-gradient-5);}.cls-14{fill:url(#linear-gradient-6);}.cls-15{fill:url(#linear-gradient-7);}</style><linearGradient id="linear-gradient" x1="187.51" y1="296.79" x2="362.05" y2="296.79" gradientTransform="matrix(1, 0, 0, -1, -9.04, 924.86)" gradientUnits="userSpaceOnUse"><stop offset="0" stop-color="#f06d06"/><stop offset="1" stop-color="#ff2c2c"/></linearGradient><linearGradient id="linear-gradient-2" x1="225.11" y1="509.64" x2="301.74" y2="509.64" xlink:href="#linear-gradient"/><linearGradient id="linear-gradient-3" x1="519.56" y1="274.44" x2="581.29" y2="274.44" gradientTransform="matrix(1, 0, 0, -1, 0, 1024)" gradientUnits="userSpaceOnUse"><stop offset="0" stop-color="#f06d06"/><stop offset="1" stop-color="red"/></linearGradient><linearGradient id="linear-gradient-4" x1="163.28" y1="746.26" x2="204.77" y2="746.26" xlink:href="#linear-gradient-3"/><linearGradient id="linear-gradient-5" x1="193.07" y1="661.37" x2="234.58" y2="661.37" xlink:href="#linear-gradient-3"/><linearGradient id="linear-gradient-6" x1="499.91" y1="749.97" x2="541.41" y2="749.97" xlink:href="#linear-gradient-3"/><linearGradient id="linear-gradient-7" x1="390.94" y1="627.23" x2="432.44" y2="627.23" gradientTransform="matrix(1, 0, 0, -1, 0, 1024)" xlink:href="#linear-gradient"/></defs><path id="Path_180" data-name="Path 180" class="cls-1" d="M88.22,164.32C312.7,60.4,1234.93-2.94,951.67,655.14s-763.82,0-763.82,0S-136.25,268.23,88.22,164.32Z" transform="translate(-9.04 -99.14)"/><circle class="cls-2" cx="251.55" cy="640.84" r="87.27"/><circle class="cls-3" cx="265.74" cy="628.07" r="87.27"/><rect class="cls-2" x="205.43" y="388.25" width="76.63" height="76.63"/><rect class="cls-4" x="216.07" y="376.9" width="76.63" height="76.63"/><path class="cls-5" d="M339.34,537.06H238.59V436.31H339.34ZM240,535.64h97.91V437.73H240Z" transform="translate(-9.04 -99.14)"/><rect class="cls-2" x="377.84" y="532.28" width="19.87" height="19.87"/><rect class="cls-6" x="382.1" y="527.32" width="19.87" height="19.87"/><path class="cls-5" d="M430.16,639.23H397.52V606.59h32.64Zm-31.22-1.42h29.8V608h-29.8Z" transform="translate(-9.04 -99.14)"/><path class="cls-5" d="M337.43,881.61A94.59,94.59,0,1,1,432,787,94.69,94.69,0,0,1,337.43,881.61Zm0-187.93A93.35,93.35,0,1,0,430.78,787,93.45,93.45,0,0,0,337.43,693.68Z" transform="translate(-9.04 -99.14)"/><rect class="cls-5" x="645.22" y="695.24" width="112.39" height="1.33"/><path class="cls-7" d="M618.4,481.33h0c-21.41,5.81-33.55,29.8-27.12,53.54l8.18,30.19,9.29-2.51,2.34-12.65,1.69,11.55,59.68-16.17,2.13-11.49,1.53,10.5,6.72-1.82-6.39-23.7C669,491.42,643,474.66,618.4,481.33Z" transform="translate(-9.04 -99.14)"/><path class="cls-8" d="M574.55,851l9.22,32.63-1.42,12.07,27-5.68S598,870.88,599.38,861Z" transform="translate(-9.04 -99.14)"/><polygon class="cls-8" points="687.54 634.81 680.45 673.12 703.86 669.57 704.93 629.49 687.54 634.81"/><circle class="cls-8" cx="617.3" cy="424.79" r="25.54"/><polygon class="cls-8" points="609.14 443.6 607.72 457.79 596.37 464.17 626.17 530.15 648.88 475.52 633.98 464.17 632.56 437.21 609.14 443.6"/><path class="cls-7" d="M639.11,613.33,610,560.69s-23.41,1.55-29.09,6.52l11.35,72.37-3.54,9.22s-29.09,29.8-23.42,94.36,5.68,115,5.68,115,20.57,24.12,63.14,0V729.68l60.31-5v15.61s62.44-15.61,63.86-39l-16.06-27.89a27.69,27.69,0,0,0-31.84-12.68l-52.85,15.75-5.68-21.29,5.68-15.61s14.9-11.35,14.9-26.25,4.26-32.64,4.26-32.64l-27.6-12.77Z" transform="translate(-9.04 -99.14)"/><path class="cls-8" d="M689.49,607.66l11.35,27.67s12.06,14.19,14.19,29.8l3.55,18.44s8.51,32.64-5,31.22-9.93-32.64-9.93-32.64l-2.13-9.22-12.06-19.87-17.81-33.83Z" transform="translate(-9.04 -99.14)"/><path class="cls-7" d="M691.61,765.88s20.3,2,24.34-7.17l20.36,16.39s36.9,9.88,16.32,18.45c-19.15,8-38.31-.54-38.31,1.42,0,0-5.68-5-12.06-1.42s-25.54,0-24.84-5.68S681,761.62,691.61,765.88Z" transform="translate(-9.04 -99.14)"/><polygon class="cls-7" points="658.45 478.72 667.68 481.55 687.54 511.35 651.36 535.48 658.45 478.72"/><path class="cls-7" d="M632.63,490.2a21.07,21.07,0,0,0-18.26-3.84l-.76.21c-14.68,4-23,20.48-18.54,36.9h0l4.92-1.34-.85-6.26,2.84,5.74,29.17-7.91,1.06-5.77.77,5.28,5.74-1.56q9.42,18.86-.71,43l9.77-2.65,2.13-11.55L651.46,551l18.63-5-2.71-24.53C662.52,503.8,648.26,491.64,632.63,490.2Z" transform="translate(-9.04 -99.14)"/><circle class="cls-7" cx="629.72" cy="371.93" r="12.77"/><path class="cls-7" d="M638.05,478.17a12.77,12.77,0,0,1-4.5-24.71,12.77,12.77,0,1,0,6.15,24.59A11.45,11.45,0,0,1,638.05,478.17Z" transform="translate(-9.04 -99.14)"/><ellipse class="cls-8" cx="633.62" cy="424.79" rx="3.19" ry="4.61"/><path class="cls-9" d="M581.29,772.62c-17.57-2.62-38.85-2-61.73,0q14.31-26.25,0-46.12a256,256,0,0,0,61.73,0C572.5,741.13,573.27,756.57,581.29,772.62Z" transform="translate(-9.04 -99.14)"/><path class="cls-8" d="M573.13,609.78,571,638.16s-9.94,15.61-12.06,49l-.71,20.58s-14.9,29.09-2.84,28.38,11.35-27.67,11.35-27.67L588,646.68v-29.8Z" transform="translate(-9.04 -99.14)"/><path class="cls-7" d="M585.9,567.92h-5s-7.8,5-14.19,26.25-7.09,22-7.09,22L593,624Z" transform="translate(-9.04 -99.14)"/><rect class="cls-10" x="531.81" y="641.55" width="19.87" height="19.87"/><path id="Path_67" data-name="Path 67" class="cls-5" d="M744.27,447.17H116V198.62H744.27ZM118,445.36H742.37V200.48H118Z" transform="translate(-9.04 -99.14)"/><path id="Path_68" data-name="Path 68" class="cls-11" d="M204.77,300.45H165.3a128.77,128.77,0,0,1,0-45.41h39.47A79.24,79.24,0,0,0,204.77,300.45Z" transform="translate(-9.04 -99.14)"/><path id="Path_69" data-name="Path 69" class="cls-12" d="M239,319.78h39.48a129,129,0,0,0,0-45.45H239A81.14,81.14,0,0,1,239,319.78Z" transform="translate(-9.04 -99.14)"/><path id="Path_70" data-name="Path 70" class="cls-12" d="M493.73,329.12h53.63a1.42,1.42,0,0,0,0-2.78H493.73a1.42,1.42,0,0,0,0,2.78Z" transform="translate(-9.04 -99.14)"/><path id="Path_71" data-name="Path 71" class="cls-12" d="M546,316.05l8.38,7.38a24.57,24.57,0,0,1,4.19,3.7c1.23,2.28-.09,1.76-2.21,2.56a47,47,0,0,0-14.1,8.47c-1.42,1.17.64,3.12,2,1.95a44.13,44.13,0,0,1,12.85-7.75c1.69-.65,4.9-1,5.68-3,1-2.39-2.13-4.14-3.64-5.45L548,314.11c-1.36-1.2-3.38.75-2,2Z" transform="translate(-9.04 -99.14)"/><path id="Path_72" data-name="Path 72" class="cls-13" d="M193.07,385.36h39.49a129.05,129.05,0,0,0,0-45.46H193.07A79.07,79.07,0,0,1,193.07,385.36Z" transform="translate(-9.04 -99.14)"/><path id="Path_73" data-name="Path 73" class="cls-14" d="M499.91,296.76h39.48a129.05,129.05,0,0,0,0-45.46H499.91A79.24,79.24,0,0,1,499.91,296.76Z" transform="translate(-9.04 -99.14)"/><path id="Path_74" data-name="Path 74" class="cls-2" d="M374.93,371.44V259.27L364.41,257V381.63l79.3-.79-.26-10Z" transform="translate(-9.04 -99.14)"/><path id="Path_75" data-name="Path 75" class="cls-5" d="M453.3,391H357.71V242.34H453.3Zm-93.66-1.9h91.75V244.2H359.62Z" transform="translate(-9.04 -99.14)"/><rect id="Rectangle_26" data-name="Rectangle 26" class="cls-5" x="357.27" y="152.44" width="15.48" height="1.84"/><rect id="Rectangle_27" data-name="Rectangle 27" class="cls-5" x="357.27" y="157.05" width="15.48" height="1.84"/><rect id="Rectangle_28" data-name="Rectangle 28" class="cls-5" x="357.27" y="161.66" width="15.48" height="1.84"/><rect id="Rectangle_29" data-name="Rectangle 29" class="cls-5" x="364.92" y="241.04" width="66.15" height="1.84"/><rect id="Rectangle_30" data-name="Rectangle 30" class="cls-5" x="364.92" y="251.2" width="66.15" height="1.84"/><rect id="Rectangle_31" data-name="Rectangle 31" class="cls-5" x="364.92" y="261.35" width="66.15" height="1.84"/><path id="Path_76" data-name="Path 76" class="cls-5" d="M439,263.57a6.47,6.47,0,1,1,6.69-6.46h0a6.56,6.56,0,0,1-6.66,6.46h0Zm0-11.07a4.6,4.6,0,1,0,4.77,4.6h0A4.68,4.68,0,0,0,439,252.5Z" transform="translate(-9.04 -99.14)"/><path id="Path_77" data-name="Path 77" class="cls-5" d="M440.87,319H373V276.5h67.83Zm-66-1.85h64V278.34h-64Z" transform="translate(-9.04 -99.14)"/><polygon id="Rectangle_32" data-name="Rectangle 32" class="cls-5" points="364.42 179.09 365.44 177.54 431.4 218.16 430.37 219.71 364.42 179.09"/><polygon id="Rectangle_33" data-name="Rectangle 33" class="cls-5" points="364.42 218.08 430.38 177.46 431.4 179.01 365.45 219.63 364.42 218.08"/><path id="Path_78" data-name="Path 78" class="cls-2" d="M617.72,371.44V259.27L607.18,257V381.63l79.31-.79-.27-10Z" transform="translate(-9.04 -99.14)"/><path id="Path_79" data-name="Path 79" class="cls-5" d="M697,389.11H601.45V240.5H697Zm-93.65-1.85h91.77V242.34H603.37Z" transform="translate(-9.04 -99.14)"/><rect id="Rectangle_34" data-name="Rectangle 34" class="cls-5" x="601.02" y="150.58" width="15.48" height="1.84"/><rect id="Rectangle_35" data-name="Rectangle 35" class="cls-5" x="601.02" y="155.21" width="15.48" height="1.84"/><rect id="Rectangle_36" data-name="Rectangle 36" class="cls-5" x="601.02" y="159.82" width="15.48" height="1.84"/><path id="Path_80" data-name="Path 80" class="cls-5" d="M682.7,261.72a6.47,6.47,0,1,1,6.7-6.46h0a6.56,6.56,0,0,1-6.69,6.45Zm0-11.07a4.61,4.61,0,1,0,4.77,4.61h0A4.7,4.7,0,0,0,682.7,250.65Z" transform="translate(-9.04 -99.14)"/><path id="Path_81" data-name="Path 81" class="cls-5" d="M684.63,317.1H616.76V274.65h67.87Zm-66-1.84h64V276.5h-64Z" transform="translate(-9.04 -99.14)"/><polygon id="Rectangle_37" data-name="Rectangle 37" class="cls-5" points="608.18 177.25 609.21 175.7 675.17 216.32 674.14 217.88 608.18 177.25"/><polygon id="Rectangle_38" data-name="Rectangle 38" class="cls-5" points="607.16 214.4 672.88 173.61 673.91 175.16 608.19 215.95 607.16 214.4"/><path id="Path_82" data-name="Path 82" class="cls-5" d="M684.63,372.49H616.76V330h67.87Zm-66-1.85h64V331.88h-64Z" transform="translate(-9.04 -99.14)"/><polygon id="Rectangle_39" data-name="Rectangle 39" class="cls-5" points="608.18 232.65 609.21 231.1 675.17 271.72 674.14 273.27 608.18 232.65"/><polygon id="Rectangle_40" data-name="Rectangle 40" class="cls-5" points="608.15 271.6 674.09 230.96 675.12 232.52 609.18 273.16 608.15 271.6"/><path id="Path_83" data-name="Path 83" class="cls-15" d="M390.94,419.5h39.48a129.05,129.05,0,0,0,0-45.46H390.94A79.07,79.07,0,0,1,390.94,419.5Z" transform="translate(-9.04 -99.14)"/></svg>