<svg id="Layer_1" data-name="Layer 1" xmlns="http://www.w3.org/2000/svg" xmlns:xlink="http://www.w3.org/1999/xlink" viewBox="0 0 1024 1024"><defs><style>.cls-1{fill:#f2f2f2;}.cls-2{fill:url(#linear-gradient);}.cls-3{fill:url(#linear-gradient-2);}.cls-4{fill:#3f3d56;}.cls-5{fill:red;}.cls-6{fill:#2f2e41;}.cls-7{fill:#ffb8b8;}.cls-8{fill:url(#linear-gradient-3);}.cls-9{fill:#d0cde1;}.cls-10{fill:url(#linear-gradient-4);}.cls-11{fill:#e6e6e6;}.cls-12{fill:url(#linear-gradient-5);}.cls-13{fill:url(#linear-gradient-6);}.cls-14{fill:url(#linear-gradient-7);}</style><linearGradient id="linear-gradient" x1="165.5" y1="792.69" x2="411.5" y2="792.69" gradientUnits="userSpaceOnUse"><stop offset="0" stop-color="#f06d06"/><stop offset="1" stop-color="red"/></linearGradient><linearGradient id="linear-gradient-2" x1="218.5" y1="492.69" x2="326.5" y2="492.69" xlink:href="#linear-gradient"/><linearGradient id="linear-gradient-3" x1="633.5" y1="824.19" x2="720.5" y2="824.19" xlink:href="#linear-gradient"/><linearGradient id="linear-gradient-4" x1="131.35" y1="159.18" x2="189.83" y2="159.18" xlink:href="#linear-gradient"/><linearGradient id="linear-gradient-5" x1="173.34" y1="278.84" x2="231.84" y2="278.84" xlink:href="#linear-gradient"/><linearGradient id="linear-gradient-6" x1="605.8" y1="153.95" x2="664.29" y2="153.95" xlink:href="#linear-gradient"/><linearGradient id="linear-gradient-7" x1="452.22" y1="326.98" x2="510.71" y2="326.98" xlink:href="#linear-gradient"/></defs><circle class="cls-1" cx="268.5" cy="810.69" r="123"/><circle class="cls-2" cx="288.5" cy="792.69" r="123"/><rect class="cls-1" x="203.5" y="454.69" width="108" height="108"/><rect class="cls-3" x="218.5" y="438.69" width="108" height="108"/><path class="cls-4" d="M379.5,524.69h-142v-142h142Zm-140-2h138v-138h-138Z"/><rect class="cls-1" x="446.5" y="657.69" width="28" height="28"/><rect class="cls-5" x="452.5" y="650.69" width="28" height="28"/><path class="cls-4" d="M507.5,668.69h-46v-46h46Zm-44-2h42v-42h-42Z"/><path class="cls-4" d="M376.81,1010.31c-73.51,0-133.31-59.8-133.31-133.31s59.8-133.31,133.31-133.31S510.12,803.49,510.12,877,450.31,1010.31,376.81,1010.31Zm0-264.88c-72.55,0-131.57,59-131.57,131.57s59,131.57,131.57,131.57,131.57-59,131.57-131.57-59-131.57-131.57-131.57Z"/><rect class="cls-4" x="823.35" y="887.36" width="158.41" height="1.87"/><path class="cls-6" d="M772.81,446.15h0c-30.18,8.18-47.29,42-38.22,75.45l11.53,42.56,13.09-3.55,3.3-17.82,2.38,16.28L849,536.28l3-16.2,2.16,14.8,9.47-2.56-9-33.41C844.16,460.36,807.54,436.74,772.81,446.15Z"/><path class="cls-7" d="M711,967.19l13,46-2,17,38-8s-16-27-14-41Z"/><polygon class="cls-7" points="883 802.19 873 856.19 906 851.19 907.5 794.69 883 802.19"/><circle class="cls-7" cx="784" cy="506.19" r="36"/><polygon class="cls-7" points="772.5 532.69 770.5 552.69 754.5 561.69 796.5 654.69 828.5 577.69 807.5 561.69 805.5 523.69 772.5 532.69"/><path class="cls-6" d="M802,632.19,761,558s-33,2.18-41,9.18l16,102-5,13s-41,42-33,133,8,162,8,162,29,34,89,0v-181l85-7v22s88-22,90-55l-22.64-39.32A39,39,0,0,0,902.49,699L828,721.19l-8-30,8-22s21-16,21-37,6-46,6-46l-38.9-18Z"/><path class="cls-7" d="M873,624.19l16,39s17,20,20,42l5,26s12,46-7,44-14-46-14-46l-3-13-17-28-25.09-47.68Z"/><path class="cls-6" d="M876,847.19s28.61,2.81,34.3-10.1l28.7,23.1s52,13.92,23,26c-27,11.26-54-.76-54,2,0,0-8-7-17-2s-36,0-35-8S861,841.19,876,847.19Z"/><polygon class="cls-6" points="842 582.19 855 586.19 883 628.19 832 662.19 842 582.19"/><path class="cls-6" d="M792.87,458.65c-7.4-5.58-16.7-7.86-25.74-5.41l-1.07.29c-20.69,5.6-32.39,28.86-26.13,52h0l6.93-1.88-1.19-8.82,4,8.08,41.11-11.14,1.49-8.14,1.09,7.44,8.09-2.19q13.27,26.58-1,60.63l13.77-3.73,3-16.28,2.18,14.88,26.26-7.11-3.82-34.56C835,477.82,814.89,460.68,792.87,458.65Z"/><circle class="cls-6" cx="801.5" cy="431.69" r="18"/><path class="cls-6" d="M800.5,441.69a18,18,0,0,1-6.34-34.83,18,18,0,1,0,8.67,34.66A18.13,18.13,0,0,1,800.5,441.69Z"/><ellipse class="cls-7" cx="807" cy="506.19" rx="4.5" ry="6.5"/><path class="cls-8" d="M720.5,856.69c-24.76-3.69-54.75-2.83-87,0q20.18-37,0-65a360.72,360.72,0,0,0,87,0C708.11,812.31,709.2,834.07,720.5,856.69Z"/><path class="cls-7" d="M709,627.19l-3,40s-14,22-17,69l-1,29s-21,41-4,40,16-39,16-39l30-87v-42Z"/><path class="cls-6" d="M727,568.19h-7s-11,7-20,37-10,31-10,31l47,11Z"/><rect class="cls-9" x="663.5" y="811.69" width="28" height="28"/><path id="Path_67" data-name="Path 67" class="cls-4" d="M950.22,398H64.77V47.68H950.22ZM67.46,395.44H947.53V50.31H67.46Z"/><path id="Path_68" data-name="Path 68" class="cls-10" d="M189.83,191.2H134.2a181.35,181.35,0,0,1,0-64h55.63A111.57,111.57,0,0,0,189.83,191.2Z"/><path id="Path_69" data-name="Path 69" class="cls-11" d="M238,218.45h55.65a181.88,181.88,0,0,0,0-64.06H238A114.41,114.41,0,0,1,238,218.45Z"/><path id="Path_70" data-name="Path 70" class="cls-11" d="M597.1,231.61h75.59a2,2,0,0,0,0-3.91H597.1a2,2,0,0,0,0,3.91Z"/><path id="Path_71" data-name="Path 71" class="cls-11" d="M670.75,213.19l11.81,10.41a34.11,34.11,0,0,1,5.91,5.21c1.73,3.22-.13,2.48-3.11,3.61a66.39,66.39,0,0,0-19.88,11.93c-2,1.65.91,4.41,2.85,2.75a62.18,62.18,0,0,1,18.11-10.92c2.38-.92,6.9-1.44,8-4.19,1.38-3.36-3-5.83-5.12-7.67L673.6,210.46c-1.91-1.69-4.77,1.06-2.85,2.76Z"/><path id="Path_72" data-name="Path 72" class="cls-12" d="M173.34,310.88H229a181.94,181.94,0,0,0,0-64.07H173.34A111.47,111.47,0,0,1,173.34,310.88Z"/><path id="Path_73" data-name="Path 73" class="cls-13" d="M605.8,186h55.65a181.94,181.94,0,0,0,0-64.07H605.8A111.47,111.47,0,0,1,605.8,186Z"/><path id="Path_74" data-name="Path 74" class="cls-1" d="M429.65,291.26V133.17L414.83,130V305.62l111.77-1.11-.37-14.17Z"/><path id="Path_75" data-name="Path 75" class="cls-4" d="M540.11,318.77H405.39V109.31H540.11Zm-132-2.67H537.42V111.92H408.08Z"/><rect id="Rectangle_26" data-name="Rectangle 26" class="cls-4" x="417.51" y="122.33" width="21.82" height="2.6"/><rect id="Rectangle_27" data-name="Rectangle 27" class="cls-4" x="417.51" y="128.83" width="21.82" height="2.6"/><rect id="Rectangle_28" data-name="Rectangle 28" class="cls-4" x="417.51" y="135.33" width="21.82" height="2.6"/><rect id="Rectangle_29" data-name="Rectangle 29" class="cls-4" x="428.28" y="247.21" width="93.23" height="2.6"/><rect id="Rectangle_30" data-name="Rectangle 30" class="cls-4" x="428.28" y="261.52" width="93.23" height="2.6"/><rect id="Rectangle_31" data-name="Rectangle 31" class="cls-4" x="428.28" y="275.83" width="93.23" height="2.6"/><path id="Path_76" data-name="Path 76" class="cls-4" d="M519.9,139.23a9.12,9.12,0,1,1,9.43-9.11h0a9.25,9.25,0,0,1-9.41,9.11Zm0-15.61a6.49,6.49,0,1,0,6.72,6.49h0A6.61,6.61,0,0,0,519.9,123.62Z"/><path id="Path_77" data-name="Path 77" class="cls-4" d="M522.6,217.28H427V157.45H522.6Zm-93-2.6h90.26V160.05H429.64Z"/><polygon id="Rectangle_32" data-name="Rectangle 32" class="cls-4" points="427.58 159.89 429.02 157.7 521.98 214.95 520.53 217.14 427.58 159.89"/><polygon id="Rectangle_33" data-name="Rectangle 33" class="cls-4" points="427.58 214.84 520.54 157.59 521.98 159.78 429.03 217.03 427.58 214.84"/><path id="Path_78" data-name="Path 78" class="cls-1" d="M771.85,291.26V133.17L757,130V305.62l111.78-1.11-.38-14.17Z"/><path id="Path_79" data-name="Path 79" class="cls-4" d="M883.65,316.16H748.92V106.71H883.65Zm-132-2.6H881V109.31H751.62Z"/><rect id="Rectangle_34" data-name="Rectangle 34" class="cls-4" x="761.05" y="119.71" width="21.82" height="2.6"/><rect id="Rectangle_35" data-name="Rectangle 35" class="cls-4" x="761.05" y="126.23" width="21.82" height="2.6"/><rect id="Rectangle_36" data-name="Rectangle 36" class="cls-4" x="761.05" y="132.73" width="21.82" height="2.6"/><path id="Path_80" data-name="Path 80" class="cls-4" d="M863.44,136.62a9.12,9.12,0,1,1,9.44-9.11h0a9.27,9.27,0,0,1-9.43,9.1Zm0-15.6a6.49,6.49,0,1,0,6.72,6.49h0a6.61,6.61,0,0,0-6.72-6.49Z"/><path id="Path_81" data-name="Path 81" class="cls-4" d="M866.16,214.68H770.5V154.84h95.66Zm-93-2.6h90.26V157.45H773.18Z"/><polygon id="Rectangle_37" data-name="Rectangle 37" class="cls-4" points="771.15 157.3 772.6 155.11 865.56 212.37 864.11 214.56 771.15 157.3"/><polygon id="Rectangle_38" data-name="Rectangle 38" class="cls-4" points="769.71 209.66 862.33 152.17 863.78 154.35 771.16 211.84 769.71 209.66"/><path id="Path_82" data-name="Path 82" class="cls-4" d="M866.16,292.74H770.5V232.9h95.66Zm-93-2.6h90.26V235.51H773.18Z"/><polygon id="Rectangle_39" data-name="Rectangle 39" class="cls-4" points="771.15 235.38 772.6 233.19 865.56 290.44 864.11 292.63 771.15 235.38"/><polygon id="Rectangle_40" data-name="Rectangle 40" class="cls-4" points="771.1 290.28 864.04 233 865.49 235.19 772.55 292.47 771.1 290.28"/><path id="Path_83" data-name="Path 83" class="cls-14" d="M452.22,359h55.64a181.47,181.47,0,0,0,0-64.07H452.22A111.47,111.47,0,0,1,452.22,359Z"/></svg>