<svg id="Layer_1" data-name="Layer 1" xmlns="http://www.w3.org/2000/svg" xmlns:xlink="http://www.w3.org/1999/xlink" viewBox="0 0 1024 1024"><defs><style>.cls-1{fill:#fafafa;}.cls-2{fill:#e6e6e6;}.cls-3{fill:#ccc;}.cls-4{fill:#f2f2f2;}.cls-5{fill:url(#linear-gradient);}.cls-6{fill:url(#linear-gradient-2);}.cls-7{fill:#3f3d56;}.cls-8{fill:red;}.cls-9{fill:#2f2e41;}.cls-10{fill:#ffb8b8;}.cls-11{fill:url(#linear-gradient-3);}.cls-12{fill:#d0cde1;}.cls-13{fill:url(#linear-gradient-4);}.cls-14{fill:url(#linear-gradient-5);}.cls-15{fill:url(#linear-gradient-6);}.cls-16{fill:url(#linear-gradient-7);}</style><linearGradient id="linear-gradient" x1="221.68" y1="251.49" x2="427.3" y2="251.49" gradientTransform="matrix(1, 0, 0, -1, 0, 1024)" gradientUnits="userSpaceOnUse"><stop offset="0" stop-color="#f06d06"/><stop offset="1" stop-color="red"/></linearGradient><linearGradient id="linear-gradient-2" x1="265.98" y1="502.25" x2="356.25" y2="502.25" xlink:href="#linear-gradient"/><linearGradient id="linear-gradient-3" x1="612.86" y1="225.16" x2="685.58" y2="225.16" xlink:href="#linear-gradient"/><linearGradient id="linear-gradient-4" x1="193.14" y1="781" x2="242.01" y2="781" xlink:href="#linear-gradient"/><linearGradient id="linear-gradient-5" x1="228.23" y1="680.99" x2="277.13" y2="680.99" xlink:href="#linear-gradient"/><linearGradient id="linear-gradient-6" x1="589.71" y1="785.38" x2="638.6" y2="785.38" xlink:href="#linear-gradient"/><linearGradient id="linear-gradient-7" x1="461.34" y1="640.77" x2="510.22" y2="640.77" xlink:href="#linear-gradient"/></defs><g id="Component_2_5" data-name="Component 2 5"><path id="Path_180" data-name="Path 180" class="cls-1" d="M85.43,156.58c228-99.1,1164.76-159.52,877,468.09s-775.85,0-775.85,0S-142.58,255.72,85.43,156.58Z"/></g><path class="cls-2" d="M594.74,363.62l.07-.15,3.62,1.8"/><polyline class="cls-3" points="594.74 363.62 594.81 363.47 598.43 365.27"/><circle class="cls-4" cx="307.77" cy="787.55" r="102.81"/><circle class="cls-5" cx="324.49" cy="772.51" r="102.81"/><rect class="cls-4" x="253.44" y="489.99" width="90.27" height="90.27"/><rect class="cls-6" x="265.98" y="476.61" width="90.27" height="90.27"/><path class="cls-7" d="M400.55,548.5H281.86V429.81H400.55Zm-117-1.67H398.88V431.48H283.53Z"/><rect class="cls-4" x="456.55" y="659.67" width="23.4" height="23.4"/><rect class="cls-8" x="461.57" y="653.82" width="23.4" height="23.4"/><path class="cls-7" d="M507.54,668.86H469.09V630.41h38.45Zm-36.78-1.67h35.11V632.08H470.76Z"/><path class="cls-7" d="M398.3,954.41A111.43,111.43,0,1,1,509.73,843,111.56,111.56,0,0,1,398.3,954.41Zm0-221.41a110,110,0,1,0,110,110A110.09,110.09,0,0,0,398.3,733Z"/><rect class="cls-7" x="771.55" y="851.64" width="132.41" height="1.56"/><rect class="cls-7" x="607.35" y="998.64" width="132.41" height="1.56"/><path class="cls-9" d="M729.3,482.85h0c-25.22,6.84-39.52,35.1-31.94,63.06L707,581.49l11-3,2.75-14.89,2,13.6L793,558.18l2.5-13.54L797.3,557l7.92-2.14L797.69,527C788.94,494.73,758.33,475,729.3,482.85Z"/><path class="cls-10" d="M677.64,918.36l10.86,38.45L686.83,971l31.77-6.68s-13.38-22.57-11.71-34.27Z"/><polygon class="cls-10" points="821.41 780.45 813.05 825.58 840.63 821.4 841.88 774.18 821.41 780.45"/><circle class="cls-10" cx="738.66" cy="533.03" r="30.09"/><polygon class="cls-10" points="729.04 555.18 727.37 571.9 714 579.42 749.11 657.16 775.85 592.8 758.3 579.42 756.63 547.66 729.04 555.18"/><path class="cls-9" d="M753.7,638.35l-34.27-62s-27.58,1.82-34.27,7.67l13.38,85.26-4.18,10.87s-34.27,35.1-27.59,111.17,6.69,135.41,6.69,135.41,24.24,28.41,74.39,0V775.42l71-5.85V788s73.55-18.39,75.23-46L875.2,709.12a32.59,32.59,0,0,0-37.5-14.92l-62.27,18.54-6.68-25.07,6.68-18.39S793,655.91,793,638.35s5-38.45,5-38.45l-32.51-15Z"/><path class="cls-10" d="M813.05,631.67l13.37,32.59s14.21,16.72,16.72,35.11l4.18,21.73s10,38.45-5.85,36.78-11.71-38.45-11.71-38.45l-2.5-10.87-14.21-23.4-21-39.85Z"/><path class="cls-9" d="M815.56,818.06s23.91,2.35,28.67-8.44l24,19.31s43.47,11.63,19.23,21.73c-22.57,9.41-45.14-.64-45.14,1.67,0,0-6.68-5.85-14.21-1.67s-30.09,0-29.25-6.69S803,813.05,815.56,818.06Z"/><path class="cls-9" d="M712.93,962.85s-23.81,2.35-28.55-8.44L660.5,973.72s-43.28,11.63-19.15,21.73c22.48,9.41,44.95-.64,44.95,1.67,0,0,6.65-5.85,14.14-1.67s30,0,29.13-6.69S725.41,957.83,712.93,962.85Z"/><polygon class="cls-9" points="787.14 596.56 798 599.9 821.41 635.01 778.78 663.43 787.14 596.56"/><path class="cls-9" d="M746.07,493.3a24.77,24.77,0,0,0-21.51-4.52l-.9.24c-17.29,4.68-27.07,24.12-21.84,43.46h0l5.79-1.57-1-7.37,3.34,6.75L744.32,521l1.25-6.8.91,6.22,6.76-1.83q11.1,22.21-.83,50.67l11.51-3.11,2.5-13.61L768.25,565l22-6L787,530.13C781.29,509.32,764.48,495,746.07,493.3Z"/><circle class="cls-9" cx="753.28" cy="470.76" r="15.05"/><path class="cls-9" d="M752.45,479.12a15,15,0,0,1-5.3-29.11,15,15,0,1,0,3.66,29.86,15.34,15.34,0,0,0,3.59-.89A14.21,14.21,0,0,1,752.45,479.12Z"/><ellipse class="cls-10" cx="757.88" cy="533.03" rx="3.76" ry="5.43"/><path class="cls-11" d="M685.58,826c-20.7-3.08-45.76-2.36-72.72,0q16.86-30.93,0-54.33a300.89,300.89,0,0,0,72.72,0C675.22,788.91,676.13,807.1,685.58,826Z"/><path class="cls-10" d="M676,634.17l-2.51,33.44s-11.7,18.39-14.21,57.67l-.84,24.24s-17.55,34.27-3.34,33.44,13.37-32.6,13.37-32.6l25.08-72.72V642.53Z"/><path class="cls-9" d="M691,584.86h-5.85s-9.19,5.85-16.72,30.92-8.35,25.92-8.35,25.92l39.28,9.19Z"/><rect class="cls-12" x="637.94" y="788.39" width="23.4" height="23.4"/><path id="Path_67" data-name="Path 67" class="cls-7" d="M877.59,442.6H137.48V149.78H877.59Zm-737.86-2.14H875.34V152H139.73Z"/><path id="Path_68" data-name="Path 68" class="cls-13" d="M242,269.75H195.52a151.21,151.21,0,0,1,0-53.5H242A93.34,93.34,0,0,0,242,269.75Z"/><path id="Path_69" data-name="Path 69" class="cls-2" d="M282.28,292.52h46.51a151.9,151.9,0,0,0,0-53.54H282.28A95.59,95.59,0,0,1,282.28,292.52Z"/><path id="Path_70" data-name="Path 70" class="cls-2" d="M582.43,303.52h63.19a1.67,1.67,0,0,0,0-3.26H582.43a1.67,1.67,0,0,0,0,3.26Z"/><path id="Path_71" data-name="Path 71" class="cls-2" d="M644,288.13l9.87,8.7a28.79,28.79,0,0,1,4.94,4.35c1.44,2.69-.11,2.08-2.6,3a55.49,55.49,0,0,0-16.62,10c-1.67,1.38.76,3.69,2.38,2.3a52.21,52.21,0,0,1,15.14-9.13c2-.77,5.77-1.2,6.69-3.5,1.15-2.81-2.51-4.87-4.28-6.41l-13.14-11.58c-1.6-1.42-4,.88-2.38,2.3Z"/><path id="Path_72" data-name="Path 72" class="cls-14" d="M228.23,369.78h46.52a152,152,0,0,0,0-53.55H228.23A93.17,93.17,0,0,1,228.23,369.78Z"/><path id="Path_73" data-name="Path 73" class="cls-15" d="M589.71,265.4h46.51a152,152,0,0,0,0-53.55H589.71A93.17,93.17,0,0,1,589.71,265.4Z"/><path id="Path_74" data-name="Path 74" class="cls-4" d="M442.47,353.38V221.24l-12.39-2.65v146.8l93.43-.93-.31-11.85Z"/><path id="Path_75" data-name="Path 75" class="cls-7" d="M534.8,376.38H422.19V201.3H534.8Zm-110.33-2.23H532.55V203.48H424.44Z"/><rect id="Rectangle_26" data-name="Rectangle 26" class="cls-7" x="432.32" y="212.18" width="18.24" height="2.17"/><rect id="Rectangle_27" data-name="Rectangle 27" class="cls-7" x="432.32" y="217.61" width="18.24" height="2.17"/><rect id="Rectangle_28" data-name="Rectangle 28" class="cls-7" x="432.32" y="223.05" width="18.24" height="2.17"/><rect id="Rectangle_29" data-name="Rectangle 29" class="cls-7" x="441.32" y="316.56" width="77.93" height="2.17"/><rect id="Rectangle_30" data-name="Rectangle 30" class="cls-7" x="441.32" y="328.52" width="77.93" height="2.17"/><rect id="Rectangle_31" data-name="Rectangle 31" class="cls-7" x="441.32" y="340.49" width="77.93" height="2.17"/><path id="Path_76" data-name="Path 76" class="cls-7" d="M517.91,226.31a7.62,7.62,0,1,1,7.88-7.62h0a7.74,7.74,0,0,1-7.85,7.62h0Zm0-13.05a5.42,5.42,0,1,0,5.61,5.42h0A5.52,5.52,0,0,0,517.91,213.26Z"/><path id="Path_77" data-name="Path 77" class="cls-7" d="M520.16,291.55H440.25v-50h79.91Zm-77.73-2.18h75.44V243.71H442.46Z"/><polygon id="Rectangle_32" data-name="Rectangle 32" class="cls-7" points="440.74 243.58 441.94 241.75 519.64 289.6 518.43 291.43 440.74 243.58"/><polygon id="Rectangle_33" data-name="Rectangle 33" class="cls-7" points="440.74 289.51 518.44 241.65 519.64 243.48 441.95 291.34 440.74 289.51"/><path id="Path_78" data-name="Path 78" class="cls-4" d="M728.5,353.38V221.24l-12.41-2.65v146.8l93.43-.93-.32-11.85Z"/><path id="Path_79" data-name="Path 79" class="cls-7" d="M822,374.2H709.33V199.12H822ZM711.62,372H819.73V201.3H711.59Z"/><rect id="Rectangle_34" data-name="Rectangle 34" class="cls-7" x="719.47" y="209.99" width="18.24" height="2.17"/><rect id="Rectangle_35" data-name="Rectangle 35" class="cls-7" x="719.47" y="215.44" width="18.24" height="2.17"/><rect id="Rectangle_36" data-name="Rectangle 36" class="cls-7" x="719.47" y="220.87" width="18.24" height="2.17"/><path id="Path_80" data-name="Path 80" class="cls-7" d="M805.06,224.13a7.62,7.62,0,1,1,7.89-7.62h0a7.76,7.76,0,0,1-7.88,7.61Zm0-13a5.42,5.42,0,1,0,5.61,5.42h0A5.5,5.5,0,0,0,805.06,211.09Z"/><path id="Path_81" data-name="Path 81" class="cls-7" d="M807.33,289.37h-80v-50h80ZM729.6,287.2H805V241.54H729.61Z"/><polygon id="Rectangle_37" data-name="Rectangle 37" class="cls-7" points="727.92 241.41 729.13 239.58 806.83 287.44 805.62 289.27 727.92 241.41"/><polygon id="Rectangle_38" data-name="Rectangle 38" class="cls-7" points="726.71 285.18 804.13 237.12 805.34 238.94 727.92 287 726.71 285.18"/><path id="Path_82" data-name="Path 82" class="cls-7" d="M807.33,354.62h-80v-50h80Zm-77.73-2.17H805V306.78H729.61Z"/><polygon id="Rectangle_39" data-name="Rectangle 39" class="cls-7" points="727.92 306.68 729.13 304.84 806.83 352.7 805.62 354.53 727.92 306.68"/><polygon id="Rectangle_40" data-name="Rectangle 40" class="cls-7" points="727.87 352.56 805.56 304.69 806.77 306.52 729.09 354.39 727.87 352.56"/><path id="Path_83" data-name="Path 83" class="cls-16" d="M461.34,410h46.5a151.49,151.49,0,0,0,0-53.55h-46.5A93.17,93.17,0,0,1,461.34,410Z"/></svg>