<?xml version="1.0" encoding="utf-8"?>
<!-- Generator: Adobe Illustrator 25.2.3, SVG Export Plug-In . SVG Version: 6.00 Build 0)  -->
<svg version="1.1" id="fab53ecb-c04a-44eb-8d92-23f87bdb6c81"
	 xmlns="http://www.w3.org/2000/svg" xmlns:xlink="http://www.w3.org/1999/xlink" x="0px" y="0px" viewBox="0 0 942.5 631.4"
	 style="enable-background:new 0 0 942.5 631.4;" xml:space="preserve">
<style type="text/css">
	.st0{fill:#2F2E41;}
	.st1{fill:#FFB8B8;}
	.st2{fill:#F2F2F2;}
	.st3{fill:#FFFFFF;}
	.st4{fill:url(#SVGID_1_);}
	.st5{fill:#CCCCCC;}
	.st6{fill:url(#SVGID_2_);}
	.st7{fill:url(#SVGID_3_);}
	.st8{fill:url(#SVGID_4_);}
	.st9{opacity:0.1;enable-background:new    ;}
	.st10{fill:#3F3D56;}
	.st11{fill:#FF6584;}
	.st12{fill:#A0616A;}
	.st13{fill:url(#SVGID_5_);}
</style>
<path class="st0" d="M523.6,32.3c7.1,15-7.9,19.3-25.1,27.4c-17.1,8.1-30,16.9-37,1.8S448.7,16.6,473,5.2
	C498.1-6.6,516.6,17.2,523.6,32.3z"/>
<circle class="st1" cx="488.6" cy="38.7" r="23.1"/>
<path class="st0" d="M603,141.1c-0.8-1-1.6-2.1-2.4-3.1c-1-1.3-2.1-2.6-3.1-3.8c-12-13.8-24.7-22.5-38.7-23.4h0l-0.2,0l-27.9,27.2
	l-9.5,9.2l0.2,0.5l5.1,12.8h89.8C612.2,153.9,607.8,147.4,603,141.1z"/>
<path class="st0" d="M463.5,48L463.5,48l8.3-3.9l-1.2-11.9l5.5,9.9l4-1.9l-0.7-7l3.2,5.8L512,25.3l0,0
	c-5.7-12.2-20.3-17.5-32.5-11.7l-4.3,2C463,21.3,457.8,35.8,463.5,48z"/>
<path class="st2" d="M654.8,467.1H172.7c-8.6,0-15.5-6.9-15.5-15.5V161.9c0-6.3,5.1-11.4,11.4-11.4h490.2c6.4,0,11.6,5.2,11.6,11.6
	v289.5C670.3,460.2,663.4,467.1,654.8,467.1z"/>
<path class="st3" d="M187.8,451.6h452c8.3,0,15-6.7,15-15V190.7c0-8.3-6.7-15-15-15h-452c-8.3,0-15,6.7-15,15v245.9
	C172.7,444.9,179.5,451.6,187.8,451.6z"/>
<linearGradient id="SVGID_1_" gradientUnits="userSpaceOnUse" x1="157.0177" y1="149.3251" x2="670.1057" y2="149.3251">
	<stop  offset="0" style="stop-color:#F06D06"/>
	<stop  offset="1" style="stop-color:#FF0000"/>
</linearGradient>
<path class="st4" d="M670.1,161.1H157v-7.9c0-8.6,7-15.5,15.6-15.6h482c8.6,0,15.6,7,15.6,15.6V161.1z"/>
<circle class="st3" cx="185.3" cy="149.3" r="4"/>
<circle class="st3" cx="200.6" cy="149.3" r="4"/>
<circle class="st3" cx="215.9" cy="149.3" r="4"/>
<path class="st5" d="M427.9,398.3h-40.4c-4.9,0-8.9-4-8.9-8.9v-40.4c0-4.9,4-8.9,8.9-8.9h40.4c4.9,0,8.9,4,8.9,8.9v40.4
	C436.8,394.3,432.8,398.3,427.9,398.3z M387.5,341.9c-3.9,0-7,3.2-7,7v40.4c0,3.9,3.2,7,7,7h40.4c3.9,0,7-3.2,7-7v-40.4
	c0-3.9-3.2-7-7-7H387.5z"/>
<path class="st5" d="M419.9,387h-24.4c-1.6,0-2.8-1.3-2.8-2.8v-30.1c0-1.6,1.3-2.8,2.8-2.8h17.7c0.6,0,1.3,0.2,1.8,0.6l6.7,5.4
	c0.7,0.5,1.1,1.3,1.1,2.2v24.7C422.7,385.7,421.4,387,419.9,387z M395.5,353.2c-0.5,0-0.9,0.4-0.9,0.9v30.1c0,0.5,0.4,0.9,0.9,0.9
	h24.4c0.5,0,0.9-0.4,0.9-0.9v-24.7c0-0.3-0.1-0.6-0.4-0.7l-6.7-5.4c-0.2-0.1-0.4-0.2-0.6-0.2H395.5z"/>
<path class="st5" d="M415.2,364.4h-15c-0.5,0-0.9-0.4-0.9-0.9c0-0.5,0.4-0.9,0.9-0.9h15c0.5,0,0.9,0.4,0.9,0.9
	C416.1,364,415.7,364.4,415.2,364.4z"/>
<path class="st5" d="M415.2,370.1h-15c-0.5,0-0.9-0.4-0.9-0.9c0-0.5,0.4-0.9,0.9-0.9h15c0.5,0,0.9,0.4,0.9,0.9
	C416.1,369.7,415.7,370.1,415.2,370.1z"/>
<path class="st5" d="M415.2,375.7h-15c-0.5,0-0.9-0.4-0.9-0.9s0.4-0.9,0.9-0.9h15c0.5,0,0.9,0.4,0.9,0.9S415.7,375.7,415.2,375.7z"
	/>
<path class="st5" d="M523.8,398.3h-40.4c-4.9,0-8.9-4-8.9-8.9v-40.4c0-4.9,4-8.9,8.9-8.9h40.4c4.9,0,8.9,4,8.9,8.9v40.4
	C532.7,394.3,528.7,398.3,523.8,398.3z M483.3,341.9c-3.9,0-7,3.2-7,7v40.4c0,3.9,3.2,7,7,7h40.4c3.9,0,7-3.2,7-7v-40.4
	c0-3.9-3.2-7-7-7H483.3z"/>
<path class="st5" d="M516.7,379.5h-26.3c-1.6,0-2.8-1.3-2.8-2.8v-15c0-1.6,1.3-2.8,2.8-2.8h26.3c1.6,0,2.8,1.3,2.8,2.8v15
	C519.5,378.2,518.3,379.5,516.7,379.5z M490.4,360.7c-0.5,0-0.9,0.4-0.9,0.9v15c0,0.5,0.4,0.9,0.9,0.9h26.3c0.5,0,0.9-0.4,0.9-0.9
	v-15c0-0.5-0.4-0.9-0.9-0.9H490.4z"/>
<path class="st5" d="M503.6,371.6c-0.5,0-1-0.1-1.5-0.4l-14-8.8c-0.4-0.3-0.6-0.9-0.3-1.3c0.3-0.4,0.9-0.6,1.3-0.3l14,8.8
	c0.3,0.2,0.7,0.2,1,0l14-8.8c0.4-0.3,1-0.1,1.3,0.3c0.3,0.4,0.1,1-0.3,1.3l-14,8.8C504.6,371.5,504.1,371.6,503.6,371.6z"/>
<path class="st5" d="M332,398.3h-40.4c-4.9,0-8.9-4-8.9-8.9v-40.4c0-4.9,4-8.9,8.9-8.9H332c4.9,0,8.9,4,8.9,8.9v40.4
	C340.9,394.3,336.9,398.3,332,398.3z M291.6,341.9c-3.9,0-7,3.2-7,7v40.4c0,3.9,3.2,7,7,7H332c3.9,0,7-3.2,7-7v-40.4
	c0-3.9-3.2-7-7-7H291.6z"/>
<path class="st5" d="M325,379.5h-26.3c-1.6,0-2.8-1.3-2.8-2.8v-15c0-1.6,1.3-2.8,2.8-2.8H325c1.6,0,2.8,1.3,2.8,2.8v15
	C327.8,378.2,326.5,379.5,325,379.5z M298.6,360.7c-0.5,0-0.9,0.4-0.9,0.9v15c0,0.5,0.4,0.9,0.9,0.9H325c0.5,0,0.9-0.4,0.9-0.9v-15
	c0-0.5-0.4-0.9-0.9-0.9H298.6z"/>
<path class="st5" d="M320.8,379.5h-18.9c-1,0-1.9-0.8-1.9-1.9c0-0.3,0.1-0.7,0.3-0.9l5.7-9.9c0.5-0.9,1.7-1.2,2.6-0.7
	c0.3,0.2,0.5,0.4,0.7,0.7l3.7,6.4l2.1-3.7c0.5-0.9,1.7-1.2,2.6-0.7c0.3,0.2,0.5,0.4,0.7,0.7l4.2,7.2c0.5,0.9,0.2,2-0.7,2.6
	C321.4,379.4,321.1,379.5,320.8,379.5L320.8,379.5z M320.8,377.6L320.8,377.6l-4.2-7.2l-2.9,5.1c-0.2,0.3-0.5,0.5-0.8,0.5l0,0
	c-0.3,0-0.6-0.2-0.8-0.5l-4.5-7.8l-5.7,9.9H320.8z"/>
<circle class="st5" cx="322.1" cy="364.4" r="1.9"/>
<polygon class="st1" points="771.7,611.3 760.1,611.3 754.6,566.8 771.7,566.8 "/>
<path class="st0" d="M774.6,622.4l-37.2,0V622c0-8,6.5-14.5,14.5-14.5c0,0,0,0,0,0h0l22.7,0L774.6,622.4z"/>
<polygon class="st1" points="818.7,611.3 807.1,611.3 801.6,566.8 818.7,566.8 "/>
<path class="st0" d="M821.6,622.4l-37.2,0V622c0-8,6.5-14.5,14.5-14.5c0,0,0,0,0,0h0l22.7,0L821.6,622.4z"/>
<path class="st0" d="M815.2,592l-10.7-3.2c-1.6-0.5-2.8-1.9-3-3.6l-10-94.3c0-0.2-0.2-0.4-0.4-0.4c-0.2,0-0.5,0.1-0.5,0.4L774,582.2
	c-0.4,2.3-2.6,3.8-4.9,3.4c0,0-0.1,0-0.1,0l-13.6-2.8c-2.1-0.4-3.5-2.3-3.4-4.4l10.1-149.8l68.7-7.4l-10.2,167.1c-0.1,2.2-2,4-4.2,4
	C816,592.2,815.6,592.1,815.2,592z"/>
<circle class="st1" cx="815.1" cy="275.1" r="23.1"/>
<linearGradient id="SVGID_2_" gradientUnits="userSpaceOnUse" x1="762.0111" y1="368.5289" x2="847.6687" y2="368.5289">
	<stop  offset="0" style="stop-color:#F06D06"/>
	<stop  offset="1" style="stop-color:#FF0000"/>
</linearGradient>
<path class="st6" d="M762,429.4l14.9-93.9c3.1-19.4,21.3-32.6,40.7-29.6c1.5,0.2,3,0.6,4.4,1l0,0c17.6,5.1,28.4,22.7,25,40.7
	l-15.6,83.8L762,429.4z"/>
<path class="st1" d="M821.5,446.2c4.4-2.9,5.6-8.7,2.7-13.1c-0.3-0.5-0.7-0.9-1-1.3l15.4-29.8l-17.4,1.9l-12,28.1
	c-3.6,3.9-3.3,9.9,0.5,13.4C813,448.3,817.9,448.7,821.5,446.2L821.5,446.2z"/>
<linearGradient id="SVGID_3_" gradientUnits="userSpaceOnUse" x1="815.2718" y1="373.4778" x2="855.7249" y2="373.4778">
	<stop  offset="0" style="stop-color:#F06D06"/>
	<stop  offset="1" style="stop-color:#FF0000"/>
</linearGradient>
<path class="st7" d="M824.8,426.6c-0.9-0.1-1.6-0.5-2.3-1.1l-5.9-5.4c-1.3-1.2-1.7-3.1-1-4.8l11.8-27.9l-1.7-55.2
	c1-7.5,7.9-12.7,15.3-11.7c7.5,1,12.7,7.9,11.7,15.3c0,0,0,0,0,0l2.9,34.7c0.9,10.5-2.1,21-8.4,29.5l-18.4,24.8
	c-0.7,1-1.8,1.6-3,1.7C825.5,426.6,825.1,426.6,824.8,426.6z"/>
<path class="st1" d="M682.2,262.5c1,5.1,5.9,8.5,11,7.6c0.5-0.1,1.1-0.3,1.6-0.4l21.5,25.8l5.1-16.7l-21.2-22
	c-2.2-4.8-7.8-6.9-12.6-4.7C683.6,253.8,681.4,258.2,682.2,262.5z"/>
<linearGradient id="SVGID_4_" gradientUnits="userSpaceOnUse" x1="698.399" y1="302.0083" x2="792.2718" y2="302.0083">
	<stop  offset="0" style="stop-color:#F06D06"/>
	<stop  offset="1" style="stop-color:#FF0000"/>
</linearGradient>
<path class="st8" d="M699,273.2c0.4-0.7,1.1-1.3,1.9-1.7l7.3-3.3c1.6-0.7,3.5-0.4,4.8,0.9l21.1,21.7l51.5,20
	c6.5,3.8,8.6,12.2,4.8,18.7c-3.8,6.5-12.2,8.6-18.7,4.8c0,0,0,0,0,0l-33.1-10.9c-10-3.3-18.5-10.1-23.9-19.2L699,277.5
	c-0.6-1-0.8-2.3-0.4-3.4C698.7,273.8,698.8,273.5,699,273.2z"/>
<polygon class="st9" points="833.9,355.1 832.9,385.2 815.6,415.3 830.1,381.8 "/>
<path class="st0" d="M812.5,279.4c-3,0.4-5.8-1.5-6.6-4.4c-0.7-3.3-3.3-5.9-6.5-6.8c-4.2-1-9.4,1-12.5-2.2c-1.3-1.5-1.9-3.5-1.5-5.5
	c0.6-3.1,2.8-5.5,5.2-7.4c5.1-3.9,11.3-6.3,17.7-6.6c3.3-0.1,6.7,0.1,10,0.5c3.5,0.2,6.9,0.8,10.2,1.9c7.7,2.9,13.4,9.5,15,17.6
	c1.5,8-0.5,16.3-5.7,22.7c-3,3.8-7,6.8-11.4,8.7c-1.1,0.5-2.3,0.6-3.4,0.2c-2.8-1.1-2.3-4.5-1.1-6.8c1.4-2.5,3.4-4.8,2.4-7.8
	c-0.5-1.4-1.6-2.5-2.9-3.2C818.6,278.7,815.5,279,812.5,279.4L812.5,279.4z"/>
<path class="st3" d="M674.5,292.4H388.7c-8.6,0-15.5-6.9-15.5-15.5v-61.1c0-8.6,6.9-15.5,15.5-15.5h285.8c8.6,0,15.5,6.9,15.5,15.5
	v61.1C690,285.5,683,292.4,674.5,292.4z"/>
<path class="st10" d="M674.5,292.9H388.7c-8.8,0-16-7.2-16-16v-61.1c0-8.8,7.2-16,16-16h285.8c8.8,0,16,7.2,16,16v61.1
	C690.4,285.7,683.3,292.9,674.5,292.9z M388.7,201.7c-7.8,0-14.1,6.3-14.1,14.1v61.1c0,7.8,6.3,14.1,14.1,14.1h285.8
	c7.8,0,14.1-6.3,14.1-14.1v-61.1c0-7.8-6.3-14.1-14.1-14.1H388.7z"/>
<path class="st2" d="M639.7,277.4H423.5c-8.6,0-15.5-6.9-15.5-15.5v-32c0-8.6,6.9-15.5,15.5-15.5h216.2c8.6,0,15.5,6.9,15.5,15.5v32
	C655.2,270.4,648.2,277.4,639.7,277.4z"/>
<circle class="st11" cx="470" cy="241.6" r="18.5"/>
<path class="st10" d="M626.2,275.5l-26.2-22L574.3,232c-1.4-1.2-3.4-1.2-4.8,0l-25.6,21.7l-6.3,5.3l-9.4-7.9L499.4,227
	c-1.4-1.2-3.4-1.2-4.8,0L466,251.2l-29.1,24.6c-0.4,0.3-0.4,0.9-0.1,1.3c0.2,0.2,0.4,0.3,0.7,0.3l59.6-0.1l18.9,0l-0.2,0.2l56.2-0.1
	l53.6-0.1c0.5,0,0.9-0.4,0.9-0.9C626.6,276,626.5,275.7,626.2,275.5z"/>
<path class="st5" d="M871.7,623.8H691.2c-0.5,0-0.9-0.4-0.9-0.9s0.4-0.9,0.9-0.9h180.5c0.5,0,0.9,0.4,0.9,0.9
	S872.2,623.8,871.7,623.8z"/>
<path class="st1" d="M616.8,126c-1.5-2.5-4-4.2-6.8-4.8c-0.5-0.1-1-0.2-1.6-0.2l-71.6-64c-1.4-1.4-3.3-2.3-5.3-2.5
	c-0.4,0-0.8-0.1-1.2,0c-4.7,0.2-8.3,4.2-8.1,8.9c0.1,2.1,1,4.2,2.5,5.7l27.4,23.9l45,39.2c0,0.7,0.1,1.5,0.3,2.2
	c1.1,4.3,4.7,7.4,9.1,7.9c1.9,0.2,3.9-0.1,5.7-0.9c1.4-0.7,2.6-1.6,3.6-2.8c0.1-0.1,0.2-0.2,0.3-0.4
	C618.9,134.6,619.1,129.8,616.8,126L616.8,126z"/>
<path class="st1" d="M494.3,187.7l-0.7-27.1l-0.6-22.5l-0.4-15.8l-0.8-30.7c-0.4-4.7-4.6-8.1-9.2-7.7c-2.1,0.2-4.1,1.2-5.5,2.8
	c-0.3,0.3-0.5,0.6-0.7,0.9c-1.2,1.7-1.7,3.7-1.5,5.7l1.7,44.8l0.8,22.5l1.1,28.7c-0.3,0.4-0.6,0.9-0.8,1.3c-1.4,2.6-1.6,5.6-0.7,8.3
	c1.9,5.6,7.9,8.6,13.5,6.7c0.4-0.1,0.8-0.3,1.2-0.5c5.3-2.5,7.6-8.8,5.1-14.1C496.1,189.8,495.3,188.6,494.3,187.7L494.3,187.7z"/>
<path class="st5" d="M558.8,110.9l-6.6-18l-10.8-29.2c-1.6-4.3-5-7.6-9.4-9.1c-0.2-0.1-0.3-0.1-0.5-0.2c-4.2-1.3-8.7-0.6-12.4,1.7
	l-36.2,23c-6.9,4.4-9.1,13.4-5,20.4c4.5,7.8,9.5,15.4,14.8,22.7c4.2,5.7,12.1,6.4,13.4,15.8h26.7l27-24.3L558.8,110.9z"/>
<circle class="st12" cx="144.1" cy="309.1" r="21.8"/>
<path class="st12" d="M197.5,294.1c0.2,0.2,0.4,0.4,0.6,0.5c3.9,3.7,4.1,9.9,0.4,13.8c-0.3,0.3-0.5,0.5-0.8,0.8
	c-0.2,0.2-0.5,0.4-0.8,0.6l1.5,49.8c0.1,3.3-2,6.4-5.2,7.4l-0.1,0l-40.4,4.3c-4.6,0.5-8.7-2.8-9.2-7.4c-0.5-4.6,2.8-8.7,7.4-9.2
	c0,0,0.1,0,0.1,0l28.8-2.5l5-43.1c-0.3-0.3-0.6-0.6-0.9-0.9c-3.5-4.1-3-10.3,1.2-13.8C188.7,291.3,193.9,291.2,197.5,294.1
	L197.5,294.1z"/>
<polygon class="st12" points="179.9,612.2 190.8,612.2 196,570.3 179.9,570.3 "/>
<path class="st0" d="M177.2,608.7l21.4,0h0c7.5,0,13.6,6.1,13.6,13.6c0,0,0,0,0,0v0.4l-35.1,0L177.2,608.7z"/>
<polygon class="st12" points="71.9,597.2 81.2,602.8 107.1,569.4 93.3,561.2 "/>
<path class="st0" d="M71.3,592.7l18.4,11l0,0c6.5,3.9,8.6,12.2,4.7,18.7c0,0,0,0,0,0l-0.2,0.4l-30.1-17.9L71.3,592.7z"/>
<path class="st0" d="M193.4,597.4h-12.2c-2,0-3.8-1.5-4-3.6l-12.3-115.4c-0.1-0.7-0.7-1.3-1.5-1.2c-0.5,0.1-0.9,0.3-1.1,0.8
	l-22.1,49L101.1,591c-1,1.7-3.2,2.4-5,1.6l-15.7-6.9c-2-0.9-2.9-3.2-2-5.3c0.1-0.2,0.1-0.3,0.2-0.4l36-60.3l11.1-50.8
	c-3.5-22,11.4-54.8,11.6-55.2l0.1-0.2l41-16l0.2,0.3c16.2,53.1,26.1,110.3,18.8,196.1C197.2,595.8,195.4,597.4,193.4,597.4z"/>
<path class="st10" d="M135.7,418.9l-0.2-0.4c-0.1-0.2-9.2-19.4-16.3-40c-2.7-8-2-16.9,2.1-24.3c4.1-7.5,11.2-13,19.6-15l0,0
	c14.8-3.5,30,4.3,35.7,18.4c5.6,14,3.8,28.9,2.1,40.6l0,0.2l-0.2,0.1L135.7,418.9z"/>
<path class="st0" d="M170.5,296.8h-34.6v-15.1c7.6-3,15-5.6,19.5,0C163.7,281.7,170.5,288.5,170.5,296.8L170.5,296.8z"/>
<path class="st0" d="M134,279c-20.7,0-26.5,25.9-26.5,40.5c0,8.2,3.7,11.1,9.5,12.1l2-10.9l4.8,11.4c1.6,0,3.3,0,5.1-0.1l1.6-3.3
	l3.6,3.3c14.5,0,26.2,2.1,26.2-12.4C160.4,305,155.3,279,134,279z"/>
<path class="st5" d="M230.4,623.8H49.9c-0.5,0-0.9-0.4-0.9-0.9s0.4-0.9,0.9-0.9h180.5c0.5,0,0.9,0.4,0.9,0.9
	S230.9,623.8,230.4,623.8z"/>
<path class="st3" d="M233.8,314.5h-40.4c-4.9,0-8.9-4-8.9-8.9v-40.4c0-4.9,4-8.9,8.9-8.9h40.4c4.9,0,8.9,4,8.9,8.9v40.4
	C242.7,310.5,238.7,314.5,233.8,314.5z"/>
<path class="st10" d="M233.8,314.5h-40.4c-4.9,0-8.9-4-8.9-8.9v-40.4c0-4.9,4-8.9,8.9-8.9h40.4c4.9,0,8.9,4,8.9,8.9v40.4
	C242.7,310.5,238.7,314.5,233.8,314.5z M193.4,258.1c-3.9,0-7,3.2-7,7v40.4c0,3.9,3.2,7,7,7h40.4c3.9,0,7-3.2,7-7v-40.4
	c0-3.9-3.2-7-7-7H193.4z"/>
<linearGradient id="SVGID_5_" gradientUnits="userSpaceOnUse" x1="197.5826" y1="285.3852" x2="229.5424" y2="285.3852">
	<stop  offset="0" style="stop-color:#F06D06"/>
	<stop  offset="1" style="stop-color:#FF0000"/>
</linearGradient>
<path class="st13" d="M226.7,298.1h-26.3c-1.6,0-2.8-1.3-2.8-2.8v-19.7c0-1.6,1.3-2.8,2.8-2.8h7.4c1,0,1.9,0.5,2.4,1.3l2.1,3.4h14.4
	c1.6,0,2.8,1.3,2.8,2.8v15C229.5,296.8,228.3,298.1,226.7,298.1z"/>
<path class="st12" d="M225.9,308c0.1,0.2,0.3,0.5,0.4,0.7c2.2,4.9,0,10.7-5,12.9c-0.3,0.1-0.7,0.3-1,0.4c-0.3,0.1-0.6,0.2-0.9,0.2
	l-18,46.4c-1.2,3.1-4.3,5.1-7.7,4.8l-0.1,0l-38.9-11.7c-4.4-1.3-6.9-6-5.6-10.4s6-6.9,10.4-5.6c0,0,0.1,0,0.1,0l27.5,8.8l21.3-37.8
	c-0.2-0.4-0.3-0.8-0.5-1.2c-1.6-5.1,1.3-10.6,6.4-12.2C218.8,302,223.6,304,225.9,308L225.9,308z"/>
</svg>
